<mxfile host="app.diagrams.net" agent="Mozilla/5.0 (Windows NT 10.0; Win64; x64) AppleWebKit/537.36 (KHTML, like Gecko) Chrome/140.0.0.0 Safari/537.36 Edg/140.0.0.0" version="28.2.5">
  <diagram name="第 1 页" id="JW93A_VMOKs-Gn6Oe3wk">
    <mxGraphModel dx="1293" dy="830" grid="1" gridSize="10" guides="1" tooltips="1" connect="1" arrows="1" fold="1" page="1" pageScale="1" pageWidth="827" pageHeight="1169" math="0" shadow="0">
      <root>
        <mxCell id="0" />
        <mxCell id="1" parent="0" />
        <mxCell id="iaeM5CewVTjIPd2JOScx-1" value="" style="shape=image;verticalLabelPosition=bottom;verticalAlign=top;imageAspect=0;aspect=fixed;image=data:image/svg+xml,PHN2ZyB4bWxucz0iaHR0cDovL3d3dy53My5vcmcvMjAwMC9zdmciIHZlcnNpb249IjEuMCIgdmlld0JveD0iMCAwIDk4LjQxOSA5NS4zOTUiPjxkZWZzPjxjbGlwUGF0aCBjbGlwUGF0aFVuaXRzPSJ1c2VyU3BhY2VPblVzZSIgaWQ9ImEiPjxwYXRoIGQ9Ik0xLjA0IDMuMjc4SDk5LjNWOTguNzRIMS4wNHoiLz48L2NsaXBQYXRoPjwvZGVmcz48cGF0aCBjbGlwLXBhdGg9InVybCgjYSkiIGQ9Ik0yOC4wMjMgMTguNzg5QzE2LjE5IDI2LjU0NCA2LjIzNiAzMy40NTkgMy41NTggNDcuMzNjLTEuOTE5IDExLjM5My0xLjUyIDI0LjAyNiA1Ljc1NiAzNC4yMiAxNi4wMyAyMi44MjYgNTQuMjg3IDIwLjM4NyA3NS42NzQtNS42NzdDMTA2LjM3NiA0OS43NyA5Ny45ODEgMTcuMTUgNzkuNjMyIDguMTk1Yy0xNy45NS02LjU1Ni0yNy4xNDQtMy4yNzgtNTEuNjA5IDEwLjU5NHoiIGZpbGw9IiNmNTc2NWQiIGZpbGwtcnVsZT0iZXZlbm9kZCIvPjxwYXRoIGNsaXAtcGF0aD0idXJsKCNhKSIgZD0iTTc5LjI3MiAxMC4xOTRjLTYuNTE2LTIuMDM5LTExLjQ3My0zLjI3OC0xNi44My0yLjgzOCA0LjE5OCAwIDguMDM1IDEuMTk5IDEzLjAzMiAyLjgzOCAxNy41OSA4LjU1NSAyNS4yNjUgMzkuOTM2IDQuOTU3IDY0LjQtMTAuMzUzIDEzLjAzMy0yNS4yNjQgMTkuOTQ5LTM5LjQ1NiAyMC4zNDggMTQuOTUxLjQgMzEuNzgtNi4xMTYgNDMuMjk0LTIwLjM0NyAyMC4yNjgtMjQuNDY1IDEyLjIzMy01NS44NDYtNC45OTctNjQuNDAxeiIgZmlsbD0iI2Y0NGQzMiIgZmlsbC1ydWxlPSJldmVub2RkIi8+PHBhdGggZD0iTTE0LjI3MSA3OS45NTJjLTYuODc1LTEwLjE5NC03LjI3NS0yMi4wMjctNS4zNTYtMzIuNjIgMi42NzgtMTIuNjMzIDExLjg3Mi0xOS41NDkgMjMuMzQ1LTI2LjQ2NUM0NS42NTIgMTIuNzEyIDU0LjQ0NyA4LjYzNSA2Mi40ODIgNy4zOTZjLTkuNTU0IDAtMTguMzQ5IDQuNTE3LTM0LjA2IDEzLjQ3MUMxNy4zNSAyNy43ODMgNy43NTYgMzQuNyA1LjQ3OCA0Ny4zMzFjLTIuMzE5IDExLjAzNC0xLjUyIDIyLjgyNiA1LjM1NiAzMi42MiA3LjYzNiAxMC45OTQgMjAuNjY4IDE1Ljg3IDM0LjQ2IDE0LjY3Mi0xMi4yNzMgMC0yMy43NDYtNC44NzctMzEuMDIyLTE0LjY3MXoiIGZpbGw9IiNmOWJiYTYiIGZpbGwtcnVsZT0iZXZlbm9kZCIvPjxwYXRoIGQ9Ik01OC42MDQgMjUuMzA1YzIzLjcwNi44NCAyMi45NDcgMzAuNjIxLTIuMjc4IDQzLjY1My0yNS4yMjUgMTMuMDMyLTM1LjU3OS00LjA3Ny0zNC43OC0xNC42Ny43Ni0xMy44NzIgMjIuOTQ3LTI4LjU0NCAzNy4wNTgtMjguOTgzeiIgZmlsbD0iI2Y0NGQzMiIgZmlsbC1ydWxlPSJldmVub2RkIi8+PHBhdGggZD0iTTcwLjExOCAyOS4zMDJjNi41MTYgOS43OTQgMS4xNTkgMjYuOTQ0LTE2Ljg3IDM2LjMzOC0xMy4zOTIgNi45MTYtMjIuNTQ3IDUuMjc3LTI3Ljk0My44IDQuOTk3IDYuOTE2IDE0Ljk1IDEwLjk5MyAzMS4wMiAyLjQzOCAyMC4zMDktMTAuMTk0IDI0Ljg2Ni0zMC45ODEgMTMuNzkzLTM5LjU3NnpNNDkuODUgMjYuNTA0Yy05Ljk1NCAyLjAzOS0yMi41ODcgMTIuMjcyLTI1LjY2NSAxOS45ODggNC45OTctNS4yNzcgMTYuMTEtMTUuODcgMjUuNjY1LTE5Ljk4OHoiIGZpbGw9IiNlMTJhMTkiIGZpbGwtcnVsZT0iZXZlbm9kZCIvPjxwYXRoIGQ9Ik00MC4yNTYgNzQuNjM1YzcuNjc1LjggMzUuOTM4LTkuNzk0IDM2LjMzOC0zMy4xIDEuODc4IDkuODM0LTkuNTU1IDMzLjktMzYuMzM4IDMzLjF6IiBmaWxsPSIjZmVmZWZlIiBmaWxsLXJ1bGU9ImV2ZW5vZGQiLz48cGF0aCBjbGlwLXBhdGg9InVybCgjYSkiIGQ9Ik0yOC4wNjMgMTguODI5QzE2LjIzIDI2LjU4NCA2LjI3NiAzMy40OTkgMy41OTggNDcuMzdjLTEuOTE5IDExLjM5My0xLjUyIDI0LjAyNiA1Ljc1NiAzNC4yMiAxNi4wMyAyMi44MjYgNTQuMjg3IDIwLjM4NyA3NS42NzQtNS42NzdDMTA2LjQxNiA0OS44MSA5OC4wMjEgMTcuMTkgNzkuNjcyIDguMjM1Yy0xNy45NS02LjU1Ni0yNy4xNDQtMy4yNzgtNTEuNjA5IDEwLjU5NCIgZmlsbD0ibm9uZSIgc3Ryb2tlPSIjMzMzIiBzdHJva2Utd2lkdGg9IjEuNjc5IiBzdHJva2UtbGluZWNhcD0icm91bmQiIHN0cm9rZS1saW5lam9pbj0icm91bmQiLz48cGF0aCBkPSJNNTguNjQ0IDI1LjMwNWM5LjE5NS40NCAxNC45MTEgNS4zMTYgMTYuNDMgMTMuMDcyIDEuOTIgOC45NTQtMy4wMzggMjEuOTg2LTE4LjcwOCAzMC4xNDEtMTQuMTUyIDcuMzE2LTIyLjU4NiA0Ljg3OC0yNy4xODQgMS42LTUuMzU2LTQuMDM4LTguMDM1LTEwLjk5NC03LjYzNS0xNS44Ny0uNCA1LjI3NiAxLjUxOSAxMi4yMzIgNy4yNzYgMTYuMzEgNC45NTcgMy42MzcgMTMuMzkxIDYuMDc2IDI3LjkwMy0xLjI0IDE1LjcxLTguMTU1IDIxLjAyNy0yMS45ODcgMTkuMTQ4LTMxLjM4MS0xLjU1OS03LjcxNS04LjAzNS0xMi4xOTMtMTcuMjMtMTIuNjMyeiIgZmlsbD0iIzMzMyIgZmlsbC1ydWxlPSJldmVub2RkIi8+PC9zdmc+;" vertex="1" parent="1">
          <mxGeometry x="110" y="210" width="98.419" height="95.395" as="geometry" />
        </mxCell>
        <mxCell id="iaeM5CewVTjIPd2JOScx-2" value="" style="shape=image;verticalLabelPosition=bottom;verticalAlign=top;imageAspect=0;aspect=fixed;image=data:image/svg+xml,PHN2ZyB4bWxucz0iaHR0cDovL3d3dy53My5vcmcvMjAwMC9zdmciIHZlcnNpb249IjEuMCIgdmlld0JveD0iMCAwIDE1MS4wNjggMTU5LjIzMSI+PGRlZnM+PGNsaXBQYXRoIGNsaXBQYXRoVW5pdHM9InVzZXJTcGFjZU9uVXNlIiBpZD0iYSI+PHBhdGggZD0iTTIuMzE5LjhoMTUwLjg2OHYxNTkuMzQzSDIuMzJ6Ii8+PC9jbGlwUGF0aD48L2RlZnM+PHBhdGggY2xpcC1wYXRoPSJ1cmwoI2EpIiBkPSJNNjkuOTE4IDIuMDk5YzcuMDc1LTEuMzQgMjIuMDY2IDMuNTU4IDM0Ljk3OCA2LjY1NiA5Ljk5NCAyLjIxOCAxOC4zMyA5LjMzNCAyMy43NDYgMTIuODkyIDEyLjQ5MiA4LjQzNSAxNC45OSAxMy43NzIgMTkuNTg4IDI5Ljc0MiA0LjU3NyAxNS45OSA1LjM5NyAzMS4xMDEtLjQyIDQ2LjYzMi01LjgzNiAxNS4xMS0xMS4yNTMgMTkuOTg3LTE5LjE2OCAzMi44Ni04LjMzNSAxNC4yMTEtMjIuNDg2IDI4LjQyMi00Mi4wNzQgMjcuOTgzLTE5LjU2OS0uODgtMzEuMjQyLTcuNTM2LTQ0Ljk3My0xNy4zMS0xMy4zMzItOS43NzQtMjYuMjQ0LTEwLjY3My0zNi42NTgtNDkuNzUtNC4xNzctMTUuOTkuNDItMzQuMTk5IDcuMDc2LTQ1LjI5MiA5LjU3NC0xNi40MyAyMS4yNDctMjguODYzIDMwLjQwMS0zMy4zQzUxLjU5IDkuMjE0IDYxLjE2MyAyLjA5OSA2OS45MTggMi4wOTl6IiBmaWxsPSIjNzliY2U0IiBmaWxsLXJ1bGU9ImV2ZW5vZGQiLz48cGF0aCBkPSJNNDkuMTMgMzAuNDYyYy0xMS42NzMgNy4xMTUtMjEuNjY3IDIwLjQ0Ny0yNi4yNDQgMzYuODc3LTMuMzM4IDEyLjg5Mi0yLjkxOCAzNC4yMiA3LjA3NiA1MS4xMSA1LjQxNyA5LjMxNCAxOS4xNjggMTUuOTkgMzIuNDggMjAuNDI3IDE0LjU3MSA0LjQzNyAyOC43NDMgMy4xMTggNDAuODE1LTEuMzQgMjAuNDA4LTcuOTk1IDIyLjQ4Ny0yNC40MjUgMjkuNTYzLTQ1LjMxMiA0Ljk5Ni0xNS45OSA2LjY1NS0yOS4zMjIgMS4yNTktMzkuNTM2LTguNzU1LTE3Ljc3LTI5Ljk4Mi0yNy41NDMtNDkuNTctMjguODgyLTE0Ljk5MS0uOS0yNC4xNDYtLjQ0LTM1LjM3OSA2LjY1NnoiIGZpbGw9IiNiNzcwYTgiIGZpbGwtcnVsZT0iZXZlbm9kZCIvPjxwYXRoIGQ9Ik03Ny40NTMgMzYuNzc4Yy0uNDIuNDQgMCAxLjMzOSAwIDIuMjE4IDQuNTM3IDIuMjE5IDQuNTM3LTUuNzc2IDEuMjQtMy4wOTh6bS00LjYxNyAxNC42MTFjLTQuMTk4LTQuODk3LTcuMTU2IDcuOTc1LTIuMDk5IDcuOTc1IDYuMjk2LS40NCAyLjUxOS0xMS45NzMtLjQyLTguNDE1em0xMS42MTMtMi4yNTljLTEuNjguOS0yLjkzOCAyLjY5OS0yLjUxOSA0LjkzNyA0LjYxOCAxLjc4IDMuNzc4LTcuMTc1Ljg0LTMuNTc4em0yLjQ3OC0xMS4wNTNjLTIuOTM4IDIuNjM4LTEuMjU5IDcuOTM1IDIuNTE5IDQuODU3IDIuOTM4LTIuMjE5LjQyLTYuMTk2LTIuMDk5LTQuNDE3em03LjU1NiAxMS4xMzNjLTIuMDk5LjQ0LTMuNzc4IDUuNjc3LS44NCA1LjY3NyAzLjM1OCAwIDQuMTc4LTUuNjc3LjQyLTQuMzU4em0xMC44NTMtNy4xOTVjLTEuNjc5IDIuMjM4LS44NCA3Ljk5NSAyLjQ5OSA0Ljg5NyAxLjY1OS0yLjIyIDAtNC40MzgtMi4wOC0zLjU1OHptLTguNjk1LTEuMzZjLS40MiAxLjgtLjQyIDMuNTc4LS40MiA1LjM1NyA2LjE1Ny0uNDQgMS42Ni05LjgzNCAwLTMuNTU4ek03MS4xMTcgMzQuNDhjLTMuNzM4LTEuMzQtNy45MTUgNS4zMzYtMy43MzggNy4xMTUgNC45OTcgMS43NzkgNS44MTctMTAuNjk0LjQyLTcuMTE2em0yLjQ5OCA4Ljg5NGMtLjQyLjg4LS40MiAxLjc1OSAwIDIuNjM4IDIuNTE5Ljg4IDQuNjE4LTEuMzIgMS42OC0yLjYzOC0uNDIgMC0uODQuNDQtLjg0IDEuMzE5em0xNC41OTItMTMuMzcyYy00LjUzOCAyLjI1OCAxLjIzOSA1Ljg1NiAyLjQ3OCAyLjI1OC44Mi0zLjE1OC0yLjg3OC00LjA3Ny00LjExNy0xLjM1OXptLTMxLjY2MSA0Ljg5N2MtNC41NTggMC04LjI5NSA4LjA3NS0yLjQ5OSA4LjUxNSA0LjE1OC40NCA1Ljc5Ny03LjE1NiAyLjA3OS01LjgxN3ptLjA4IDE2LjQ3Yy0yLjQ3OS40Ni0zLjczOCA1LjM1Ny0uNDIgNC45MTcgMi40OTggMCAzLjMxOC0zLjU3OCAyLjA3OS00LjkxNy0uODIgMC0xLjI0IDAtMS42Ni45ek01MS41NjkgNjYuNDhjLS44NCAzLjk3NyAyLjg5OCA3LjUxNSA2LjIxNiAzLjk3NyAyLjA1OS0yLjY1OC44Mi03LjA5NS0yLjA3OS0zLjk3N3ptMi41OTggMjguNDYyYzAtLjQ2LjQtMS4zNTkuNC0yLjI1OC0zLjczOC0zLjE3OC01LjgzNyA0LjQ5Ny0yLjA3OSAyLjY5OHptNy43OTUtMTIuNTUyYzIuOTM5IDUuNzU3IDkuMjM1LTUuNzU2IDQuMTk4LTcuMDk2LTYuMzE2LTEuNzc5LTUuODc3IDEwLjY1NC0xLjY4IDcuOTc2ek01MC4zMSA4MS4xM2MxLjY1OS0uODk5IDMuMjk4LTIuMjM4IDMuNjk3LTQuMDE3LTMuNjk3LTMuNTk4LTUuNzU2IDUuMzU3LTEuNjM5IDMuMTE4em0tNS4zMTcgOS43NzVjMy43MzctMS43NzkgMy4zMzgtNy41NTYtMS4yNC01Ljc3Ny0zLjMzNyAxLjM0LTEuNjU5IDYuMjE3IDEuMjQgNS4zMzd6bS00LjI3OC0xMi45MTJjMi4wOCAwIDQuOTc3LTQuMzk4IDIuMDgtNS4yNzctMi45Mi0uODgtNS40MTggNC4zOTctMS4yNiAzLjk1OHpNMjguNjQzIDgxLjUxYzIuMDc4LTEuNzU4IDIuODk4LTcuNTE1LTEuMjQtNS43MzYtMi40OTggMS4zMi0xLjIzOSA0LjQxNyAxLjI0IDQuNDE3em03Ljk1NSA0LjA5OGMuODQtMS43OTkgMS4yNi0zLjU3OCAxLjY1OS01LjM3Ny01LjgzNy0xLjM1OS00LjE1OCA4Ljk1NS0uODIgMy41Nzh6TTU5LjU2NCA5OC44NmMyLjg5OCAyLjE5OSA4LjY3NS0yLjY1OCA0Ljk1Ny01Ljc1Ni00LjEzOC0zLjExOS04LjI3NSA4LjM5NC0yLjA1OSA3LjA3NXptLS40Mi05LjM1NGMuODQtLjQ0IDEuMjYtMS43Ni44NC0yLjY1OS0yLjEtMS4zMzktNC42MTggMC0yLjUxOSAyLjIxOS44NCAwIDEuMjYtLjQ0IDEuMjYtLjg4ek00MS42MTUgOTguMDJjNS40MzYtLjg5OS40Mi01Ljg3Ni0xLjY4LTIuNjk4LTEuNjc4IDIuNjk5IDEuNjggNC40OTggMy43NzkgMi42OTl6bTMxLjY4MSA0Ljc5OGM0LjExNyAxLjMxOSA5Ljg5NC01LjMxNyA0Ljk1Ny03LjUzNi00LjEzOC0xLjc3OS03Ljg1NiA1LjMxNy0zLjcxOCA1LjMxN3ptNC41NTctMTUuNDcxYzIuMDU5IDAgNC41MzctNC4wMzcgMS42NTktNC45MzctMi40OTktLjktNC4xNTggMi4yNTktMy4zMTggNC40OTcuODIgMCAxLjI0IDAgMS42NTktLjQ0em04LjczNS0xMi45MTJjMS42MzktMy45OTgtLjg0LTguNDM1LTQuOTc3LTUuNzU3LTIuODk5IDEuNzYtMi40NzkgNi4xOTcuODM5IDQuNDM4em0xNC41MzEtMS42NzljLS40Mi40NCAwIDEuMzQgMCAyLjIxOSA0LjUzNyAyLjIxOCA0LjUzNy01Ljc3NyAxLjIzOS0zLjA5OXptNy4xNTUgMTIuMzUyYy0xLjY3OS45LTIuOTM4IDIuNjk5LTIuNTE4IDQuOTM3IDQuNjE3IDEuNzggMy43NzgtNy4xNzUuODQtMy41Nzd6bTIuNDc5LTExLjA1M2MtMi45MzggMi42MzktMS4yNiA3LjkzNSAyLjUxOCA0Ljg1NyAyLjkzOS0yLjIxOC40Mi02LjE5Ni0yLjA5OC00LjQxN3ptNy40NzUgMTEuMTMzYy0yLjA1OC40NC0zLjY5NyA1LjY3Ny0uODIgNS42NzcgMy4yNzkgMCA0LjA3OC01LjY3Ny40LTQuMzU3em0xMC43NzQtNy4xOTVjLTEuNjggMi4yMzgtLjg0IDcuOTk1IDIuNDk4IDQuODk3IDEuNjYtMi4yMTkgMC00LjQzOC0yLjA3OC0zLjU1OHptLTguNzU1LTEuMzU5Yy0uNDQgMS43OTgtLjQ0IDMuNTc3LS40NCA1LjM1NiA2LjM5Ny0uNDQgMS43Mi05LjgzNCAwLTMuNTU4em0tMTguNjY5IDQ2LjY5MWMyLjEgMCA0LjYzOC00LjAzNyAxLjY4LTQuOTM3LTIuNTM5LS45LTQuMjM4IDIuMjU5LTMuMzc5IDQuNDk4Ljg0IDAgMS4yNiAwIDEuNy0uNDR6bTguNzM1LTEyLjkxMmMxLjY2LTMuOTk3LS44NC04LjQzNS00Ljk5Ny01Ljc1Ni0yLjkzOCAxLjc1OS0yLjUxOCA2LjE5Ni44MiA0LjQzN3pNNzEuOTM2IDYyLjk0MmMtNC45NzctMi4yMTktOC43MzQgMTAuNTczLTEuMjM5IDEwLjU3MyA0LjE1OCAwIDkuMTM1LTguMzc0IDMuNzM4LTguODE0em0yMC44MjgtMi43NzhjLTIuMDE5IDAtMy4yNTggMS4zNzktMi40MzkgMy42NzcgMS4yMiAwIDIuODU5LS45MiAzLjY1OC0yLjI5OC0uOC0xLjM4LTEuMjItLjkyLTIuMDE5LS40NnptNC4yNTcgMTYuNTVjLTQuMjM3LjQ2LTcuMTk1IDkuNzU0LTEuNjk5IDkuMzE0IDMuNzk4LS40NCA1LjA1Ny04Ljg1NSAxLjI2LTkuMzE0LS40Mi40Ni0uODQuODk5LS40MiAxLjc3OHoiIGZpbGw9IiM5MzE5N2YiIGZpbGwtcnVsZT0iZXZlbm9kZCIvPjxwYXRoIGQ9Ik0xMDQuODM2IDg5LjU2NmMtNS44MTYtMy41NzgtMTYuNjEgNS43OTYtOS41MzQgMTAuMjU0IDcuMDU2IDMuOTk3IDE0LjUxMS05LjgxNSA3Ljg3NS0xMS4xNTR6bS0xNi45NjkgMTUuMTMxYy0uODQgMS43NTgtLjg0IDMuNDk3IDAgNC43OTcgMy4yOTggMCA0LjUxNy00Ljc5NyAxLjIzOS01LjY3Ny0uNDIuNDQtLjQyLjg4LS40MiAxLjc1OXptLTMuMzM4IDYuOTk1Yy03LjQ5NiAxLjM0LTcuMDc2IDEyLjQzMy0uNDIgMTAuMjE0IDcuMDc2LTIuNjU4LS44Mi0xMy43NzItMy43MzgtNy4wOTZ6bTEwLjQzMy0uMzU5Yy00LjU3NyA5LjgzNCA3Ljg5NiA0LjAxNyAxLjY2LTEuMzYtMS42Ni45LTIuMDggMy4xMzgtMS4yNCA0LjkzN3ptMjUuODA1LTE1LjE5MWMtMi4wNzkgMS44MTktMi4wNzkgNS40MzYtLjQyIDcuNjc1IDIuMDU5LS40NCAzLjI5OC0yLjY5OCAyLjQ3OS00Ljk1Ny0uODItLjQ2LTEuMjQtLjQ2LTEuNjYuNDZ6bS0uNDYgMTUuMTkxYy0uODQuODk5LTMuNzc4IDUuODM2LS40MiA1LjM5NiAyLjA4IDAgMi4wOC00LjAzNy40Mi00LjAzN3ptMTIuMDczLTUwLjYxYy0yLjkzOC40NC01LjA1NyA2LjE1Ni0xLjI2IDUuNzE3IDIuNTE5LS40NCAyLjEtMy45NTggMC00LjM5OHptLTYuMjc2LTExLjk5M2MtMS4yNiAxLjMyLTEuMjYgMy41MTggMCA1LjI3NyAyLjQ5OC0uODggMi44OTgtNC4zOTcgMC00LjgzN3ptLTkuMTM0LTkuODM0Yy0yLjEyIDEuMzYtMS42OCA2LjMxNy44MzkgNC4wNzggMS42NzktMS4zNiAxLjY3OS0zLjYxOC0uNDItMy42MTh6bS43NzkgMTAuNjk0Yy02LjIzNy0zLjA3OC04LjczNSA3LjkzNS0yLjQ5OSA3LjkzNSA2LjIzNiAwIDQuMTU4LTEyLjc5Mi40Mi03LjQ5NXptLTEzLjY5MiAyLjI1OWMtMS42OCAxLjMzOS0zLjM1OCA3Ljk5NS40MiA3LjU1NSAzLjMzOCAwIDIuOTM4LTcuMDk2IDAtNS43Nzd6bTEuMzE5IDguODE0Yy02LjY3NiAxLjM0LTMuMzM4IDEwLjY5NCAzLjc1OCA4LjAzNSA3LjA3Ni0zLjEzOCAyLjQ5OC0xMS4xNzMtMS42OC02LjI1NnpNODMuNjMgNTQuNDg3Yy0yLjUgMS43NTktNC41OTggOS42NzQuODE5IDguMzU1IDQuNTc3LS44OCAxLjY3OS0xMC4xMTQtMS42Ni00LjM5N3ptLTEzLjc1MiA0Ny4xMzFjLS40LS40Ni0uODItMS4zMzktMS42NC0xLjc5OC0yLjA1OC44OTktNy44MzUgMy41NzctNS4zNTYgNi42OTUgMi40NzggMi42NTkgOC42MzUtMS4zMzkgNy40MTUtNC44OTctMS4yMzkgMC0yLjQ3OCAwLTMuMjk4LjQ0ek00MS4xNTUgNTAuODljLTMuMzE4IDAtNC41NzcgNi4yNTUtLjgyIDcuMTU1IDIuNDguNDQgNC41NTgtMy4xMTggMi4wOC00LjkxNy0uNDIuNDYtLjQyLjktLjQyIDEuNzk5em0yNi42NjQgNjAuMDIzYy02LjIzNi0uODgtOS41NzQgMTIuNDEyLTIuNDk5IDExLjk3MyA3LjA3Ni0uODggNi42NzYtMTQuMTkyIDEuNjgtMTAuNjM0em0xNS4wOTEgMTcuNzY5Yy0yLjA5OSAxLjM0LTIuNTE5IDcuMTE2LjgyIDQuODk3IDIuMDk4LS44OCAyLjQ5OC0zLjk5OC40MTktNC44OTctLjQyLjQ2LS40Mi45IDAgMS4zNHptLTMyLjItMjAuNDA4Yy03LjQ5NiA1Ljc1NyAxLjIzOSAxMC4xNzQgMy4zMTcgMy45OTggMS42Ni01LjMxNy02LjY1Ni03LjA5Ni00LjE1Ny0xLjM0em0zMy4zNzktMjAuNDQ3Yy0uNDIgMS43NzktLjQyIDMuNTc4Ljg0IDUuMzU3IDcuOTM1LS40NCAwLTExLjE5NC0uNDItMy4xMTl6bS0xMy43MzItLjljLTIuMTE4IDIuMjE5LS44NCA3LjA1NiAyLjUxOSA0LjQxOCAzLjM1OC0zLjA5OC0zLjM1OC03LjUxNi0zLjM1OC0uNDR6TTQ3LjQ3MSAxMDAuMjJjLS40Mi44NzkgMCAxLjc1OC44MiAyLjYzOCAyLjAzOC0uNDQgMi40MzgtMi4xOTkgMS4yMTktMy41MTh6IiBmaWxsPSIjOTMxOTdmIiBmaWxsLXJ1bGU9ImV2ZW5vZGQiLz48cGF0aCBkPSJNNjEuNTYzIDQzLjM5NGMtLjg0IDEuNzc5IDAgNC40NTcgMi4wNzggMy41NzggMi45MTktLjQ2IDIuMS00LjQ3OC0uNC00LjQ3OHptLjM3OSAxNC42NzFjLS40Mi44NC0uNDIgMS42NzkuNDIgMi4wOTkgMS4yNCAwIDEuNjQtMS42OC40LTIuOTU5LS40LjQ0LS40LjQ0LS40Ljg2em0uNSA2LjIzNmMtMi45MTgtLjQ2LTQuNTk3IDQuODU3LTEuNjU5IDUuNzM3IDIuNDk5LjQ0IDQuNTc3LTMuOTc4IDIuMDc5LTUuMjk3em0xMy43MzIgMTEuNTMzYy00LjY1Ny44OCAyLjUzOCA0LjMxNy40NC40NCAwLS40NC0uNDQtLjQ0LS40NCAwem0xMS4yNTMtLjU0Yy0yLjUxOCAxLjM0LTUuMDM3IDYuNjk2LS44NCA2LjI1NyA2LjI3Ny0uNDQgMi41MTktOS4zOTUuNDItNC45MTd6bTcuMDc2LTcuMTM1Yy0uODIgMS4zNzktMS42NCAzLjY1NyAwIDQuNTU3IDIuNDM4IDAgMi44MzgtNC4wOTggMC0zLjE3OHptLTYuMTk3LTIyLjE0N2MtMS4yNTkuOS01LjQzNiA0Ljk1Ny0yLjUxOCA1LjgzNyAyLjUxOCAwIDIuOTE4LTMuNTc4IDEuMjYtNC4wMzh6bTEuNjE5IDguNTE1Yy0yLjAzOC0uNDQtMy42OTcgMi42MzgtMS4yMTkgMy41MTggMy4yNzguNDQgMy42NzgtNC44MzcgMS4yMi0zLjk1OHptLTExLjYzMi03LjY1NWMtMS43IDEuMjk5LTUuMDk3LTEuMzItMi45NTktMy4wNTkgMS43LTEuMzE5IDMuMzc4IDIuMTggMS43IDMuMDU5ek03NC45NTUgMzEuODRjLTEuNy0uNDU5LTIuNTU5IDEuMzQtLjg0IDEuNzggMi4xMTkuODggMi4xMTktMS4zNCAxLjI4LTIuMjM5LS40NCAwLS40NC40Ni0uNDQuOXptNy43OTUtLjkzOWMtMi45MTggMS4zNi0xLjI0IDUuODM3IDEuMjQgMy41OTggMC0uOS0uNC0xLjc5OS0xLjI0LTEuNzk5em0xNS41MS0uNDE5Yy0yLjU1OC0uNDYtNC4yNzcgMy4wOTgtMS4yNzkgMy45NzcgMi4xMTkuNDQgMy4zOTgtMS43NTkgMS43LTMuMDk4em04LjY3NSA2LjE3NmMtMS42MzkgMC00Ljk1Ny0yLjIzOS0yLjQ3OC0zLjEzOCAyLjQ3OC0xLjM0IDUuMzU2IDQuMDE3IDEuNjU5IDMuNTc4em0xMy40MTIgMjAuODY3Yy0yLjQ5OC40Ni01LjAxNyA1LjQzNy0xLjY1OSA2Ljc3NiAyLjkxOC45IDQuMTU4LTMuNTk4IDIuNDk5LTUuNDE3LS40MiAwLS40MiAwLS44NC40NnptLS41IDExLjE5M2MtMS4yNTkgMC0yLjUxOCAzLjExOC0uODQgMi42NzkgMS42OC0uNDQgMS42OC0xLjc4Ljg0LTIuMjE5IDAgMC0uNDIgMC0uNDIuNDR6bTUuNDM3IDIuMTM5Yy0uNDQgMS4zNiAwIDMuMTM4IDEuNjk5IDEuNzk5IDEuNjk5LTEuMzQtLjQyLTQuNDk3LTEuNjk5LTEuNzk5em0tNjkuNDU4IDguMDE1di0uNDZjLS44NC40Ni0xLjI2IDMuNTc4LjgyIDMuMTM5IDEuNjc5LS40NCAyLjA3OC00LjAzOCAwLTMuNTc4em0tMTUuOTMtMTguNzA4Yy0yLjUxOSAwLTIuMDk5IDQuODk3IDAgNS43NzYgNC4xNzcgMi4yMTkgNi42NzYtNS43NzYgMS4yNi01LjMxN3ptLTguNjU1IDQuNTk2Yy0uNC44OC0uODIgMS4zMi0uNCAyLjIgNC4wNTguODc5IDEuNjItNS43NTcuNC0xLjc2em0xMC4yOTQtMjIuNzA1Yy0xLjI2LS40NC0xLjY4IDEuMjk5LTEuNjggMi42MTggMS4yNi44NiA0LjE1OCAwIDQuMTU4LTEuNzU5IDAtMS43MzktMi4wNzgtMy4wNTgtMi44OTgtLjg2em0yMS43MDcgOC44MzVjLTIuNTE5IDIuMjM4IDEuNjU5IDQuNDc2IDIuOTE4IDIuMjM4IDIuMDc5LTIuNjk5LTEuNjgtMy41OTgtMi45MTgtMS4zNHpNNTAuNzcgNTcuMTQ1Yy0zLjM1OS40NC00LjE5OCA1LjczNy0uNDIgNS43MzcgNS4wMTYgMCAzLjc3Ny04LjM5NS0uNDItMy45NTh6TTM2LjEzOCA5Ni4zMDJjLTIuOTE4IDMuMDk4LjQgNy41MTUgMi4wNTkgMy41MzcgMS42NTktMy41MzctMy4zMTgtNi42NTUtMy4zMTgtMi42NTh6bTEuMzM5IDEzLjY3MWMtMi44OTguNDYtMS4yMzkgNy4wNzYgMS4yNCA3LjA3NiAzLjY5Ny40NCAyLjA1OC01LjczNiAwLTcuMDc2IDAgLjQ2IDAgLjQ2LS40Mi45em0xNi42MSA4LjkxNWMtLjg4IDEuMzItLjQ0IDIuNjM4Ljg2IDMuMDc4IDEuMjk5LS44OCAxLjI5OS0zLjUxOC0uODYtMy41MTgtLjQ0LjQ0LS40NCAxLjMyLS40NCAyLjE5OXptMS4yOTktMTMuNzkyYy0uODIgMS43Ni0uNCA0LjM5OCAxLjYyIDMuOTU4IDIuODM4IDAgMi40MzgtNS4yNzcgMC01LjcxNy0xLjIyLjQ0LTEuNjIgMi4xOTktMS42MiAzLjk1OHptMTkuOTQ4LjVjLTMuMzM4LS40NC0zLjMzOCA1LjczNyAwIDQuODU3IDIuNDk5LS40NCAyLjEtNS43NTYtLjQyLTMuOTc4em0xMS4yNzQtMTAuMjU0Yy0yLjEuNDYtMi45MzkgNC40NzgtLjQyIDQuMDM4IDIuNTE4IDAgMS42NzktNC4wMzgtLjQyLTIuNjc5em0tOC4zNzUtNS43MTZjLTIuODc5LS40NC0yLjA0IDMuODc3LjgyIDMuMDE4IDIuNDU4LS44NiAxLjIzOC0zLjQ1OC0uODItMy4wMTh6bTM0Ljk3OCAzLjA3OGMtMi41MzgtLjg4LTMuMzk4IDMuOTU3LTEuMjc5IDQuODM3IDIuNTM5IDEuMzIgNS4wNzctNC4zOTcgMS4yOC00LjM5N3ptMi4xMTkgNy44OTVjLS44NC40NC0xLjY3OSAxLjMyLTEuNjc5IDIuMjE5IDIuNTE5IDEuMzE5IDMuMzU4LTIuNjc5IDEuNjgtMi4yMTl6bS0xNy44OSAyLjI1OWMtMi4wOTggMS4zNTktMi4wOTggNi4zMTYuODQgNS40MTYgMi4xLS45IDIuMS00LjQ5Ny40Mi00Ljk1N3oiIGZpbGw9IiNjYjllYzQiIGZpbGwtcnVsZT0iZXZlbm9kZCIvPjxwYXRoIGQ9Ik0zOS45MzYgMTIyLjA2NmMtOS41NzQtMTUuOTktOS45OTQtMzYuODc4LTYuNjU2LTQ4Ljg3IDQuMTU3LTE1LjUzIDE1LjgzLTIzLjk4NiAyNy4wODMtMzEuMDgyIDEwLjgxNC02LjIxNiAxNy4wNy0xMS41NTMgMzEuNjQxLTEwLjY1MyA5LjE3NS40NCAxOS4xNjkgMy4wOTggMjcuNDg0IDcuOTk1LTkuOTk0LTcuOTk1LTIyLjkwNy0xMi40NTItMzUuMzk5LTEzLjMzMi0xNC41NzEtLjktMjMuMzI2LS40NC0zNC4xNCA2LjIxNi0xMS4yNTIgNy4xMTYtMjAuODI3IDE5Ljk4OC0yNS4wMDQgMzUuNTM5LTIuOTE4IDExLjk5My0yLjQ5OSAzMi44NiA3LjA5NiA0OC44NSAyLjg5OCA0Ljg5NyA3Ljg5NSA5LjMzNSAxNC41NyAxMi40MzMtMi45MTctMi4yMTktNC45OTYtNC40MzgtNi42NzUtNy4wOTZ6IiBmaWxsPSIjZDFhZGNlIiBmaWxsLXJ1bGU9ImV2ZW5vZGQiLz48cGF0aCBkPSJNMzIuMDIgMTE2LjY5Yy05LjU3NC0xNS45NzEtOS45OTMtMzYuODM4LTcuMDc1LTQ4LjgzMSA0LjE1Ny0xNS41NSAxMy43MzItMjguNDIzIDI0Ljk0NS0zNS41MTkgMTAuODEzLTYuNjU2IDE5LjU0OC03LjExNSAzNC4xLTYuMjE2LTEwLjM5NSAxLjc4LTI0LjEwNiAxLjc4LTM0LjEgMTEuMDkzLTEwLjM5NCA5LjMzNS0yMC4zNjggMTcuMzMtMjIuMDI3IDM1LjUxOS0yLjA3OSAxOC4yMDktMi40OTggMjYuMjA0IDQuMTU4IDQzLjk1M3oiIGZpbGw9IiNlYWRhZWEiIGZpbGwtcnVsZT0iZXZlbm9kZCIvPjxwYXRoIGQ9Ik0xMzIuMDIgNTQuNDA3Yy0yLjkxOC01Ljc3Ni02LjY3Ni0xMC4yMTQtMTEuMjUzLTE0LjIzMSAxLjI1OSAyLjIzOCAyLjQ5OCA0LjAxNyAzLjc1OCA2LjIzNiA0Ljk5NiAxMC4yMzQgMy4zMTggMjIuNjg2LTEuMjYgMzcuNzk3LTYuNjU2IDIwLjQ0OC0xMi40OTIgMjkuMzQyLTMxLjY0IDM3LjM1Ny0xMS42NTMgNC40MzgtMjAuNDA4IDE1LjExMS0zNC4xNCAxMC42NzQtOC43NTUtMi42NzktNi42NTYuNDQgNi4yMzYgNC40MzcgMTMuNzUyIDMuOTk4IDI3LjA2NCAzLjExOCAzOC43MzctMS4zMzkgMTkuMTQ4LTcuNTU1IDIxLjY0Ny0yMy4xMDYgMjguMzAzLTQzLjEzNCA0LjU3Ny0xNS4xMSA2LjIzNi0yOC4wMDMgMS4yNTktMzcuNzk3eiIgZmlsbD0iIzkzMTk3ZiIgZmlsbC1ydWxlPSJldmVub2RkIi8+PHBhdGggZD0iTTYzLjY4MSAxMzYuNjc3YzEzLjc1MiAzLjk5OCAyNy4wNjQgMy4xMTggMzguNzE3LTEuMzM5IDE5LjEyOC03LjU3NSAyMS42MjctMjMuMTQ2IDI4LjI4My00My4xOTQtMy4zMTggOS4zNTQtMTQuNTUxIDMzLjg0LTMwLjc4MiA0MC4wNzYtMTYuNjUgNi42NzYtMzMuMyA1LjM1Ny0zNi4yMTggNC40NTd6IiBmaWxsPSIjN2YwZTZlIiBmaWxsLXJ1bGU9ImV2ZW5vZGQiLz48cGF0aCBkPSJNMTI0Ljg0NCAyNC43ODVjLTQuOTk3LTMuNTU4LTEyLjkxMi0xMC4yMTQtMjIuNDg2LTEyLjQzMi0xMi4wOTMtMi42NTktMjYuMjQ0LTcuMTE2LTMyLjkyLTUuNzc3LTcuOTE1IDAtMTcuMDcgNi42NTYtMjUuNDA1IDEwLjY1NC04Ljc1NCAzLjU1Ny0yMC4wMDggMTUuNTUtMjguNzYyIDMxLjA4QzkuMDM1IDU4LjUyNiA0LjQzNyA3NS4zOTUgOC42MTUgOTAuNDg2YzguNzU0IDMzLjMgMTkuNTg4IDM2Ljg1OCAzMC44MjEgNDMuOTU0LTYuNjU2LTUuNzU3LTE2LjI1LTguNDM1LTIxLjY2Ny0yOS4zMDMtNC4xNTctMTUuMDkgMC00NC4zOTMgNS44MzctNTQuNjA3QzMyLjc4IDM1IDQ1LjI3MyAyNC43ODUgNTQuMDI3IDIwLjc4N2M4LjMzNS0zLjU1NyAxOC43NDktOS4zMzQgMjYuNjY0LTkuMzM0IDYuNjU2LTEuMzIgMTkuOTg4IDMuOTk4IDMyLjA4IDYuNjc2IDMuNzU4Ljg4IDkuMTc1IDQuODc3IDEyLjA3MyA2LjY1NnoiIGZpbGw9IiNjN2UwZjIiIGZpbGwtcnVsZT0iZXZlbm9kZCIvPjxwYXRoIGQ9Ik04LjYxNSA5MC40NjVjLTQuMTc4LTE1LjA5LjQyLTMxLjk4IDYuNjc2LTQyLjE5NCA4Ljc1NC0xNS41MyAyMC4wMjgtMjcuNTI0IDI4Ljc4Mi0zMS4wODEgOC4zNTUtMy45OTggMTcuNTMtMTAuNjc0IDI1LjQ0NS0xMC42NzQtNC41NzcgMC0xNS44NSA2LjY3Ni0yMi4xMDcgMTEuOTkzLTYuNjc2IDUuMzM3LTE3LjUxIDExLjk5My0yMy4zNjYgMjIuNjY2QzE4LjIxIDUxLjgyOSA0Ljg1NyA2Ni40OCA4LjYxNSA5MC40NjV6IiBmaWxsPSIjZmZmIiBmaWxsLXJ1bGU9ImV2ZW5vZGQiLz48cGF0aCBkPSJNNzkuMDIyIDE0Ljk1Yy0xLjY2OSAyLjY0IDIuOTE4IDMuMDggMy4zMzggMS4zMi44My0yLjYzOC0yLjA4OS0zLjUxOC0yLjkxOC0xLjMyem05LjYwNC0uMDM5Yy0uNC40Ni0uOC45Mi0uOCAxLjM4IDEuMi40NTkgMS4yLjQ1OSAyLS40Ni0uNC0uOTItLjgtLjQ2LTEuMi0uNDZ6bTcuOTc1IDIuNzY5Yy0zLjM1OC0uNDUtNC42MTcgMy41NDctLjgzOSAzLjEwNyAyLjA5OSAwIDIuOTM4LTIuMjE4Ljg0LTIuNjY4em0tNy45MzUgMi4xNDhjLS40MiAwLS44NC40My0uODQgMS4yOSAxLjI2LjQyOSAxLjI2IDAgMS42OC0uODYtLjQyLS44Ny0uNDIgMC0uODQgMHptMTUuMzcxLTMuMDc4Yy0xLjY2IDEuMzM5LTEuNjYgMy41NTguNDEgMy41NTggMi44ODguNDQgMS42NDktMi4yMTkgMC0yLjY2OXptNC42MDcgNy4xMTZjLTEuMzA5IDEuNzU4LjQzIDMuNTE3IDEuNzMgMS43NTgtLjQzLS44NzktLjg2LS40NC0xLjczLS40NHptMTAuODQ0IDBjLTIuNTI5IDAtNC42MzggMy40NTctMS4yNiAzLjg4NyAyLjkzOS40MyAyLjkzOS0zLjg4Ny40Mi0zLjAxOHptNi42MTYgMy45OTdjLTEuMjguOS0yLjE0IDQuODc3LjQyIDMuOTk4IDEuMjc5LS44OC40MzktMi4yMTktLjg0LTIuNjU5em03Ljk3NSAxLjM1OWMtMi4wNzkuNDQtMi45MTggMy41MTgtLjQyIDMuMDc4IDEuNjU5IDAgLjg0LTEuNzU5LS40Mi0yLjE5OHptLTIuMTE5IDEyLjgzM2MtMS4yLTEuMzItMS41OTktNS4zMTcgMC0zLjUzOCAxLjIgMS4zMzkuNCAzLjk3Ny0xLjIgMy4wOTh6bTYuMjE2LTMuMTU5Yy0xLjI1OS0xLjMxOS0xLjI1OS0zLjUxNy44NC0yLjYzOCAyLjkzOCAxLjc1OS0uODQgNS4yNzctMy4zNzggMy45NTh6bS0zLjY5OCA2LjYzNmMtMS42MzkuNDYtMS42MzkgMy42NzguNDIgMy4yMTggMS42MiAwIDEuNjItMS4zNzkuODItMi4yOTh6bTEwLjQxNCA1LjM1OGMtLjg0Ljg3OS0xLjI2IDEuNzU4LS44NCAyLjYzOCAxLjI2IDAgLjg0LS40NCAxLjI2LS44OCAwLS40NC0uNDIgMC0uNDItLjQ0em0tMS42MzkgOS4yNzRjLS40Mi40OC0uNDIuOTM5LS40MiAxLjg1OCAxLjI2LjQ2IDEuNjgtLjQ2IDEuMjYtMS44NTggMCAuNDgtLjQyLjkzOS0uODQuOTM5ek0xOS4xNjggNTguNDg1Yy0uNDIgMS43NTguODIgNC4zOTcgMi40NTkgMS43NTguOC0xLjc1OC0uNDItMy41MTctMi4wNTktMi4xOTh6bTcuNDk2LTguNDU1cy0uNC40NC0uNC44NmMxLjk5OSAwIDIuNzk4LTMuMDM5LjQtMy4wMzktLjQuNDQtLjQgMS4zMi0uNCAxLjczOXpNMTcuMzMgODEuNTVjLTEuMyAxLjMyLS40MiA1LjMxNyAxLjczOCAzLjA5OSAyLjE2LTIuNjU5LTIuMTU4LTUuNzc3LTMuMDM4LTEuMzJ6bTE4LjA0OSA1MS4xM2MwIC44OTkuNDIgNC40NzcgMi4wOTggMy41OTcgMS4yNi0uODk5Ljg0LTIuMjM4IDAtMi4yMzh6bTEwLjgxMyA0Ljc5N2MtMi40OTggNS44MzYgNi4yMTYgMi42OTggMS42NTkuNDYgMCAuNDQtLjQyLjQ0LS40Mi44OTl6bTEzLjc1MiA3LjY1NWMtLjg0LS40Ni0xLjI2LTEuMzQtMS43LTIuMjM5IDIuOTU5LTMuNTc3IDYuMzE3IDQuNDU4IDEuNyA0Ljg5Ny0uODQtLjQ0LS44NC0xLjMxOS0uNDItMS43Nzh6bTkuNTU0IDEuMzE5Yy0xLjY2IDIuMjE5LjQyIDMuOTc4IDIuMDU5IDEuNzggMS42MzktMS43OC0uNDItNC40MzgtMS42NC0yLjIyem0xMC40MTQtLjk3OWMtMS42NC40Ni0yLjg3OSA0LjAxNy0uNDIgNC40NzcgMi44NzguODggNC40OTctMy41NzggMS42MzktNC40Nzd6bS0yLjUxOSA3LjE5NWMtLjQyLjg4LS44NCAxLjMtLjQyIDIuMTYgMS4yNi0uNDIgMS4yNi0uODYgMS4yNi0xLjcyem02Mi4wODItMTA4LjgzNGMtMS42NzkgMS4zNC0uODM5IDUuMzc3IDEuNjggMy41OTggMS42NzgtMS4zNTkuODM5LTMuNTk4LS44NC00LjA1N3oiIGZpbGw9IiNjN2UwZjIiIGZpbGwtcnVsZT0iZXZlbm9kZCIvPjxwYXRoIGQ9Ik0xNDUuNjcyIDUzLjE0OGMtMy4zMTgtMTEuNTUzLTUuNDE3LTE3LjMzLTExLjIzMy0yMy4xMjYgMS42NTkgNC4wMTcgNi4yMzYgOC4wMTUgNy45MTUgMTMuNzkxIDQuMTU3IDE1LjU1MSAyLjA3OCAzMC4yMjItMy43NTggNDQuODkzLTUuNDE3IDE0LjY3MS03LjA3NiAyMy4xMDYtMTQuNTcxIDM1Ljk5OC03LjkxNSAxMy43NzItMjMuNzY2IDI3LjU2NC00Mi40OTQgMjcuMTI0LTE1LjQzMS0uOS0yNC41ODYtMy4xMTgtMzUuODM5LTEwLjY3NC0yLjA3OC0xLjMzOS0xMS42NzMtNy45OTUtMi40OTgtMS4zMzkgMTMuMzMyIDkuMzM1IDI0LjU4NSAxNi4wMSA0My4zMzQgMTYuNDUgMTguNzQ4Ljg4IDMyLjQ4LTEyLjg5MiA0MC4zOTUtMjYuNjY0IDcuNTE2LTEyLjQ1MiAxMi41MTItMTcuMzQ5IDE4LjM0OS0zMiA1LjM5Ny0xNC42NzEgNC45OTctMjkuMzQyLjQtNDQuNDUzeiIgZmlsbD0iIzAwOWRkNyIgZmlsbC1ydWxlPSJldmVub2RkIi8+PHBhdGggZD0iTTEyNy4wMDMgMTI5LjQ4MmM3LjQ3NS0xMi40MTMgMTIuNDcyLTE3LjI5IDE4LjI2OS0zMS45MjEgNS4zOTctMTQuNjMxIDQuOTk3LTI5LjI2Mi40Mi00NC4zNTMgMi4wNzggOS4zMTQuODQgMjguMzgzLTUuMzk3IDQyLjU3NC02LjYzNiAxNC42MzEtMTMuMjkyIDMzLjctMTMuMjkyIDMzLjd6IiBmaWxsPSIjMDA3ZWJjIiBmaWxsLXJ1bGU9ImV2ZW5vZGQiLz48cGF0aCBkPSJNNzIuNzk2IDE3LjExYy0xLjItLjQ2LTIuMzk5LjQ2LTIuMzk5IDEuODI5IDEuMi40NSAyLjM5OS0uNDYgMi43OTktMS44My0uNC0uOTE5LS44LS40Ni0xLjYtLjQ2eiIgZmlsbD0iI2M3ZTBmMiIgZmlsbC1ydWxlPSJldmVub2RkIi8+PHBhdGggZD0iTTE0MS40OTQgNjguMjE5Yy0yLjQ5OC40NC0yLjA3OCA1LjI5NiAwIDMuMDk4IDEuNjYtMS4zNCAxLjI2LTQuNDM4LS44Mi0zLjA5OHptLjQ2IDExLjE5M2MtMi4wOTktMi4yMTktNi4zMTYuODgtNC42MTcgMy45NzcgMS42NzkgMy4wNzkgNC4xOTctLjg3OSAzLjM1OC0zLjUzN3pNMTI4LjIwMiAzMi4yYzEuNjggNS4zMzcgMy43NTgtNC4wMTcuNDIgMHptLTguMzk1LS40Yy40MiAzLjA5OSAzLjM1OC0uNDM5LjQyLS44OTl6bS04LjczNC05Ljc5M2MtLjQyLjQ1LS44NC40NS0xLjI2LjQ1IDAtMS44MSAyLjUxOS0yLjI3IDMuMzU4LS40NS0uODQuOS0xLjI1OS45LTIuMDk4Ljl6bS05Ljk2NC40OTljLS40MS40Ni0uNDEgMS4zNi0uNDEgMS44Mi44Mi44OTkgMi4wNDkuODk5IDMuMjc4LS40Ni0uNDEtMS4zNi0uODItMS4zNi0xLjYzOS0uOXpNNTIuODg4IDE0MS41MzRjMS4yIDIuNTc5IDIuNzk4LS40Mi44LS44Ni0uNC40NCAwIC40NCAwIDEuM3ptMTIuMDUyIDQuODk3Yy0xLjYzOC40NC0yLjA1OCA0LjM5OCAwIDMuNTE4IDEuNjItLjQ0IDEuNjItMi42MzguNC0zLjUxOHptMTQuNTcyIDEuNzc5YzAtLjQ0IDAtLjQ0LS40LS45LTEuNjU5IDAtNC41NTcgMy41NTktMy4zMTggNS4zMzcgMi4wNzkgMS43OCA2LjE5Ni0yLjY1OCA0LjEzOC00Ljg3N3ptNy44MzUtMy4wOTh2MS43NTljMS4yNC40NCAyLjA3OS0uNDQgMi40NzktMS4zMi0uODItLjg3OS0xLjI0LS40MzktMS42NCAwem05LjE1NS0xLjMxOWMtMi41MTkgMS4zMi0xLjY4IDUuNjc2IDEuMjU5IDMuMDU4IDIuOTM4LTIuNjE4LS40Mi01LjY5Ny0xLjY4LTMuMDU4em04LjQ1NC00LjQ3N2MtLjQyLjg3OS0uNDIgMS43NTgtLjQyIDIuNjM4IDEuMjQuODggMi40OCAwIDIuNDgtMS4zMi0uNC0uODc5LS44Mi0uNDM5LTEuMjQtLjQzOXpNNzguNjQyIDE4LjA5OWMtLjQxLjQ0LS40MS44OSAwIDEuMzMgMi44NjkuNDM5IDAtMy41NTkgMC0uODl6IiBmaWxsPSIjMDA5ZGQ3IiBmaWxsLXJ1bGU9ImV2ZW5vZGQiLz48cGF0aCBjbGlwLXBhdGg9InVybCgjYSkiIGQ9Ik02OS45MTggMi4wOTljNy4wNzUtMS4zNCAyMi4wNjYgMy41NTggMzQuOTc4IDYuNjU2IDkuOTk0IDIuMjE4IDE4LjMzIDkuMzM0IDIzLjc0NiAxMi44OTIgMTIuNDkyIDguNDM1IDE0Ljk5IDEzLjc3MiAxOS41ODggMjkuNzQyIDQuNTc3IDE1Ljk5IDUuMzk3IDMxLjEwMS0uNDIgNDYuNjMyLTUuODM2IDE1LjExLTExLjI1MyAxOS45ODctMTkuMTY4IDMyLjg2LTguMzM1IDE0LjIxMS0yMi40ODYgMjguNDIyLTQyLjA3NCAyNy45ODMtMTkuNTY5LS44OC0zMS4yNDItNy41MzYtNDQuOTczLTE3LjMxLTEzLjMzMi05Ljc3NC0yNi4yNDQtMTAuNjczLTM2LjY1OC00OS43NS00LjE3Ny0xNS45OS40Mi0zNC4xOTkgNy4wNzYtNDUuMjkyIDkuNTc0LTE2LjQzIDIxLjI0Ny0yOC44NjMgMzAuNDAxLTMzLjNDNTEuNTkgOS4yMTQgNjEuMTYzIDIuMDk5IDY5LjkxOCAyLjA5OSIgZmlsbD0ibm9uZSIgc3Ryb2tlPSIjNTg1ODVhIiBzdHJva2Utd2lkdGg9Ii44IiBzdHJva2UtbGluZWNhcD0icm91bmQiIHN0cm9rZS1saW5lam9pbj0icm91bmQiLz48cGF0aCBkPSJNNDkuMTMgMzAuNDYyYy0xMS42NzMgNy4xMTUtMjEuNjY3IDIwLjQ0Ny0yNi4yNDQgMzYuODc3LTMuMzM4IDEyLjg5Mi0yLjkxOCAzNC4yMiA3LjA3NiA1MS4xMSA1LjQxNyA5LjMxNCAxOS4xNjggMTUuOTkgMzIuNDggMjAuNDI3IDE0LjU3MSA0LjQzNyAyOC43NDMgMy4xMTggNDAuODE1LTEuMzQgMjAuNDA4LTcuOTk1IDIyLjQ4Ny0yNC40MjUgMjkuNTYzLTQ1LjMxMiA0Ljk5Ni0xNS45OSA2LjY1NS0yOS4zMjIgMS4yNTktMzkuNTM2LTguNzU1LTE3Ljc3LTI5Ljk4Mi0yNy41NDMtNDkuNTctMjguODgyLTE0Ljk5MS0uOS0yNC4xNDYtLjQ0LTM1LjM3OSA2LjY1NiIgZmlsbD0ibm9uZSIgc3Ryb2tlPSIjZmZmIiBzdHJva2Utd2lkdGg9Ii44IiBzdHJva2UtbGluZWNhcD0icm91bmQiIHN0cm9rZS1saW5lam9pbj0icm91bmQiLz48cGF0aCBkPSJNNDguMjUgMjguNTQzYzAtMS44MyAxLjQyLTMuMzE4IDMuMTU5LTMuMzE4IDEuNzQ5IDAgMy4xNTggMS40ODkgMy4xNTggMy4zMTggMCAxLjgzOS0xLjQxIDMuMzE4LTMuMTU4IDMuMzE4LTEuNzQgMC0zLjE1OC0xLjQ4LTMuMTU4LTMuMzE4em0tMTcuMDI5IDE1LjUxYzAtMS44MTkgMS4zOC0zLjMxOCAzLjA3OC0zLjMxOCAxLjcyIDAgMy4wNzggMS41IDMuMDc4IDMuMzE4IDAgMS44NC0xLjM1OSAzLjMxOC0zLjA3OCAzLjMxOC0xLjY5OSAwLTMuMDc4LTEuNDc5LTMuMDc4LTMuMzE4em01LjAzNy05LjM1NGMwLTMuNTk4IDIuNjk4LTYuNTE2IDUuOTk2LTYuNTE2IDMuMzE4IDAgNS45OTcgMi45MTggNS45OTcgNi41MTYgMCAzLjYxOC0yLjY3OSA2LjUxNi01Ljk5NyA2LjUxNi0zLjI5OCAwLTUuOTk2LTIuODk4LTUuOTk2LTYuNTE2eiIgZmlsbD0iI2ZmZiIgZmlsbC1ydWxlPSJldmVub2RkIi8+PC9zdmc+;" vertex="1" parent="1">
          <mxGeometry x="410" y="210" width="151.068" height="159.231" as="geometry" />
        </mxCell>
        <mxCell id="iaeM5CewVTjIPd2JOScx-3" value="" style="shape=image;verticalLabelPosition=bottom;verticalAlign=top;imageAspect=0;aspect=fixed;image=data:image/svg+xml,PHN2ZyB4bWxucz0iaHR0cDovL3d3dy53My5vcmcvMjAwMC9zdmciIHZlcnNpb249IjEuMCIgdmlld0JveD0iMCAwIDEyNS4wNjUgMTM5LjA0OSI+PGRlZnM+PGNsaXBQYXRoIGNsaXBQYXRoVW5pdHM9InVzZXJTcGFjZU9uVXNlIiBpZD0iYSI+PHBhdGggZD0iTTUuNDM3IDIuOTU4SDEzMC4zMnYxMzkuMTE2SDUuNDM3eiIvPjwvY2xpcFBhdGg+PC9kZWZzPjxwYXRoIGNsaXAtcGF0aD0idXJsKCNhKSIgZD0iTTM0LjA4IDE3LjIxQzE4LjI0OCAzMC45OC43NiA2MC4zMDMgOC4yNTQgOTAuMDY1YzIuMDk5IDcuOTk2IDEwLjQxNCA1MS45NjkgNTguNzI0IDUwLjY1IDQ4LjMxMS0uOSA1OS45NjQtMzYuODc4IDYyLjA0My01OC42NDUgMS42NTktMjcuNTQzLTkuMTU1LTYyLjIwMi0zOS45NzYtNzQuNjM1Qzc0LjQ3NS43NiA0OS45MSAzLjg3OCAzNC4wNzkgMTcuMjF6IiBmaWxsPSIjN2ZhNmQzIiBmaWxsLXJ1bGU9ImV2ZW5vZGQiLz48cGF0aCBjbGlwLXBhdGg9InVybCgjYSkiIGQ9Ik0xNS42NyA5My41NDNDOC41NzYgNjUuNTggMjQuODQ2IDM3LjE3NyA0MC4yNzcgMjQuMzA1YzE1LjAxLTEyLjg3MiAzOC4zNTYtMTUuNTMgNTIuNTI4LTkuMzE0IDUuODM2IDIuMjE5IDEwLjg1MyA1LjMxNyAxNS4wMSA5LjMxNC01LjQxNi02LjIxNi0xMi4wOTItMTEuMDkzLTIwLjAwNy0xNC4yMTEtMTQuMTcyLTYuMjE2LTM3LjUzNy0zLjA5OC01Mi41NDggOS4zMzRDMjAuMjQ4IDMyLjMgMy41NTggNjAuNzAzIDEwLjY1NCA4OC42NjZjLjgzOSA1LjMxNyA1LjAxNyAyNC40MDUgMTkuNjA4IDM2LjgxOEMxOS40MDggMTEzLjUxIDE2LjQ5IDk3Ljk4IDE1LjY3IDkzLjU0NHoiIGZpbGw9IiNjYmQ4ZWQiIGZpbGwtcnVsZT0iZXZlbm9kZCIvPjxwYXRoIGNsaXAtcGF0aD0idXJsKCNhKSIgZD0iTTEwLjY1NCA4OC43MDZDMy41NTggNjAuNzAzIDIwLjI0OCAzMi4yNCAzNS4yNTkgMTkuMzQ4IDQ2Ljk1MiA5LjU3NCA2My4yMjIgNS41NTcgNzYuNTU0IDcuMzM2Yy0xMy43NTIgMi4yMzgtMjkuNjAyIDIuNjc4LTQyLjExNSAxNi45MS0xMi45MzIgMTQuMjMtMjYuMjg0IDI5LjM0Mi0yMy43ODUgNjQuNDZ6IiBmaWxsPSIjZmZmIiBmaWxsLXJ1bGU9ImV2ZW5vZGQiLz48cGF0aCBkPSJNNjYuOTYgMzAuNTYxYy0yMS42NDcuODgtNDUuMzkzIDIyLjIwNy00Ny40NzIgNTAuNjUtMi4wOTkgMjguODgyIDIxLjY0NyA0OC40MyA0Ni42NTIgNDguODcgMjUuNDA1LjQ0IDUwLjM5LTE0LjIxMSA0OS41Ny00OC44Ny0uNDItMzQuMjItMjcuNTAzLTUxLjExLTQ4Ljc1LTUwLjY1eiIgZmlsbD0iIzhhNjNhMiIgZmlsbC1ydWxlPSJldmVub2RkIi8+PHBhdGggZD0iTTY1LjY4IDQ0LjY5M3YyLjIzOWM0LjE1OCAxLjc5OCA0LjE1OC01LjM5NyAxLjI2LTMuMTM5em0tNC4xMTcgMTMuMjkyYy0zLjcxOC00LjQ1Ny02LjE5NyA3LjUzNS0xLjY0IDcuMDk2IDUuNzU3LS40NCAyLjA2LTEwLjY1NC0uNDItNy41NTZ6bTEwLjQxMy0yLjExOWMtMS4yMTkgMS4zNC0yLjQ1OCAyLjY3OS0yLjAzOCA0LjQ1NyA0LjA1NyAxLjc2IDMuNjU3LTYuMjM2LjgyLTMuMTE4em0yLjQ5OS05Ljc5NGMtMi45NTggMi42NzgtMS4yNiA3LjEzNiAyLjUxOCA0LjQ3NyAyLjUxOS0yLjIzOCAwLTUuODE2LTIuMDk4LTQuMDE3em02LjY1NSA5Ljc3NGMtMS42MzguOS0zLjI5NyA1LjM1Ny0uNDE5IDUuMzU3IDIuNDU5IDAgMy4yNzgtNS4zNTcgMC00LjAxOHptOS42MTUtNi4zMTZjLTEuMjQgMS44MTktLjgyIDcuNjc1IDIuNDc5IDQuNTE3IDEuNjM5LTEuNzk5IDAtNC4wNTctMi4wNi0zLjE1OHptLTguMDE1LTEuMjJjLS40MiAxLjc4LS40MiAzLjExOSAwIDQuODk4IDUuNDE3IDAgMS4yNi04LjQ3NS0uNDItMy4xMTh6bS0yMS42MDctMi42NThjLTMuMzM4LS44OC03LjExNiA0LjgxNy0zLjMzOCA2LjEzNyA0LjU5NyAxLjczOSA1LjQxNy05LjIxNS40Mi02LjEzN3ptMS4yOTkgNS4zNThjLS40Mi44NzktLjQyIDEuNzU4IDAgMi42MzcgMi4wNzkuNDQgNC4xMzgtMS43NTggMS42Ni0zLjA3OC0uNDIuNDQtLjgyLjg4LS44MiAxLjMyem0xMi45NTItMTIuMTE0Yy00LjE3NyAyLjI2IDEuNjggNC45NTcgMi41MTkgMS44LjgyLTIuNjk5LTIuNTE5LTMuMTU5LTMuNzU4LTEuMzR6bS0yOC4zNjIgMy45OThjLTMuNzM4LjQ2LTcuNDc2IDcuNTk1LTIuNDc5IDguMDM1IDQuMTM4LjQ0IDUuNzk2LTYuMjM2IDIuMDc5LTUuMzU3em0uMDE5IDE1LjE5MWMtMi4wNzguNDQtMy4zMzcgNC43OTctLjQyIDQuMzc3IDIuMSAwIDIuOTE5LTMuMDU4IDEuNjgtNC4zNzctLjQyIDAtLjg0IDAtMS4yNi44OHptLTQuNTk3IDEzLjM1MmMtLjQyIDMuOTk3IDIuOTE5IDcuMTE1IDUuODE3IDMuNTU4IDIuMDc4LTIuMjIuODQtNS43OTctMi4wNzktMy41NTh6bTIuMDk5IDI2LjEyM2MuNDItLjg3OS44NC0xLjc3OC44NC0yLjIxOC0zLjM3OC0zLjExOC01LjUxNyAzLjk5OC0yLjEyIDIuMjE5em03LjQ3NS0xMS41MzJjMi40OTkgNC44MzcgOC4zMTUtNS4yOTcgMy43MzgtNi4xNzYtNS40MTctMS43OC00Ljk5NyA5LjI1NC0xLjY1OSA3LjA1NXptLTEwLjQ3My0xLjI3OWMxLjY3OS0uNDQgMi45MzgtMS43OCAzLjM1OC0zLjU1OC0zLjM1OC0zLjExOC01LjAzNyA0Ljg3Ny0xLjY4IDIuNjU4em0tNS4wMTcgOC44NzRjMy4zMzgtMS43OTkgMi45MzgtNi43NTYtMS4yNC00Ljk1Ny0yLjkzOC45LTEuNjc4IDUuMzk3IDEuMjQgNC40OTh6TTMyLjggODIuMDdjMS42NiAwIDQuNTc3LTQuMDM3IDIuMDc5LTQuOTM3LTIuOTE4LS45LTUuMDE3IDQuMDU4LTEuMjYgNC4wNTh6bS02LjU5NiAxLjc2YzEuNjQtMS43OCAyLjg1OC03LjExNi0uODItNS4zMzgtMi40NzggMS4zNC0xLjIzOSA0LjAxOC44MiA0LjAxOHptMi44OTggNC45MTZjLjg0LTEuMzE5IDEuMjQtMy4wOTggMS4yNC00LjQxNy00Ljk1Ny0xLjc3OS0zLjI5OCA3LjQ5NS0uNCAzLjA5OHptMjAuNDA4IDEyLjM5M2MyLjkxOCAxLjc1OSA4LjMzNS0yLjY1OSA0Ljk5Ny01LjMxNy00LjE3OC0zLjExOC03LjkzNSA3LjUxNS0yLjA3OSA2LjE5NnptLS4wMi04LjQzNWMuNDItLjg4Ljg0LTEuNzYuODQtMi42NTktMi4xLTEuMzM5LTQuNjM4IDAtMi41MTkgMi4yMi44NCAwIC44NC0uNDQgMS4yNi0uODh6bS0xNS44MyA3LjQ3NmM0LjUxNy0uODggMC01LjMxNy0xLjY2LTIuNjYtMS42NTggMi4yMiAxLjY2IDMuOTc4IDMuMjk5IDIuMjJ6bTI4Ljc4MiA0LjQzN2MzLjMzOC44OCA4Ljc1NS00Ljg1NyA0LjE3OC03LjA1Ni0zLjc1OC0xLjM0LTcuMDk2IDQuODU3LTMuMzM4IDQuODU3em0zLjY3OC0xNC4wNzJjMi4wOTkgMCA0LjE5Ny0zLjY1OCAxLjY3OS00LjU3Ny0yLjA5OS0uNDYtMy43OTggMi4yOTktMi45MzggNC4xMzcuNDIgMCAuODQgMCAxLjY3OS0uNDZ6bTcuOTE1LTEyLjA3M2MxLjY0LTMuNTU3LS44Mi03LjExNS00LjUxNy00Ljg3Ny0yLjQ3OSAxLjc2LTIuMDU5IDUuNzU3LjgyIDMuOTk4em0xMi45OTItMS4yNzl2Mi4yMTljNC4xNTggMS43NzkgNC4xNTgtNS4zMzcgMS4yNi0zLjA5OHptNi42NTYgMTEuMTMzYy0xLjY1OSAxLjM0LTIuNDk4IDIuNjc5LTIuNDk4IDQuNDU4IDQuMTU3IDEuNzU5IDMuNzU3LTYuMjM2Ljg0LTMuMTE4em0yLjAxOS05LjgxNGMtMi41MTggMi4yLS44NCA2Ljk5NiAyLjQ5OCA0LjM3OCAyLjQ5OS0yLjE3OSAwLTUuNjk3LTIuMDc4LTMuOTM4em0zLjczOCA0LjgzOGMtMS42NC40Ni0zLjI5OCA1LjM1Ni0uNDIgNS4zNTYgMi40NTkgMCAzLjI3OC01LjM1NyAwLTQuMDE3em0xMC40NzMgMS4zNTljLTEuMjE5IDIuMjE4LS44IDcuNTE1IDIuNDM5IDQuODc3IDEuNjE5LTEuNzggMC0zLjk3OC0yLjAxOS0zLjUzOHptLTUuNDk2LTQuMDM4Yy0uNDQgMS43NTktLjQ0IDMuMDc4LS40NCA0LjgzNyA1LjUxNyAwIDEuNjk5LTguNzk0IDAtMy4wNzh6bS0xNi45OSA0Mi4xNzVjMi4wNzkgMCA0LjU1Ny00LjAxOCAxLjY1OS00LjQ1OC0yLjA3OS0uOS0zLjczOCAyLjIzOS0yLjg5OCA0LjAxOC40MiAwIDEuMjM5IDAgMS42NTktLjQ0em03LjkxNS0xMS45MTNjMS42OC0zLjU3OC0uNDItNy41OTYtNC4yMzctNC45MTctMi45NTggMS4zMzktMi41MTkgNS43OTYuODYgNC4wMTd6TTYwLjY4MyA2OC4zMzljLTQuNTU3LTEuNzgtNy40NzUgOS43MzQtLjgyIDkuNzM0IDMuNzM4IDAgOC4yOTYtNy41MTYgMy4zMTktNy45NTV6bTE4LjgwOS0yLjI1OWMtMS42NCAwLTIuNDU5IDEuMzQtMi4wMzkgMy4xMTggMS4yMiAwIDIuNDU5LS40NCAzLjI1OC0xLjc3OS0uNC0xLjMzOS0uOC0uODgtMi4wMzktLjQ0em0zLjc1OCAxNC42MzFjLTMuMzE4LjQ0LTYuMjE3IDguNzk1LTEuMjQgOC4zNTUgMy4yOTgtLjQ0IDQuNTM4LTcuOTE1IDEuMjQtOC4zNTUtLjQyLjQ0LS44Mi44OC0uODIgMS43NTl6IiBmaWxsPSIjNWIyMDdhIiBmaWxsLXJ1bGU9ImV2ZW5vZGQiLz48cGF0aCBkPSJNOTAuMjg1IDkyLjI4NGMtNS4wMTctMy4wOTgtMTQuNjEgNS4yNzctOC4zMzUgOS4yNTQgNi4yNTcgMy45NTggMTIuOTEzLTguODE0IDcuMDc2LTEwLjEzM3ptLTE1LjMxIDEzLjc5MmMtLjQyIDEuMzM5LS40MiAzLjExOC40IDQuNDU3IDIuODU4IDAgMy42NTctNC40NTcgMS4yMTktNS4zNTctLjQuNDYtLjguOS0uOCAxLjh6bS0zLjA1OSA2LjIxNmMtNi4yMzYgMS4zMi02LjIzNiAxMS41MTMgMCA5LjMxNCA2LjIzNy0yLjIxOC0uODItMTIuNDMyLTMuNzM3LTYuNjU2em05LjY1NC0uNTRjLTQuMjE3IDguOTM1IDcuMTM2IDMuNTc4IDEuNjgtLjktMS42OC40Ni0yLjEgMi43LTEuMjYgNC4wMzh6bTIzLjMyNi0xMy4yMTJjLTIuMDM4IDEuMzQtMS42MTkgNC44NzctLjQgNi42MzYgMi4wNC0uNDQgMi44MzktMi4xOTggMi4wNC00LjQxNy0uNDIgMC0uODIgMC0xLjY0LjQ0em02LjI1Ny0zNC4yOTljLTIuNDc5LjQ2LTQuMTM4IDUuODM3LTEuMjQgNS4zOTcgMi4wNi0uNDQgMi4wNi0zLjU5OCAwLTQuMDM4ek02OC42MzggMzIuMjZjLS44NCAxLjM2LTEuMjc5IDMuMTU5IDAgNC45NTcgMi41NTktLjg5OSAyLjU1OS00LjAzNyAwLTQuNDk3em0yNS44MjUgMTIuOTUzYy0yLjE1OSAxLjMxOS0xLjcyIDUuNjc2Ljg2IDMuNDk3IDEuMjc4LS44NTkgMS42OTgtMy4wNTgtLjQ0LTMuMDU4em03LjQ5NSAxMS4wOTNjLTUuMzU3LTIuNjc5LTcuNDE1IDcuMDk2LTIuMDU5IDcuMDk2IDUuNzU3LjQ0IDMuNzE4LTExLjU1My40Mi02LjY1NnptLTEyLjA5MiAyLjI1OWMtMS42NiAxLjMxOS0zLjMxOCA2Ljk1NSAwIDYuOTU1IDMuMzE4LS40MiAyLjkxOC02LjUxNiAwLTUuNjM2em0uODc5IDcuOTU1Yy01LjM5NyAxLjMxOS0yLjQ3OCA5LjMxNCAzLjMxOCA3LjA5NSA2LjYzNi0yLjY1OCAyLjQ5OC05Ljc3NC0xLjI0LTUuNzc2em0tMTkuNjA4LTUuODE3Yy0yLjA5OSAxLjc2LTMuNzc4IDguODE1Ljg0IDcuOTM1IDQuMTc3LS44OCAxLjY3OC05LjI3NC0xLjI2LTQuNDE3em0tMTIuMDczIDQyLjYxNGMtLjQyLS40Ni0uODQtMS4zNTktMS4yMzktMS44MTktMi4wOTkuOTItNy4wOTYgMy4xNTktNC45OTcgNi4zMTcgMi4wNzkgMi4yMzggNy44OTUtMS4zNiA2LjY1Ni00LjQ5OC0xLjI2LS40Ni0yLjA3OSAwLTMuMzM4LjQ0ek0zMy4yNCA1Ny41MjVjLTMuMzM4IDAtNC4xNzggNS44MzctLjgyIDYuMjc2IDIuMDguNDQgNC4xNTgtMi42NzggMi4wOC00LjAzNy0uNDIgMC0uODQuOS0uODQgMS4zNTl6bTIzLjgwNSA1My43NjhjLTUuMzk2LS45LTguMzE1IDExLjU1My0yLjA3OCAxMS4xMTMgNi4yMzYtLjg4IDYuMjM2LTEyLjkxMiAxLjI1OS05Ljc5NHptMjEuMjA4IDkuMzk0Yy0xLjY4IDEuMzItMi4xIDYuMTU2Ljg0IDQuMzk3IDIuMDk4LS44OCAyLjA5OC0zLjUxOC40MTktNC4zOTctLjQyLjQ0LS40Mi40NC0uNDIuODh6bS0zNi42MzgtMTEuNDczYy02LjIzNiA1LjMxNyAxLjIzOSA5LjMxNCAzLjMxOCAzLjU1OCAxLjYzOS00Ljg5Ny02LjIzNi02LjIzNy0zLjczOC0xLjM0em0yOS45MDItMTguMjY5YzAgMS43NTkgMCAzLjA3OC44NCA0LjM5NyA3LjQ3NSAwIC40MTktOS4yNzQtLjQyLTIuNjM4em0tMTIuMDUzLS45MmMtMi4wOTkgMi4yMi0uNDIgNi4xOTcgMi4wNzkgMy45NzggMy4zMzgtMy4wOTgtMi40OTktNi42NTYtMi45MTktLjQ0em0tMjAuNzI3IDEyLjAzM2MwIC44NiAwIDEuNzQuODE5IDIuMTU5IDEuNjM5IDAgMi40NTktMS43MiAxLjI0LTMuMDM4eiIgZmlsbD0iIzViMjA3YSIgZmlsbC1ydWxlPSJldmVub2RkIi8+PHBhdGggZD0iTTUxLjYyOSA1MC45OWMtLjQyIDEuMzM4IDAgMy41NzcgMi4wNTggMy4xMzcgMi40NzktLjQ0IDEuNjYtNC4wMzctLjgxOS00LjAzN3ptLjMyIDEzLjI5MWMtLjQyLjQ0LS40MiAxLjM2IDAgMS43OTkgMS42NTkgMCAyLjA1OC0xLjc5OS44MTktMi43MTgtLjQgMC0uNC40Ni0uNC45MTl6bS40MTkgNS4zNTdjLTIuOTM4LS40NC00LjE5NyA0LjM5Ny0xLjI1OSA1LjI3NyAyLjA5OS40NCAzLjc3OC0zLjUxOCAxLjY3OS00LjgzN3pNNjQuOTQgODAuMjMxYy00LjIxNy40NiAyLjEgMy45OTguNDIgMGgtLjQyem05Ljk3NS0uMzk5Yy0yLjA4Ljg4LTQuNTk4IDUuNjc2LS44MiA1LjI1NiA1LjQxNyAwIDIuNDk5LTcuODk1LjQyLTMuOTM3em02LjE5NS02LjYzNmMtLjgzOSAxLjI5OS0xLjI3OCAzLjAzOCAwIDQuMzE3IDIuMTQtLjQyIDIuNTYtMy44NzggMC0zLjAxOHptLTUuNzc2LTE5LjY2OGMtLjg0LjQ2LTQuNjE3IDQuMTM3LTEuNjc5IDUuMDM3IDEuNjggMCAyLjQ5OS0zLjE5OS44NC0zLjY1OHptMi4wOTkgNy42MTVjLTIuMDc5LS44OC0zLjc1OCAyLjIxOS0xLjI0IDIuNjU4IDIuOTIuNDQgMy4zMTktNC40MzcgMS4yNC0zLjA5OHpNNjYuNjIgNTQuMDQ3Yy0xLjcyIDEuMzItNC4yOTgtMS4zMTktMi41NzktMi42MzggMS4zLTEuMzIgMi45OTggMS43NTkgMS4zIDIuNjM4em0tMy40MTgtMTMuNzMxYy0xLjI2IDAtMS42OCAxLjgxOC0uNDIgMS44MTggMi4wOTkuNDQgMi4wOTktMS4zNTkuODQtMi4yNzh2Ljkyem03LjU1NS0uOTRjLTIuOTE4IDEuMzQtMS4yNCA1LjM1NyAxLjI0IDMuNTc4IDAtLjktLjQtMS43NzktMS4yNC0xLjc3OXptMTMuNzEyLS4wMmMtMi4wNzktLjQ2LTMuNzU4IDIuNjU5LS44NCAzLjA5OCAxLjY4LjQ0IDIuOTE5LTEuMzE5IDEuMjYtMi4yMTh6bTcuOTU1IDUuNzU3Yy0xLjY1OSAwLTQuNTk3LTIuMTU5LTIuMDc5LTMuMDE5IDIuMDc5LS44NzkgNC45OTcgMy40MzggMS4yNCAzLjAxOXptNC4xMTcgNS40NTdjLTIuMDU4IDAtNC41NTcgNC44NzYtMS4yMzkgNS43NTYgMi40NzkuODggMy43MTgtMy4wOTggMi4wNzktNC44NTctLjQyIDAtLjQyIDAtLjg0LjQ0em0zLjMzOSAyMS42NjZjLTEuMjYuNDYtMi41MzkgMy4xMTgtLjg0IDIuNjc5IDEuMjYtLjQ0IDEuMjYtMS4zNC44NC0yLjIyLS40MiAwLS40MiAwLS44NC40NHptOS4xMTQgMy4xOThjLS44NiAxLjM0IDAgMy4xMTggMS4yOCAxLjc4IDEuNjk4LTEuMzQtLjQyLTQuMDE4LTEuMjgtMS43OHpNNDYuNjMyIDgyLjg1YzAtLjQ0LS40Mi0uNDQtLjQyLS40NC0uODQuNDQtLjg0IDMuMDk4Ljg0IDIuNjU4IDEuNjc4LS40NCAxLjY3OC0zLjU1NyAwLTMuMDk4ek0zMi4zNiA2Ni4wOGMtMi40OTggMC0yLjA3OCA0LjQ1Ny0uNDIgNS4zMzcgMy43NTggMS43NzkgNi4yMzctNS4zMzcgMS4yNi00Ljg3N3ptLTguMjk1IDMuOTU4Yy0uNDIuODk5LS44NCAxLjMzOS0uNDIgMS43OTggMy43MzguODggMS42Ni00Ljk1Ny40Mi0xLjM1OXptMTIuMTkzLTE4LjE4OWMtMS4yNiAwLTEuNjc5IDEuMzE5LTEuMjYgMi42MzguODQuODggMy4zMzkgMCAzLjMzOS0xLjc1OS40LTEuMzItMS42OC0yLjYzOC0yLjA3OS0uODh6bTE2LjU1IDUuNzU2Yy0yLjA3OSAyLjE3OSAxLjY1OSAzLjkxOCAyLjg5OCAyLjE3OSAxLjY2LTIuNjE5LTEuMjM5LTMuMDU4LTIuODk4LTEuM3ptLTEwLjgzMyA1Ljc3N2MtMi45MzkuNDQtMy43OTggNC44NTctLjQyIDQuODU3IDQuNjE3IDAgMy4zNTgtNy41MTYtLjQyLTMuNTE4ek0yNy40MjMgOTQuMDAzYy0yLjUxOCAyLjIzOS44MiA2LjY5NiAyLjA4IDMuMTM4IDEuMjM4LTMuMTM4LTIuOTItNi4yNzYtMi45Mi0yLjY5OHptNS40MTcgMTAuNjk0Yy0yLjQ5OC44OTktMS4yNCA2LjYzNiAxLjI0IDYuNjM2IDMuMjk3IDAgMS42NTgtNS4yOTcgMC02LjE3N2wtLjQyLjQ0em0xMi4wMzMgMTQuMjcxYy0uODYgMS4zMi0uNDIgMi4xOTkuODYgMy4wNzguODM5LTEuMzIuODM5LTMuNTE4LS44Ni0zLjUxOC0uNDIuNDQtLjQyIDEuMzItLjQyIDIuMTk5em0xLjMxOS0xMi40NzNjLS44MiAxLjgtLjQgNC4wMzggMS4yMiAzLjU5OCAyLjQzOCAwIDIuNDM4LTQuOTM3IDAtNS4zOTYtMS4yMi40Ni0xLjYyIDIuMjU4LTEuMjIgMy41OTd6bTE3Ljg2OS40NmMtMy4zMzgtLjQ0LTMuMzM4IDQuODU3LS40MiA0LjQxOCAyLjkxOS0uNDQgMi4xLTUuMzE3IDAtMy41Mzh6bTkuOTU0LTkuNDU1Yy0xLjY1OS40Ni0yLjQ5OCAzLjk5OC0uNDIgMy41NTkgMi4wOCAwIDEuNjgtMy41NTgtLjQtMi4yMTl6bS03LjQ1NS01LjIxNmMtMi41NTktLjQ2LTIuMTIgMy41MzguODQgMy4wOTggMi4xMTgtLjg4IDEuMjc4LTMuMDk4LS44NC0yLjY1OHptMzEuNjIgMy4xMzhjLTIuNDc4LS44OC0zLjMxNyAzLjUxOC0xLjIzOSA0LjM5OCAyLjQ5OS44NzkgNC41NTctMy45NTggMS4yNC0zLjk1OHptMS42NCA3LjA3NmMtLjg0IDAtMS4yNi44Ni0xLjY4IDEuNzE5IDIuNTE5IDEuMjggMy4zNTgtMi4xNTkgMS42OC0xLjcyem0tMTUuNzUxIDEuNzE5Yy0yLjA3OSAxLjM1OS0yLjA3OSA1LjgzNi40MiA0Ljk1NyAxLjY1OS0uNDYgMi4wNTktMy41OTguNDItNC4wNTh6IiBmaWxsPSIjYjU5ZmM4IiBmaWxsLXJ1bGU9ImV2ZW5vZGQiLz48cGF0aCBkPSJNNjcuMzggMTUuODVjLTEuNyAyLjczOSAyLjU1OCAyLjczOSAyLjk3Ny45Mi44NC0yLjI5OS0xLjY5OS0zLjIxOC0yLjk3OC0uOTJ6bTkuMTc0LS4wMmMtLjQ0IDAtLjg4LjQ0LS44OCAxLjMgMS4zLjQyIDEuNzQuNDIgMi4xNTktLjg2LS40Mi0uODgtLjQyIDAtMS4yOCAwem01Ljc5NiA1LjcxN2MtMy4zNTggMC00LjE5NyAzLjk5OC0uNDIgMy4xMTggMi4xIDAgMi45MzktMS43NzkuNDItMi42NTh6bS01LjgzNi0uODJjLS40MiAwLS44NC40Ni0uODQuOTIgMS4yNi40NiAxLjI2LjQ2IDEuNjgtLjkyLS40Mi0uNDYtLjQyIDAtLjg0IDB6bTE1Ljg5LjVjLTEuNjk5LjktMS42OTkgMy4xMTguNDIgMy41NTggMi41MTguNDQgMS42NzktMi42NTggMC0zLjA5OHptNC42MTcgNy4wMzZjLTEuNjc5IDEuNzk5LjQyIDMuMTE4IDEuNjggMS43OTktLjQyLTEuMzQtMS4yNi0uOS0xLjY4LS40NnptNi4yMTYuOTU5Yy0yLjUxOCAwLTQuMjE3IDMuNDU4LTEuMjU5IDMuODk4IDMuMzU4LjQyIDIuOTM4LTMuODk4LjQyLTMuMDE4em02LjY1NiAzLjk5OGMtMS4yMzkuOS0yLjA3OCA0Ljg3Ny40MiAzLjk5NyAxLjY2LS40NC44NC0yLjIxOC0uNDItMi42NTh6TTk2LjU4MSAxNi43NWMtMS42NTkuNDYtMi45MTggMy45OTctLjQyIDMuNTU4IDEuNjYtLjQ0Ljg0LTEuNzggMC0yLjIxOXptLTUuODE2LS44OGMtMS4yNC0xLjMxOS0yLjA1OS01LjI3NiAwLTMuNTE3IDEuMjIgMS43NTguNCA0LjM5Ny0xLjI0IDMuMDc4ek02Ni41NCAyNi4xMDRjLTEuNjgtLjg4LTEuMjYtMy41MTguNDItMi42MzggMy4zNTcgMS43NTktLjQyIDUuMjc3LTIuOTU5IDMuOTU3em00NC42MzMgMTQuMTUyYy0xLjY4LjktMS42OCAzLjk5Ny44MiAzLjU1NyAxLjY1OC0uNDQgMS4yNTgtMS43NzguNDE5LTIuNjU4ek04Ni42MDggMTQuMTExYy0uODQuODgtMS4yNiAxLjc2LS44NCAyLjYzOS44NCAwIC44NCAwIDEuMjYtLjQ0IDAtLjg4LS40Mi0uNDQtLjQyLS40NHptMzQuOTc4IDQyLjYxNWMtLjQyLjQ0LS40Mi44OC0uNDIgMS43MzkgMS4yNi40MiAxLjY4IDAgMS42OC0xLjMtLjQyIDAtLjg0LjQ0LTEuMjYuODZ6TTQ5LjEzIDIxLjE4N2MtLjQgMS44IDEuMiA0LjAzOCAyLjM5OSAxLjguOC0xLjgtLjQtMy41OTktMS45OTktMi4yNHoiIGZpbGw9IiNjYmQ4ZWQiIGZpbGwtcnVsZT0iZXZlbm9kZCIvPjxwYXRoIGQ9Ik0zMy4zIDM1LjgzOGMwIC40Ni0uNC40Ni0uNC45MiAxLjk5OS40NiAyLjc5OC0zLjIxOC40LTMuMjE4LS40LjkyLS40IDEuMzc5LS40IDIuMjk4eiIgZmlsbD0iI2ZmZiIgZmlsbC1ydWxlPSJldmVub2RkIi8+PHBhdGggZD0iTTg3LjM4NyAyMS41ODdjLS44NCAxLjc5OSAwIDUuNzk2IDEuNjM5IDMuNTc4IDIuNDc5LTIuNjc5LTEuNjM5LTYuMjU2LTIuNDc4LTEuMzR6bS0zMS43MDEtLjg0Yy0xLjY3OSAxLjMyLS44NCA0Ljc5OCAxLjY4IDMuNDk4IDEuNjc4LTEuMzE5LjgzOS0zLjkzNy0uODQtNC4zNzd6bTUuMDk3LTIuNjM4Yy0xLjMtLjQ0LTIuNjE4IDAtMi42MTggMS4zMiAxLjMxOS40MzkgMi42MTggMCAzLjAzOC0xLjMyLS40Mi0uODgtLjg2LS40NC0xLjMtLjQ0eiIgZmlsbD0iI2NiZDhlZCIgZmlsbC1ydWxlPSJldmVub2RkIi8+PHBhdGggZD0iTTk0LjQyMyAzMS44OGMtMi45MTguNDQtMi4wNzkgNC44NTggMCAzLjA5OSAxLjIzOS0xLjMyIDEuMjM5LTQuODc3LS44NC0zLjA5OHptMzIuNTggNDguMzMxYy0yLjA5OS0yLjY5OC02LjMxNi44OC00LjYxNyAzLjU3OCAxLjY3OSAzLjU1OCA0LjE5Ny0uNDYgMy4zNTgtMy4xMzh6bS0xNC43MTEtNDIuNjU0YzEuMjYgNS4zMzcgMy4zNTgtNC4wMTcgMCAwem0tOC4zMTUtLjRjMCAzLjA5OSAzLjAzOC0uNDQgMC0uODk5ek05OS41IDI2LjUwNGMtLjg0IDAtLjg0LjQ0LTEuNjguNDQuNDItMi4yMTkgMi45MzktMi42NzkgMy4zNTktLjQ0LS40Mi40NC0uODQuODgtMS42OC44OHptLTkuOTc0LjRjLS40LjQ0LS44Mi44OC0uODIgMS43NTkgMS4yNC44OCAyLjQ1OS40NCAzLjI3OC0uNDQgMC0xLjMyLS44Mi0xLjMyLTEuNjM5LTEuMzJ6TTY2LjU2IDE4Ljk2OXYxLjMzOWMyLjk1OC40NC40NC00LjAzOCAwLS45eiIgZmlsbD0iIzAwN2NiYyIgZmlsbC1ydWxlPSJldmVub2RkIi8+PHBhdGggZD0iTTMwLjc2MSA4NS4xMjhjLjgyLTEyLjg5MiA4LjMxNS0yMS4zNDcgMTYuMjMtMjkuMzQyIDguMzE1LTguODk0IDE3LjQ3LTE3LjM1IDI3LjQ0NC0xNy43ODkgNC45OTcgMCAxMC40MTQuODggMTUuMzkgMi42NThDODIuMzUgMzUuNzc4IDc0LjAzNiAzMy41NCA2Ni4xMiAzNGMtMTkuOTY4LjQ0LTQyLjAxNSAyMC40NDgtNDQuMDkzIDQ3LjEzMi0xLjY4IDIwLjg4NyAxMS42NTMgMzYuNDU4IDI4LjcwMiA0Mi42NzQtMTIuODkyLTcuOTk1LTIxLjIyNy0yMS4zMjctMTkuOTY4LTM4LjY3N3oiIGZpbGw9IiNiNTlmYzgiIGZpbGwtcnVsZT0iZXZlbm9kZCIvPjxwYXRoIGQ9Ik0zNS43OTggMTE0Ljg1Yy05LjE1NC03Ljk3NS0xNC41Ny0xOS41MDgtMTMuNzMxLTMzLjcyQzI0LjE0NSA1NC41MjggNDYuMTkyIDM0LjU2IDY2LjE2IDM0LjFjLTkuNTU0IDIuMjE4LTI3LjQ0MyAxMC42NTMtMzYuNTk4IDMxLjUyLTQuOTk3IDEzLjI5Mi00Ljk5NyAyOS43MjIgNi4yMzYgNDkuMjN6IiBmaWxsPSIjZWNlNmYyIiBmaWxsLXJ1bGU9ImV2ZW5vZGQiLz48cGF0aCBkPSJNOTcuNDYgNDQuMjMzYy02LjIzNS01LjMzNy0zLjMzNy0yLjIxOCAyLjUgNS4zMzcgNS44MzYgNy41NTUgNC4xNzcgMTYuNDUgNC4xNzcgMjguODgyLjgyIDMyLjQ0LTIwLjAwOCA0Ny4xMTItNDMuNzM0IDQ2LjY1Mi0yLjQ5OCAwLTUuMDE3LS40NC03LjUxNS0uODggNC41OTcgMS43OCA5LjU5NCAyLjY2IDE0LjU5MSAyLjY2IDIzLjc0Ni40MzkgNDcuMDUyLTEzLjMzMyA0Ni42NTItNDUuNzczLS40Mi0xNi44Ny03LjA5Ni0yOC44ODMtMTYuNjctMzYuODc4eiIgZmlsbD0iIzViMjA3YSIgZmlsbC1ydWxlPSJldmVub2RkIi8+PHBhdGggZD0iTTk4LjE4IDE1LjM5YzkuOTk0IDguNDU2IDE0LjU3MiAyMS4zNDggMTcuODkgMzMuOCAyLjkxOCA5Ljc3NCAzLjMzOCAyMS4zMjcgMi45MTggMzAuNjYyIDAgLjg4LS40MiAxLjc3OS0uNDIgMi4yMTh2MS43OGMuODQgMzguMjM2LTI0LjEyNSA1Mi40NDctNTIuNDA4IDUyLjAwOC00Ljk3Ny0uNDQtOS45NzQtMS4zNC0xNC45NzEtMi42NTktNy44OTUtLjktMTQuNTUxLTMuNTU4LTE5Ljk2OC03LjExNSA4LjMzNSA3LjExNSAxOS45NjggMTIuNDMyIDM2LjU5OCAxMS45OTIgNDUuNzUyLTEuMzE5IDU2LjU2Ni0zNS41NTggNTguNjQ0LTU2LjQ0NSAxLjY2LTIzLjEwNi02LjIzNi01MS41Ny0yOC4yODMtNjYuMjR6IiBmaWxsPSIjMDA3Y2JjIiBmaWxsLXJ1bGU9ImV2ZW5vZGQiLz48cGF0aCBkPSJNMTExLjE3MyA0Ny4zNTFjLTIuMDYtLjQ2LTIuNDc5IDIuNjc5LTEuNjQgNC4wMTggMi4wNCA0LjQ3NyA1LjMxNyAwIDQuNDk4LTMuNTc4em0tNS4wMzctMjMuNTA1Yy00LjYzOC0uNDYgMS42NzkgNi43MzUgMS4yNTkgMi4yMzh6bS0zNC4xNC00LjM5OGMtLjguNDItLjguODQtLjggMS4yNiAxLjYuODM5IDIuOC0xLjI2LjgtMi4xMiAwIDAtLjQgMC0uNC40NHptMi4wMTkgNS43NzdjLTEuNjk5IDIuMjM4IDEuMjggMy45OTcgMi41MzkgMS43NzktLjQyLS44OC0xLjI2LS44OC0xLjY4LS40NHptLTExLjEzMy0zLjk5OGMwIC45Mi40MiAxLjM2IDEuMjQuOTIgMi4wMzgtMS4zOCAwLTIuNzU5LTEuMjQtMS4zOHptLTE3LjUwOSAzLjA5OGMtMi40NzkgNC44OTcgNS4zNTYtLjQ2LjgzOS40NHoiIGZpbGw9IiMwMDdjYmMiIGZpbGwtcnVsZT0iZXZlbm9kZCIvPjxwYXRoIGQ9Ik01MS42MDkgMjQuNzQ1YzAgLjQ2LS40LjkyIDAgMS4zNiAxLjE5OSAwIDEuNTk5LTEuMzYuNC0xLjM2em0xMi4wMzItMTAuMTU0Yy0uNDQuODgtLjQ0IDMuNTE4Ljg2IDIuMTk5Ljg2LTEuMzIgMC0yLjE5OS0uODYtMS4zMnptLS43NTktNC45MzdjLTEuNjguODgtMS4yNiAzLjA5OC40IDIuMjE5IDIuMDc4LS44OCAwLTMuMTE4LTEuMjQtMS43OHpNNDcuODExIDE3LjIxdi44OTljMi41MTggMCAuNDItMi43MTgtLjQ0LS40NHptLTkuMTE0IDcuNDk1Yy0yLjEyLS40Ni0xLjY4IDMuNTU4LjgzOSAxLjc3OSAxLjY3OS0xLjM0LS40Mi0zLjU3OC0xLjI2LTEuMzR6bTguNzM0IDEuODc5Yy0uNDIuNDQtLjg2LjQ0LS44NiAxLjI4IDEuMjggMCAuODYtLjQyLjg2LS44NHptMzUuMzk5IDMuMDc4Yy0uNCAwLS40IDAtLjQtLjQ0LTIuOTE4IDIuNjM5IDMuNzE4IDEuMzIuNCAwem0xNS43Ny02LjY3NmMtLjg0IDAtMS4yNTkuNDItLjg0IDEuMjguODQgMCAxLjI2LTEuMjguODQtMi4xNi0uNDIgMC0uNDIgMC0uNDIuNDR6bTcuNTM2IDYuMjM2YzAgMS4zLjg0IDIuMTU5IDEuNjc5IDEuNzQgMC0uODYtLjQyLS44Ni0uODQtLjg2eiIgZmlsbD0iI2ZmZiIgZmlsbC1ydWxlPSJldmVub2RkIi8+PHBhdGggY2xpcC1wYXRoPSJ1cmwoI2EpIiBkPSJNMzQuMDggMTcuMjFDMTguMjQ4IDMwLjk4Ljc2IDYwLjMwMyA4LjI1NCA5MC4wNjVjMi4wOTkgNy45OTYgMTAuNDE0IDUxLjk2OSA1OC43MjQgNTAuNjUgNDguMzExLS45IDU5Ljk2NC0zNi44NzggNjIuMDQzLTU4LjY0NSAxLjY1OS0yNy41NDMtOS4xNTUtNjIuMjAyLTM5Ljk3Ni03NC42MzVDNzQuNDc1Ljc2IDQ5LjkxIDMuODc4IDM0LjA3OSAxNy4yMSIgZmlsbD0ibm9uZSIgc3Ryb2tlPSIjNTg1ODVhIiBzdHJva2Utd2lkdGg9Ii44IiBzdHJva2UtbGluZWNhcD0icm91bmQiIHN0cm9rZS1saW5lam9pbj0icm91bmQiLz48cGF0aCBkPSJNNjYuOTYgMzAuNTYxYy0yMS42NDcuODgtNDUuMzkzIDIyLjIwNy00Ny40NzIgNTAuNjUtMi4wOTkgMjguODgyIDIxLjY0NyA0OC40MyA0Ni42NTIgNDguODcgMjUuNDA1LjQ0IDUwLjM5LTE0LjIxMSA0OS41Ny00OC44Ny0uNDItMzQuMjItMjcuNTAzLTUxLjExLTQ4Ljc1LTUwLjY1IiBmaWxsPSJub25lIiBzdHJva2U9IiNmZmYiIHN0cm9rZS13aWR0aD0iLjgiIHN0cm9rZS1saW5lY2FwPSJyb3VuZCIgc3Ryb2tlLWxpbmVqb2luPSJyb3VuZCIvPjxwYXRoIGQ9Ik00NC41NzMgMzYuODk4YzAtMS44NCAxLjM4LTMuMzU4IDMuMDc4LTMuMzU4IDEuNzIgMCAzLjA3OCAxLjUxOSAzLjA3OCAzLjM1OCAwIDEuODU5LTEuMzU5IDMuMzU4LTMuMDc4IDMuMzU4LTEuNjk5IDAtMy4wNzgtMS41LTMuMDc4LTMuMzU4em0tMTcuNTA5IDE1LjYzYzAtMS44MTkgMS4zNzktMy4zMTggMy4wNzgtMy4zMTggMS43MTkgMCAzLjA3OCAxLjUgMy4wNzggMy4zMTggMCAxLjg0LTEuMzYgMy4zMTgtMy4wNzggMy4zMTgtMS43IDAtMy4wNzgtMS40NzktMy4wNzgtMy4zMTh6bTQuOTU2LTkuMzk0YzAtMy41MTggMi42OTktNi4zOTYgNS45OTctNi4zOTYgMy4zMTggMCA1Ljk5NiAyLjg3OCA1Ljk5NiA2LjM5NiAwIDMuNTM4LTIuNjc4IDYuMzk2LTUuOTk2IDYuMzk2LTMuMjk4IDAtNS45OTYtMi44NTgtNS45OTYtNi4zOTZ6IiBmaWxsPSIjZmZmIiBmaWxsLXJ1bGU9ImV2ZW5vZGQiLz48L3N2Zz4=;" vertex="1" parent="1">
          <mxGeometry x="230" y="210.95" width="125.065" height="139.049" as="geometry" />
        </mxCell>
        <mxCell id="iaeM5CewVTjIPd2JOScx-4" value="" style="shape=image;verticalLabelPosition=bottom;verticalAlign=top;imageAspect=0;aspect=fixed;image=data:image/svg+xml,PHN2ZyB4bWxucz0iaHR0cDovL3d3dy53My5vcmcvMjAwMC9zdmciIHZlcnNpb249IjEuMCIgdmlld0JveD0iMCAwIDEyNC45MTMgMTI4LjM1MyI+PGRlZnM+PGNsaXBQYXRoIGNsaXBQYXRoVW5pdHM9InVzZXJTcGFjZU9uVXNlIiBpZD0iYSI+PHBhdGggZD0iTS0uMTYgMS41MmgxMjQuNzI1djEyOC40SC0uMTZ6Ii8+PC9jbGlwUGF0aD48L2RlZnM+PHBhdGggY2xpcC1wYXRoPSJ1cmwoI2EpIiBkPSJNNTUuNzY2IDIuNTU4QzIyLjQyNiAyLjU1OC43NiAzNS40MTguNzYgNjYuNTJjMCAzMS4xIDIyLjUwNiA2Mi4xNjIgNjAuODQzIDYyLjE2MiAzOC4yOTYgMCA2MC44MDMtMTEuOTkzIDYxLjY0Mi01Ni44NDYuOC00My41MzMtMjYuNjY0LTcxLjA3Ni02Ny40NzktNjkuMjc4eiIgZmlsbD0iI2IwZDBlYiIgZmlsbC1ydWxlPSJldmVub2RkIi8+PHBhdGggZD0iTTcuOTE1IDY5LjU1OGMwLTI5Ljc0MiAyMC43ODgtNjAuODAzIDUyLjQwOC02MC44MDMgMTQuNTUyLS44OCAyNy4wMjQgMi42NzggMzcuNDE4IDguODc0Qzg2Ljk0NyA5LjE5NCA3Mi4zOTYgNC43NTcgNTUuMzI2IDUuMjM3Yy0zMS42MiAwLTUyLjAwOCAzMS41LTUyLjAwOCA2MS4yMDMgMCAxOS41NDggOS41OTQgMzkuNDk2IDI2LjYyNCA1MC41N0MxNS44MyAxMDUuNDk1IDcuOTE1IDg3Ljc0NiA3LjkxNSA2OS41NTd6IiBmaWxsPSIjZWFmMmZhIiBmaWxsLXJ1bGU9ImV2ZW5vZGQiLz48cGF0aCBkPSJNOTIuODY0IDE0LjExMWMxNC42MyAxMS41NTMgMjIuOTg2IDMwLjIyMiAyMi41NDYgNTMuNzY4LS44NCA0Mi42NTQtMjIuMTA3IDU0LjE2Ny01OC44NDQgNTQuMTY3LTExLjI3MyAwLTIxLjMwNy0zLjA3OC0yOS42NjItNy45OTUgOS4xOTQgNy41NTUgMjEuMzA3IDExLjk5MyAzNS40OTggMTEuOTkzIDM2LjMzOCAwIDU3LjYwNS0xMS45OTMgNTguNDQ1LTU0LjE2OC40LTI2LjY2My0xMC4wMzQtNDcuMDkxLTI3Ljk4My01Ny43NjV6IiBmaWxsPSIjODliZGUzIiBmaWxsLXJ1bGU9ImV2ZW5vZGQiLz48cGF0aCBkPSJNNjIuNDAyIDEyNi4wNDRjMzYuMjU4IDAgNTcuNDg1LTExLjk5MyA1OC4yODUtNTQuMjg3LTMuNzE4IDI0Ljk0NC0xMS4yMzMgNTIuOTY3LTU4LjI4NSA1NC4yODd6IiBmaWxsPSIjNjNhZWRjIiBmaWxsLXJ1bGU9ImV2ZW5vZGQiLz48cGF0aCBkPSJNNjEuNTIzIDE0LjU1MWMtMzIuNDYgMS43Ni00OS41NyAyNC44NjUtNDguNzMgNTQuNjQ3LjgzOSAzMS41MDEgMjcuMDYzIDQ3LjQ5MSA1NC45NjYgNDYuNjEyIDI3LjkwMy0uODggNDIuNDk0LTE5LjU0OCA0My4zMzQtNDEuNzM1LjgtMjIuMjI2LTE2LjY3LTYxLjMyMy00OS41Ny01OS41MjR6IiBmaWxsPSIjY2M3OGExIiBmaWxsLXJ1bGU9ImV2ZW5vZGQiLz48cGF0aCBkPSJNMTguMjI5IDcwLjQ3N2MtLjgtMjcuNTgzIDE3LjUxLTQ2LjI1MiA0Ny40OTEtNDguMDUgOS45OTQtLjQ0IDE4LjM0OSAzLjExOCAyNC45ODUgOC40MzQtNy40NzUtNy45OTUtMTcuNDctMTMuNzkxLTI5LjU0Mi0xMi44NzJDMzAuNzQgMTkuMzEgMTUuMzEgNDAuNjU1IDE1Ljc1IDY4LjI0Yy40IDYuNjc2IDEuNjggMTIuMDMyIDMuNzU4IDE3LjM1LjQtNC40MzgtLjg0LTMuNTU5LTEuMjc5LTE1LjExMnoiIGZpbGw9IiNmMWRkZTciIGZpbGwtcnVsZT0iZXZlbm9kZCIvPjxwYXRoIGQ9Ik05NC40MjMgMzQuNDJjNC41NTcgOS4zNTMgNy44NzUgMTYuNDMgNy40NzUgMjguODYyLS40IDEyLjkxMi05LjE1NCAxOS45ODgtMTkuOTQ4IDI3LjEwMy01LjgzNiAzLjk5OC0xMi45MTIgMTIuODcyLTIyLjAyNiAxMy4zMTItMTIuMDczLjQ0LTIzLjMwNi0uNDQtMzIuNDYtNi42MzYgOS45OTMgMTAuNjM0IDI0Ljk0NCAxNS45NSA0MC4zMzUgMTUuNTEgMjYuMTg0LS44NzkgMzkuNDk2LTE4LjE4OCA0MC4zMzUtMzkuMDU2LjQtMTEuMTEzLTQuNTU3LTI3LjEwMy0xMy43MTEtMzkuMDk2eiIgZmlsbD0iI2I5MDA3MSIgZmlsbC1ydWxlPSJldmVub2RkIi8+PHBhdGggZD0iTTEwOC4yMTQgNzMuNTk1Yy0uOCAyMC45MDgtMTQuMTUxIDM4LjIxNy00MC40NTUgMzkuMDk3IDcuMTE2LTEuMzIgMjkuNjIyLTUuNzU3IDQwLjQ1NS0zOS4wOTd6IiBmaWxsPSIjOWUwMDYxIiBmaWxsLXJ1bGU9ImV2ZW5vZGQiLz48cGF0aCBjbGlwLXBhdGg9InVybCgjYSkiIGQ9Ik01NS43NjYgMi41NThDMjIuNDI2IDIuNTU4Ljc2IDM1LjQxOC43NiA2Ni41MmMwIDMxLjEgMjIuNTA2IDYyLjE2MiA2MC44NDMgNjIuMTYyIDM4LjI5NiAwIDYwLjgwMy0xMS45OTMgNjEuNjQyLTU2Ljg0Ni44LTQzLjUzMy0yNi42NjQtNzEuMDc2LTY3LjQ3OS02OS4yNzgiIGZpbGw9Im5vbmUiIHN0cm9rZT0iIzU4NTg1YSIgc3Ryb2tlLXdpZHRoPSIuOCIgc3Ryb2tlLWxpbmVjYXA9InJvdW5kIiBzdHJva2UtbGluZWpvaW49InJvdW5kIi8+PHBhdGggZD0iTTYxLjUyMyAxNC41NTFjLTMyLjQ2IDEuNzYtNDkuNTcgMjQuODY1LTQ4LjczIDU0LjY0Ny44MzkgMzEuNTAxIDI3LjA2MyA0Ny40OTEgNTQuOTY2IDQ2LjYxMiAyNy45MDMtLjg4IDQyLjQ5NC0xOS41NDggNDMuMzM0LTQxLjczNS44LTIyLjIyNi0xNi42Ny02MS4zMjMtNDkuNTctNTkuNTI0IiBmaWxsPSJub25lIiBzdHJva2U9IiNmZmYiIHN0cm9rZS13aWR0aD0iLjgiIHN0cm9rZS1saW5lY2FwPSJyb3VuZCIgc3Ryb2tlLWxpbmVqb2luPSJyb3VuZCIvPjxwYXRoIGQ9Ik0yNS4zNDUgMjYuNTQ0Yy0uNDQtMy4wNzggMS42MzktNi4xNTYgNC45NTctNi41OTYgMi44NzgtLjQ4IDUuNzk2IDEuNzU5IDYuMTk2IDUuMjc3LjQgMy4wNzgtMS42NCA2LjE1Ni00LjU1NyA2LjU5Ni0zLjI3OC40NC02LjE5Ny0xLjc2LTYuNTk2LTUuMjc3em0xMi4xMTItNi4xOTZjMC0xLjM2Ljg0LTIuNzE5IDEuNjgtMi43MTkgMS4yMzkgMCAyLjQ3OC45MiAyLjQ3OCAxLjggMCAxLjM1OC0uOCAyLjY3OC0xLjY0IDIuNjc4LTEuMjM4IDAtMi41MTgtLjg4LTIuNTE4LTEuNzZ6TTIwLjc0NyAzMy4xOGMwLS45Mi44NC0yLjI5OSAyLjA4LTIuMjk5LjgzOS0uNDYgMi4wNzguNDYgMi4wNzggMS44NC40IDEuMzc4LS40MiAyLjI5OC0xLjY2IDIuNzM4LTEuMjM4IDAtMi4wNzgtLjktMi40OTgtMi4yOHoiIGZpbGw9IiNmZmYiIGZpbGwtcnVsZT0iZXZlbm9kZCIvPjwvc3ZnPg==;" vertex="1" parent="1">
          <mxGeometry x="83.50999999999999" y="380.88" width="124.913" height="128.353" as="geometry" />
        </mxCell>
        <mxCell id="iaeM5CewVTjIPd2JOScx-5" value="" style="shape=image;verticalLabelPosition=bottom;verticalAlign=top;imageAspect=0;aspect=fixed;image=data:image/svg+xml,PHN2ZyB4bWxucz0iaHR0cDovL3d3dy53My5vcmcvMjAwMC9zdmciIHZlcnNpb249IjEuMCIgdmlld0JveD0iMCAwIDEwOS4wMzkgMTI2Ljg0MSI+PGRlZnM+PGNsaXBQYXRoIGNsaXBQYXRoVW5pdHM9InVzZXJTcGFjZU9uVXNlIiBpZD0iYSI+PHBhdGggZD0iTTEuNTIgMTAuNzkzaDEwOC44OTN2MTI2Ljg4NEgxLjUyeiIvPjwvY2xpcFBhdGg+PC9kZWZzPjxwYXRoIGNsaXAtcGF0aD0idXJsKCNhKSIgZD0iTTE0LjU5MSAyNS44MjRDMS4zMiAzOC42NTcgMi41MzggNjQuMzQxIDMuNzM4IDc2LjIzNGMuOSAxMS41NTMgNy4yMzUgMzcuNTU3IDEyLjM1MiA0My4wMTQgNS40MzcgNS43OTYgMjMuMjA2IDIwLjIyNyA0NC45MTMgMTYuMzkgMjEuNjg3LTMuNTM4IDI3LjEwNC0xMS41NzMgMzIuNTQtMjYuNjY0IDUuMTE3LTE0Ljc3MSAxMS40NTMtMjUuNjg0IDE0LjQ1Mi0zMy4zOCAyLjcxOC03LjcxNSA0LjIxNy00MS43NTUtMTIuNjUzLTUxLjA2OS0xNi44Ny04Ljk3NC00OS43MS0yNC4wODUtODAuNzUgMS4zeiIgZmlsbD0iI2JiZTBlMyIgZmlsbC1ydWxlPSJldmVub2RkIi8+PHBhdGggZD0iTTEwMC4yIDMyLjQ0Yy4zIDUuNDc3IDMuNjE3IDExLjI1NCA0LjIxNyAxNy4wMy45IDUuNDc3IDEuNzk5IDExLjg5MyAxLjE5OSAxNy42Ny0uOSAxMS41NzItNy4yMzYgMjMuNzg1LTEyLjY3MiAzMy40Mi02LjAzNyAxMC45MTItOC40MzUgMjMuMTI1LTIwLjUwOCAyOC4yNjJhNTYuODg1IDU2Ljg4NSAwIDAgMS0xNy44MSAzLjg1OGMtMy4wMTcuMzItNS43MzYuMzItOC43NTQgMC0zLjAxOC0uNjQtOS4wNTQtNC40OTgtMTEuNzczLTMuMTk4IDQuODM3IDQuMTU3IDEzLjg5Mi0uOTggMTkuMDI5LTEuOTQgNi45MzYtMS4yNzkgMTMuODcxLTQuMTc3IDE5LjMwOC05LjMxNCA1LjczNy01LjEzNyA0LjgxNy0xMy44MTEgNi42MzYtMjAuODg3IDEuNzk5LTcuMzc2IDYuMzM2LTYuNDE2IDExLjE1My0xMC4yNzRDOTguMzggODAuOTcxIDEwMS4xIDY2LjgyIDEwMC44IDU2Ljg2NmMwLTguNjc1LjYtMjUuMzg1LTkuMDU1LTI4LjkyMyAyLjcxOS4zNCA0LjgxNyAzLjIxOCA3LjIzNiA0LjQ5N3oiIGZpbGw9IiM5NmQwZDQiIGZpbGwtcnVsZT0iZXZlbm9kZCIvPjxwYXRoIGQ9Ik00MC4xNzYgNDkuNDljLTEzLjg3MiA5LjYzNC0xNS42OSAyNS4wNDUtMTcuMTkgNDQuNjUzLTEuNTE5IDE5LjU4OCA3LjUzNiAxNS40MSAxNS45OSAyNC43MjUgOC4xNTUgOS4zMTQgMTkuMzA5IDEzLjgxMiAzMC4xODIgOC4zNTUgMTEuMTUzLTUuNzc3IDEwLjg1NC0xMS44NzMgMTMuNTcyLTE4Ljk0OSAzLjAxOC03LjM5NS01LjExNy0xMS41NzMtMy4zMTgtMTUuMDkgMi4xMTktMy41MzggMTcuNTEgMS41OTkgMjMuMjQ2LTIxLjIwOCA1LjcxNi0yMi40ODYtMzEuMzgxLTQ2LjU5MS02Mi40ODItMjIuNDg2eiIgZmlsbD0iI2MzYjFmZCIgZmlsbC1ydWxlPSJldmVub2RkIi8+PHBhdGggZD0iTTMxLjQ2IDIxLjIyN2MtOS4wNTQgNC44MjctMTYuMyA4LjY5NS0yMC41MjcgMTguOTg5LTUuMTM3IDEzLjE4Mi0yLjcxOCAyMi41MTYuNiAzNS42OTggMi4xMTktNy4wNzYtMS44MDktMTUuNDQtLjYtMjIuODM2LjkxLTQuMTc4IDMuMzE4LTguNjg1IDQuODI3LTEyLjg2MiAxLjgyLTQuNTA4IDIuNDE5LTcuNDA2IDYuMzQ3LTEwLjI5NCAzLjYxNy0yLjU3OSA0LjgyNy01Ljc5NyA4LjQ1NC04LjY5NXoiIGZpbGw9IiNmZmYiIGZpbGwtcnVsZT0iZXZlbm9kZCIvPjxwYXRoIGQ9Ik00MC4xNzYgNDkuNDljLTEzLjg3MiA5LjYzNC0xNS45OSAyNS4wNDUtMTcuMTkgNDQuNjUzLTEuNTE5IDE5LjU4OCA3LjUzNiAxNS40MSAxNS45OSAyNC43MjUgOC4xNTUgOS4zMTQgMTkuMzA5IDEzLjgxMiAzMC4xODIgOC4zNTUgMTEuMTUzLTUuNzc3IDEwLjg1NC0xMS44NzMgMTMuNTcyLTE4Ljk0OSAzLjAxOC03LjM5NS01LjExNy0xMS41NzMtMy4zMTgtMTUuMDkgMi4xMTktMy41MzggMTcuNTEgMS41OTkgMjMuMjQ2LTIxLjIwOCA1LjcxNi0yMi40ODYtMzEuMzgxLTQ2LjU5MS02Mi40ODItMjIuNDg2IiBmaWxsPSJub25lIiBzdHJva2U9IiM1ODU4NWEiIHN0cm9rZS13aWR0aD0iLjMyIiBzdHJva2UtbGluZWNhcD0icm91bmQiIHN0cm9rZS1saW5lam9pbj0icm91bmQiLz48cGF0aCBkPSJNNDMuNzczIDExOS4yMDhjNi4zNTcgOC4zNTUgMTcuMjMgOS45NTQgMjUuNjg1IDQuNDk3IDkuNjU0LTYuNDE2IDkuMzU0LTE0LjEzMSA3LjIzNi0yNC40MDUtMS4yLTYuNDM2LjYyLTguMzU1IDUuNzM2LTkuOTU0IDQuODM3LTEuNjIgNy41NTUtMy4yMTggMTEuMTczLTcuMzk2IDcuODU2LTguMzU1IDguNDU1LTE2LjM5LjMyLTI1LjM4NCAxLjc5OSAxMC4yOTMgNC41MTcgMTYuNzEtNC41MzcgMjIuODA2LTUuNDM3IDMuODU4LTE2LjMxIDMuODU4LTE4LjQyOSAxMC45MzMtMS43OTkgNi43MzYgMy42MzggMzguODU3LTEzLjg5MiAzMi43NnoiIGZpbGw9IiNhZDk0ZmMiIGZpbGwtcnVsZT0iZXZlbm9kZCIvPjxwYXRoIGQ9Ik00OS43NyA0OC41N2MtMTEuMTkzIDIuNTYtMjEuMTg3IDE3LjI3LTIwLjI3OCAyOS4xMDQgMS41Mi0yLjg3OCAxLjgxOS02LjA3NiAyLjcyOC05LjI3NCAxLjIxLTQuMTU4IDIuNDE5LTUuNDM3IDUuMTQ3LTguMzE1IDMuMzI4LTMuNTE4IDYuMzU3LTYuNzE2IDkuOTg0LTkuOTE0eiIgZmlsbD0iI2ZmZiIgZmlsbC1ydWxlPSJldmVub2RkIi8+PHBhdGggZD0iTTQ0Ljg5MyA0My40OTRjMC0zLjYzOCAyLjgxOC02LjU5NiA2LjI3Ni02LjU5NiAzLjQ2OCAwIDYuMjc2IDIuOTU4IDYuMjc2IDYuNTk2IDAgMy42NDctMi44MDggNi41OTYtNi4yNzYgNi41OTYtMy40NTggMC02LjI3Ni0yLjk0OS02LjI3Ni02LjU5NnptMTUuODMtMy4xNThjMC0xLjMyIDEuMDMtMi4zOTkgMi4yNzktMi4zOTkgMS4yNiAwIDIuMjc4IDEuMDggMi4yNzggMi4zOTkgMCAxLjMyOS0xLjAxOSAyLjM5OC0yLjI3OCAyLjM5OC0xLjI1IDAtMi4yNzktMS4wNy0yLjI3OS0yLjM5OHoiIGZpbGw9IiNmZmYiIGZpbGwtcnVsZT0iZXZlbm9kZCIvPjxwYXRoIGNsaXAtcGF0aD0idXJsKCNhKSIgZD0iTTE0LjE5MSAyNS42ODRDLjYgMzguNTM3IDIuMTIgNjQuMjYxIDMuMDE4IDc2LjE1NGMuOTIgMTEuODkzIDcuMjU2IDM3LjYxNyAxMi42OTIgNDMuMzk0IDUuMTM3IDUuNDc2IDIzLjI0NiAxOS45MjcgNDQuOTkzIDE2LjQxIDIxLjc0Ny0zLjUzOCAyNi44ODQtMTEuOTEzIDMyLjMyLTI2LjY4NCA1LjQzNy0xNS4xMTEgMTEuNDc0LTI1LjcyNSAxNC40OTItMzMuNDQgMy4wMTgtNy43MTUgNC4yMTctNDEuNzk1LTEyLjY5Mi01MS4xMDktMTYuOTEtOS4zMzQtNDkuODMtMjQuMTI1LTgwLjYzMi45NiIgZmlsbD0ibm9uZSIgc3Ryb2tlPSIjNTg1ODVhIiBzdHJva2Utd2lkdGg9Ii42NCIgc3Ryb2tlLWxpbmVjYXA9InJvdW5kIiBzdHJva2UtbGluZWpvaW49InJvdW5kIi8+PC9zdmc+;" vertex="1" parent="1">
          <mxGeometry x="304" y="380.88" width="109.039" height="126.841" as="geometry" />
        </mxCell>
        <mxCell id="iaeM5CewVTjIPd2JOScx-6" value="" style="shape=image;verticalLabelPosition=bottom;verticalAlign=top;imageAspect=0;aspect=fixed;image=data:image/svg+xml,PHN2ZyB4bWxucz0iaHR0cDovL3d3dy53My5vcmcvMjAwMC9zdmciIHZlcnNpb249IjEuMCIgdmlld0JveD0iMCAwIDExMi40MDMgMTI1LjcwNyI+PGRlZnM+PGNsaXBQYXRoIGNsaXBQYXRoVW5pdHM9InVzZXJTcGFjZU9uVXNlIiBpZD0iYSI+PHBhdGggZD0iTTIuOTU4IDQuNjM3SDExNS4yMXYxMjUuNzY0SDIuOTU4eiIvPjwvY2xpcFBhdGg+PC9kZWZzPjxwYXRoIGNsaXAtcGF0aD0idXJsKCNhKSIgZD0iTTQuMTE4IDcwLjUxN2MuNCAzMC42MjIgMjcuMDYzIDU5LjA0NCA1Mi40ODggNTguNjA1IDI1LjQyNC0uODggNDQuNjEzLTE1LjU1IDUwLjAxLTI3Ljk4MyA1LjgzNi0xMi40MzMgNy45MTUtMzAuNjIyIDcuMTE1LTQwLjg1NkMxMTAuODEzIDMyLjc0IDk5LjE0IDE2Ljc1IDc0Ljk1NSA4Ljc1NSA1MS4yMDkuNzYuNzYgMy44NzggNC4xMTggNzAuNTE3eiIgZmlsbD0iI2IwZDBlYiIgZmlsbC1ydWxlPSJldmVub2RkIi8+PHBhdGggZD0iTTc4LjYzMiAyNi45MDRjNC41OTggNy4xMTUgOC4zMTUgMTMuMzUyIDkuNTk1IDIxLjgyNiAxLjIzOSA3LjU1NiAyLjg3OCAxMi40MzMgNS43OTYgMTkuMTA5IDQuMTU3IDkuMzU0IDcuNDc1IDE4LjY2OSAyLjkxOCAyOC45MDItMy43NTcgNy45OTYtMjEuNjI3IDE2LjQ3LTI5LjU0MiAxNy4zNS05LjExNCAxLjMyLTQuOTU3LTcuOTk1LTEzLjMxMi0xMi40MzN6IiBmaWxsPSIjNmJiMWRkIiBmaWxsLXJ1bGU9ImV2ZW5vZGQiLz48cGF0aCBjbGlwLXBhdGg9InVybCgjYSkiIGQ9Ik0xMS41OTMgNzIuMzU2QzguMjM1IDguODc1IDU1LjMyNiA2LjE5NiA3OC4yMzMgMTMuNzUyYzMuNzU3IDEuMzE5IDkuNTk0IDQuODc3IDEyLjQ3MiA2LjYzNi00LjU1Ny0zLjUxOC0xMC4zOTQtNi42MzYtMTcuMDctOC44NzVDNTAuNzMgMy45NTggMy4yMzggNy4wNzYgNi41OTYgNzAuMTE4YzAgMjEuNzQ2IDEzLjc1MiA0Mi4xNzQgMzAuODIxIDUxLjA0OS0xMy43NTEtMTAuMTk0LTI1LjQyNC0zMC42MjItMjUuODI0LTQ4LjgxeiIgZmlsbD0iI2UxZWNmNyIgZmlsbC1ydWxlPSJldmVub2RkIi8+PHBhdGggZD0iTTExMS41NzIgNjAuODAzYy0yLjkxOC0yNS43NDQtMTMuNzUxLTQwLjg1NS0zNi4yNTgtNDguMzctLjg0IDAtMS4yMzktLjQ4LTEuNjc5LS40OCAxNy45MSA3Ljk5NSAyMy4zNDYgMjMuMTA2IDI1LjgyNSA0NS43NzIuODQgOS43NTQgMi45MTggMjcuNTAzLTIuMDc5IDM5LjA1Ni0yLjQ3OSA0Ljg3Ny02LjIzNiAxMC4yMzQtMTIuNDcyIDE1LjExMS04Ljc1NSA2LjY3Ni0yMi41MDcgMTEuMTEzLTM2LjI1OCAxMS4xMTMtMy4zMTguNDQtNi4yMzcgMC05LjU5NS0uOTE5IDUuODM3IDMuMTE4IDEyLjExMyA0LjQzNyAxNy45NSA0LjQzNyAyNC4xNDUtLjg4IDQyLjQ1NC0xNS41MSA0Ny44OS0yNy4wNjMgNS4zOTctMTEuOTkzIDcuNDc2LTI4Ljg2MyA2LjY3Ni0zOC42NTd6IiBmaWxsPSIjNmJiMWRkIiBmaWxsLXJ1bGU9ImV2ZW5vZGQiLz48cGF0aCBkPSJNNTQuNTI3IDE2LjgzQzMzLjMgMTQuNTkgOS45NTQgNDEuMjE1IDEzLjMxMiA2OS42MzhjMy4zMTggMjguMzgzIDI4LjcwMyA1Ny4yMDUgNTguMjg1IDQ1LjI1MiAzNC45MzgtMTMuNzUxIDE5Ljk4Ny00My45MzMgMTUuNzktNTMuMjQ3LTQuMTU3LTkuNzU0IDIuOTE4LTQxLjI1NS0zMi44Ni00NC44MTN6IiBmaWxsPSIjYmI5NGFhIiBmaWxsLXJ1bGU9ImV2ZW5vZGQiLz48cGF0aCBkPSJNODYuMTg4IDYzLjAwMmMtMy4zNTgtNy45OTUgMS4yMzktMzIuNDItMjEuNjY3LTM5LjUzNiAxNS44MyA3LjExNSAxMi40NzIgMjMuOTg1IDE0LjU5MSAzMy4zNCAxLjI0IDUuNzU2IDEuNjQgMTkuNTA4LS44NCAzMC42MjEtMS4yNzkgNy45OTUtMS42NzggMTUuNTUtMTQuOTkgMjAuODY3LTguMzU1IDMuNTU4LTE2LjIzIDMuNTU4LTIzLjM0Ni45MiA5LjE5NCA1Ljc1NiAxOS45ODggNy45NTUgMzEuNjYgMy41MTggMzIuNDYtMTIuODczIDE4LjMxLTQwLjg1NiAxNC41OTItNDkuNzN6IiBmaWxsPSIjOWU3MjhmIiBmaWxsLXJ1bGU9ImV2ZW5vZGQiLz48cGF0aCBkPSJNNzEuNTE3IDExMi43MzJjMzIuNTQtMTIuODczIDE4LjM4OS00MC44MTYgMTQuNjMtNDkuNjktMi4wNzgtNS4zMTctMS4yNzgtMTcuMzEtNi4yNzUtMjcuMTA0IDIuNTE4IDQuOTE3IDQuMTk3IDE3LjM1IDMuNzU3IDI1Ljc0NS0uODQgNy45OTUgOS41OTUgMjYuMjI0IDAgMzkuMDk2LTkuOTk0IDEyLjM5Mi0xMi4xMTIgMTEuOTUzLTEyLjExMiAxMS45NTN6IiBmaWxsPSIjODU0Zjc1IiBmaWxsLXJ1bGU9ImV2ZW5vZGQiLz48cGF0aCBkPSJNMjUuMzQ1IDc0LjU1NUMyMi40MjYgNDcuODkgMzUuNzc4IDE3LjcwOSA1NS44NDYgMTkuNDY4YzIuOTE4LjQ0IDYuMjM2LjQ0LTEuNjc5LS40NEMzNC4xIDE3LjIzIDExLjk1MyA0My4wMTQgMTUuMzExIDY5LjY3OGMxLjY3OSAxMy43OTEgOS4xOTQgMjguNDIzIDIwLjA2OCAzNi44NTctNS44NzctOS4zMTQtNy45NTYtMTYuODctMTAuMDM0LTMxLjk4eiIgZmlsbD0iI2Q4YzRjZiIgZmlsbC1ydWxlPSJldmVub2RkIi8+PHBhdGggZD0iTTQ1Ljc3MiAxOS45NDhjLTE3LjA3IDMuOTk3LTMzLjM0IDI2LjY2NC0zMC40MjEgNDkuNzNhNTUuNzUgNTUuNzUgMCAwIDAgNi4yNzYgMTkuNTA4QzE0Ljk1IDc1LjQzNCAxNi4xOSAzMS4wNiA0NS43NzIgMTkuOTQ4eiIgZmlsbD0iI2YyZWJlZiIgZmlsbC1ydWxlPSJldmVub2RkIi8+PHBhdGggZD0iTTU3LjA0NSAxMjYuNTIzYzI0LjE4Ni0uODggNDIuNDk1LTE1LjU1IDQ3LjkzMS0yNy4wNjMgNS4zOTctMTIuMDMzIDcuNDc2LTI4LjkwMyA2LjY3Ni0zOC42NTctMS42NzktMTUuNTUtNi4yNzYtMjcuMTAzLTE0LjU5LTM1LjU3OCA5LjU1MyAxMy4zNTIgMTcuNDY5IDQ5Ljc3IDIuOTE3IDc0LjY3NC0xNC41OSAyNC40MjYtMzQuMTc5IDI0Ljg2NS00Mi45MzQgMjYuNjI0eiIgZmlsbD0iIzFhOWRkNCIgZmlsbC1ydWxlPSJldmVub2RkIi8+PHBhdGggZD0iTTg5LjUwNiA1MS42NDljMC0uODQuNi0xLjU2IDEuMjc5LTEuNTYuNzIgMCAxLjI4LjcyIDEuMjggMS41NiAwIC44OC0uNTYgMS41NTktMS4yOCAxLjU1OS0uNjggMC0xLjI4LS42OC0xLjI4LTEuNTZ6bTUuMDM3IDEwLjAzNGMwLS45Ni44NC0xLjc2IDEuODM5LTEuNzYgMS4wMzkgMCAxLjgzOC44IDEuODM4IDEuNzYgMCAuOTk5LS43OTkgMS43NTktMS44MzggMS43NTktMSAwLTEuODQtLjc2LTEuODQtMS43NnptNS44MzcgMjguNzgyYzAtLjk2Ljc1OS0xLjc1OSAxLjY3OC0xLjc1OS45NiAwIDEuNjguOCAxLjY4IDEuNzYgMCAuOTk5LS43MiAxLjc1OC0xLjY4IDEuNzU4LS45MiAwLTEuNjc5LS43Ni0xLjY3OS0xLjc1OXptLTExLjY3NCAxOS4xODljMC0uOTYuODQtMS43NiAxLjg0LTEuNzYgMS4wMzggMCAxLjgzOC44IDEuODM4IDEuNzYgMCAuOTk5LS44IDEuNzU4LTEuODM5IDEuNzU4LTEgMC0xLjgzOS0uNzYtMS44MzktMS43NTh6bS0xMy4zNTIgOC4zOTRjMC0uOTk5Ljg0LTEuODM4IDEuODQtMS44MzggMS4wMzkgMCAxLjgzOC44NCAxLjgzOCAxLjgzOCAwIDEuMDQtLjggMS44NC0xLjgzOSAxLjg0LTEgMC0xLjgzOS0uOC0xLjgzOS0xLjg0em0tNDQuOTMyLTUuOTk2YzAtLjg0LjY0LTEuNTE5IDEuMzk5LTEuNTE5LjggMCAxLjM5OS42OCAxLjM5OSAxLjUyIDAgLjgzOS0uNiAxLjUxOC0xLjQgMS41MTgtLjc1OSAwLTEuMzk4LS42OC0xLjM5OC0xLjUxOXptNjQuOTItMTQuMjcyYzAtLjU1OS40OC0xLjA3OSAxLTEuMDc5LjU2IDAgLjk5OS41Mi45OTkgMS4wOCAwIC42LS40NCAxLjA4LTEgMS4wOC0uNTIgMC0uOTk5LS40OC0uOTk5LTEuMDh6bTkuOTk0LTE4LjYyOGMwLS41Ni40OC0xLjA4IDEtMS4wOC41NiAwIC45OTkuNTIuOTk5IDEuMDggMCAuNi0uNDQgMS4wOC0xIDEuMDgtLjUyIDAtLjk5OS0uNDgtLjk5OS0xLjA4ek05Ny45IDc2LjMxNGMwLS40OC4zNi0uODguOC0uODguNDggMCAuOC40LjguODggMCAuNTItLjMyLjg4LS44Ljg4LS40NCAwLS44LS4zNi0uOC0uODh6bS03Mi45OTUgMjcuNzQzYzAtLjMyLjI4LS42NC42LS42NC4zNiAwIC42LjMyLjYuNjQgMCAuMzYtLjI0LjY0LS42LjY0LS4zMiAwLS42LS4yOC0uNi0uNjR6bTE3LjUwOSAxMy43MTJjMC0uNTYuNTItMS4wOCAxLjA4LTEuMDguNiAwIDEuMDc5LjUyIDEuMDc5IDEuMDggMCAuNi0uNDggMS4wNzktMS4wOCAxLjA3OS0uNTU5IDAtMS4wNzktLjQ4LTEuMDc5LTEuMDh6bTguMzE2IDUuMTk2YzAtLjQ4LjMyLS45MTkuNjc5LS45MTkuNCAwIC42OC40NC42OC45MiAwIC41Mi0uMjguOTE5LS42OC45MTktLjM2IDAtLjY4LS40LS42OC0uOTJ6bTQzLjgxMy00Ny41NzFjMC0uNzIuNjQtMS4zMTkgMS4zOTktMS4zMTkuOCAwIDEuMzk5LjYgMS4zOTkgMS4zMiAwIC43NTktLjYgMS4zMTktMS40IDEuMzE5LS43NTkgMC0xLjM5OC0uNTYtMS4zOTgtMS4zMnptNS44MzctMjUuMDY0YzAtLjYuNDc5LTEuMTIuOTk5LTEuMTIuNTYgMCAuOTk5LjUyLjk5OSAxLjEyIDAgLjY0LS40NCAxLjExOS0xIDEuMTE5LS41MiAwLS45OTktLjQ4LS45OTktMS4xMnptLTkuNjc1LTE1Ljc1MWMwLS43Mi41Mi0xLjM2IDEuMDgtMS4zNi41OTkgMCAxLjA3OS42NCAxLjA3OSAxLjM2IDAgLjc2LS40OCAxLjM2LTEuMDggMS4zNi0uNTYgMC0xLjA3OS0uNi0xLjA3OS0xLjM2em0xMi40NzIgMzcuMDU4YzAtLjU2LjUyLTEuMDggMS4wOC0xLjA4LjYgMCAxLjA4LjUyIDEuMDggMS4wOCAwIC42LS40OCAxLjA3OS0xLjA4IDEuMDc5LS41NiAwLTEuMDgtLjQ4LTEuMDgtMS4wOHpNNzYuMjM0IDE2Ljc5YzAtLjQ0LjQtLjg0Ljg0LS44NC40NzkgMCAuODM5LjQuODM5Ljg0IDAgLjQ4LS4zNi44NC0uODQuODQtLjQ0IDAtLjg0LS4zNi0uODQtLjg0em03LjgzNSAxMi42MzJjMC0uMzYuMzItLjY4LjY0LS42OC4zNiAwIC42NC4zMi42NC42OCAwIC40LS4yOC42OC0uNjQuNjgtLjMyIDAtLjY0LS4yOC0uNjQtLjY4em0xNi4zMTEgMTMuODMyYzAtLjM2LjI3OS0uNjguNTU5LS42OC4zMiAwIC41Ni4zMi41Ni42OCAwIC40LS4yNC42OC0uNTYuNjgtLjI4IDAtLjU2LS4yOC0uNTYtLjY4em0yLjQ3OCAxNS45OWMwLS4zNi4yOC0uNjguNi0uNjguMzYgMCAuNTk5LjMyLjU5OS42OCAwIC40LS4yNC42OC0uNi42OC0uMzIgMC0uNi0uMjgtLjYtLjY4ek05OS4wMiA2NS44OGEuNy43IDAgMCAxIC42OC0uNjhjLjQgMCAuNjguMzIuNjguNjggMCAuNC0uMjguNjgtLjY4LjY4LS4zNiAwLS42OC0uMjgtLjY4LS42OHptLTguMzE1LTkuNzk0YzAtLjMyLjMyLS42NC42OC0uNjQuNCAwIC42OC4zMi42OC42NCAwIC4zNi0uMjguNjQtLjY4LjY0LS4zNiAwLS42OC0uMjgtLjY4LS42NHpNNjAuNzIzIDE0LjI3MWMwLS4zMi4zMi0uNjQuNjgtLjY0LjQgMCAuNjguMzIuNjguNjQgMCAuMzYtLjI4LjY0LS42OC42NC0uMzYgMC0uNjgtLjI4LS42OC0uNjR6bTEwLjQ3NC0uODM5YzAtLjM2LjI4LS42OC42LS42OC4zNiAwIC42LjMyLjYuNjggMCAuNC0uMjQuNjgtLjYuNjgtLjMyIDAtLjYtLjI4LS42LS42OHptNC4xNTcgNy4xNTZjMC0uMzIuMjgtLjY0LjYtLjY0LjM2IDAgLjYuMzIuNi42NCAwIC4zNi0uMjQuNjQtLjYuNjQtLjMyIDAtLjYtLjI4LS42LS42NHptMTUuMDMxIDIuMTk4YzAtLjM2LjI4LS42OC41Ni0uNjguMzIgMCAuNTYuMzIuNTYuNjggMCAuNC0uMjQuNjgtLjU2LjY4LS4yOCAwLS41Ni0uMjgtLjU2LS42OHptMS4xMiAyMS45ODdjMC0uNDQuNC0uODQuODM5LS44NC40OCAwIC44NC40Ljg0Ljg0IDAgLjQ4LS4zNi44NC0uODQuODQtLjQ0IDAtLjg0LS4zNi0uODQtLjg0em0tMjIuNDY3IDczLjk1NWMwLS4zNi40LS42OC44NC0uNjguNDggMCAuODQuMzIuODQuNjggMCAuNC0uMzYuNjgtLjg0LjY4LS40NCAwLS44NC0uMjgtLjg0LS42OHoiIGZpbGw9IiM4NDRlOTUiIGZpbGwtcnVsZT0iZXZlbm9kZCIvPjxwYXRoIGNsaXAtcGF0aD0idXJsKCNhKSIgZD0iTTQuMTE4IDcwLjUxN2MuNCAzMC42MjIgMjcuMDYzIDU5LjA0NCA1Mi40ODggNTguNjA1IDI1LjQyNC0uODggNDQuNjEzLTE1LjU1IDUwLjAxLTI3Ljk4MyA1LjgzNi0xMi40MzMgNy45MTUtMzAuNjIyIDcuMTE1LTQwLjg1NkMxMTAuODEzIDMyLjc0IDk5LjE0IDE2Ljc1IDc0Ljk1NSA4Ljc1NSA1MS4yMDkuNzYuNzYgMy44NzggNC4xMTggNzAuNTE3IiBmaWxsPSJub25lIiBzdHJva2U9IiM1ODU4NWEiIHN0cm9rZS13aWR0aD0iLjgiIHN0cm9rZS1saW5lY2FwPSJyb3VuZCIgc3Ryb2tlLWxpbmVqb2luPSJyb3VuZCIvPjxwYXRoIGQ9Ik01NC41MjcgMTYuODNDMzMuMyAxNC41OSA5Ljk1NCA0MS4yMTUgMTMuMzEyIDY5LjYzOGMzLjMxOCAyOC4zODMgMjguNzAzIDU3LjIwNSA1OC4yODUgNDUuMjUyIDM0LjkzOC0xMy43NTEgMTkuOTg3LTQzLjkzMyAxNS43OS01My4yNDctNC4xNTctOS43NTQgMi45MTgtNDEuMjU1LTMyLjg2LTQ0LjgxMyIgZmlsbD0ibm9uZSIgc3Ryb2tlPSIjNTg1ODVhIiBzdHJva2Utd2lkdGg9Ii44IiBzdHJva2UtbGluZWNhcD0icm91bmQiIHN0cm9rZS1saW5lam9pbj0icm91bmQiLz48cGF0aCBkPSJNMTkuNDI4IDMzLjIyYy0uODQtMy4xMTguNDQtNi43MTYgMy43NTgtNy41OTYgMi45NTgtMS4zNTkgNi4yNzYuNDQgNy4xMTYgMy41NTggMS4yMzkgMy4xMTgtLjQgNi43MTYtMy4zMTggOC4wMzUtMi45NTkuODgtNi4yNzctLjg3OS03LjU1Ni0zLjk5N3ptMTAuOTU0LTguODc1Yy0uNDQtMS4zMTkgMC0yLjE5OCAxLjI3OS0yLjYzOC44NC0uNDggMi4wNzkgMCAyLjUxOCAxLjMxOS40Ljg4LS40NCAyLjE5OS0xLjI3OSAyLjYzOC0xLjI0LjQ0LTIuNTE4IDAtMi41MTgtMS4zMTl6TTE2LjU1IDQwLjc3NWMtLjQ0LS44OCAwLTIuMjM4IDEuMjgtMi42NzguODM5LS40OCAyLjA3OCAwIDIuNTE4IDEuMzYuNC44NzkgMCAyLjIzOC0xLjI4IDIuNjc3LS44MzkuNDQtMi4wNzggMC0yLjUxOC0xLjM1OXoiIGZpbGw9IiNmZmYiIGZpbGwtcnVsZT0iZXZlbm9kZCIvPjwvc3ZnPg==;" vertex="1" parent="1">
          <mxGeometry x="570" y="383.53" width="112.403" height="125.707" as="geometry" />
        </mxCell>
        <mxCell id="iaeM5CewVTjIPd2JOScx-7" value="" style="shape=image;verticalLabelPosition=bottom;verticalAlign=top;imageAspect=0;aspect=fixed;image=data:image/svg+xml,PHN2ZyB4bWxucz0iaHR0cDovL3d3dy53My5vcmcvMjAwMC9zdmciIHZlcnNpb249IjEuMCIgdmlld0JveD0iMCAwIDE3Ny4wNzEgMTgzLjYwOSI+PGRlZnM+PGNsaXBQYXRoIGNsaXBQYXRoVW5pdHM9InVzZXJTcGFjZU9uVXNlIiBpZD0iYSI+PHBhdGggZD0iTS45NiAxLjI4aDE3Ni44NTJ2MTgzLjcyOEguOTZ6Ii8+PC9jbGlwUGF0aD48L2RlZnM+PHBhdGggY2xpcC1wYXRoPSJ1cmwoI2EpIiBkPSJNNzYuNjE0IDIuOTk4Yy0yNy4wODQgMC01MC4wMSAxMC42NTQtNjMuNzYyIDM3Ljc1N0MxLjE4IDYyLjU0Mi43NiA4My44NyAzLjI3OCAxMDguNzU1YzIuMDc5IDIwLjQ0NyA0LjE1NyAzMC42NiAxNS44MyA0Ny41NSAxOS41ODkgMjcuNTQ0IDQyLjkxNCAyNy41NDQgNzMuMzM2IDI3LjU0NCAyNS40MDUgMCA1MS42NjktNS43NzcgNjguMzM5LTI5LjMyMyAxNy40ODktMjQuODg1IDE5LjE0OC01OC4yMDQgMTEuMjMzLTg4LjQyNi00LjU3Ny0xOC4yMjktMTQuNTcxLTMyLTI3LjkwMy00NC44OTNDMTI2LjYwMyA0Ljc3NyA5OC4yOC43NiA3Ni42MTMgMi45OTh6IiBmaWxsPSIjYWJkNGViIiBmaWxsLXJ1bGU9ImV2ZW5vZGQiLz48cGF0aCBkPSJNNTguNzA0IDIwLjM2OGMtMjEuMjQ3LTEuNzgtMzYuNjc3IDIxLjc0Ni00Mi45MTQgNDEuNzE0LTcuNTE1IDIxLjc0Ny0uNDIgNDQuMzkzIDMuNzM4IDY1LjY4IDQuMTc4IDIwLjQyOCAxNi4yNSAyNS43NDUgMzcuNTE3IDMxLjk2MSAxMS42NTMgMy4wOTggNDIuMDc1IDEuNzggNTAuODMtLjg4IDE0LjU5LTQuNDM3IDI4LjM0Mi0xNS4wOSAzMy4zNC0zMC4xODEgNi4yMzYtMTcuMzEgOC43MzQtNDAuMzk1IDMuMzE3LTU4LjU4NC01LjQxNi0xOS45NjgtMjIuNDg2LTMxLjA2Mi0zNy45MTctNDAuODM2LTcuOTE1LTQuODc3LTE2LjI1LTguNDM1LTI1LjgyNC05LjMxNC00Ljk5Ny0uNDQtMTQuMTcxIDAtMjIuMDg3LjQ0eiIgZmlsbD0iI2NjYTZiZCIgZmlsbC1ydWxlPSJldmVub2RkIi8+PHBhdGggZD0iTTI3Ljg0MyAxNTMuNTA3Yy0xMC44MzMtMTUuNTUtMTIuOTEyLTI1LjMwNS0xNC41OTEtNDQuNDEzLTIuNDk5LTIyLjY0Ni0yLjA3OS00Mi42MzQgOC43NTUtNjMuNTAyQzM0LjkxOSAyMC4yODggNTYuMTY2IDEwLjUxNCA4MS41NyAxMC41MTRjMTEuMjUzLS44OCAyNC4xNjUtLjQ0IDM2LjIzOCAyLjY1OC0xMy43MzItNC44NzctMjkuMTQzLTUuNzc2LTQyLjA3NS00LjQzNy0yNS44MjQgMC00Ni42NTIgOS43NzQtNTkuOTg0IDM1LjA3OEM1LjMzNyA2NC4yNDEgNC45MTcgODQuMjMgNy4wMTYgMTA3LjMxNWMyLjA3OCAxOS4xMDggMy43MzcgMjguODgyIDE0Ljk5IDQ0LjQxMyA5LjU3NSAxMy4zMzIgMTkuOTg5IDE5Ljk4OCAzMS42NjEgMjMuMDg2LTkuMTc0LTMuNTM4LTE3LjkwOS0xMC4yMTQtMjUuODI0LTIxLjMwN3oiIGZpbGw9IiNlYWYxZjkiIGZpbGwtcnVsZT0iZXZlbm9kZCIvPjxwYXRoIGQ9Ik0xNjcuNDE5IDY3Ljg1OWMtNC41NzgtMTYuNDMtMTMuNzMyLTI5LjMwMi0yNi4yMjUtNDEuMjk1LTMuNzM3LTMuNTU4LTguMzM1LTYuNjU2LTEzLjMxMS05LjMzNGw2LjIzNiA1LjMzNmMxMi4wNzIgMTEuNTUzIDIxLjY0NyAyNC40MjYgMjUuODA0IDQxLjI5NSA3LjQ5NiAyNy45ODMgNS44MzcgNTguNjI1LTEwLjM5NCA4Mi4xNS0xNS40MSAyMS43NjctMzkuNTU2IDI3LjA4NC02My4yODEgMjcuMDg0LTE3LjkxIDAtMzIuOSAwLTQ2LjIzMi02LjIxNiAxNC45OSAxMC42NTMgMzIuNDggMTAuNjUzIDUzLjMwNyAxMC42NTMgMjMuNzI2LS40NCA0Ny44NzEtNS4zMTYgNjMuMjgyLTI3LjA4MyAxNi4yMy0yMy41MjYgMTcuODktNTQuNjA3IDEwLjgxNC04Mi41OXoiIGZpbGw9IiM4YWJkZTIiIGZpbGwtcnVsZT0iZXZlbm9kZCIvPjxwYXRoIGQ9Ik0xMzkuOTM1IDc0LjUxNWM4LjczNSAxMS41MzMtMS4yNCA0Ni41OTItNy4wNzYgNTguNTg0LTUuNDE2IDEwLjY1NC0yMi4wNjYgMTkuNTI5LTMzLjMgMjIuMTg3LTEyLjQ5MiAyLjIxOS0zMC40IDMuNTM4LTQyLjA1NCAwLTE0LjE3MS00LjQzNy0yNy45MDMtNi42NTYtMzEuMjQtMjIuNjI2IDQuNTk2IDExLjUzMyAzMi45IDE0LjE5MSA0Mi40NzMgMTEuNTMzIDcuOTE2LTIuNjU5IDEzLjMzMi03LjA5NiAyMC40MDgtMTEuNTMzIDguMzE1LTQuODk3IDE4LjMwOS01Ljc3NyAyNS44MDQtMTEuOTkzIDEwLjgzNC04Ljg3NSAxNy4wNy0yMy45NjYgMTcuMDctMzguMTU3LjQyLTYuNjU2IDAtMjcuNTIzLTcuMDc2LTI5LjMwMiAxMC40MTQgNS43NzYgMTMuNzUyIDExLjExMyAxNC45OTEgMjMuMDg2eiIgZmlsbD0iI2JhOTRhYSIgZmlsbC1ydWxlPSJldmVub2RkIi8+PHBhdGggZD0iTTE4Ljc0OSA5MC44NjVjMi40OTgtMjQuNDA1IDkuNTk0LTQ4LjgxIDMyLjUtNTkuNDY0IDE2LjY1LTcuOTk1IDQxLjIzNS02LjY1NiA1NC45NjcgNi4yMTYtMjkuMTQzLTE1Ljk5LTc4LjcxMy40NC04NC4xMyAzNy43MTd6IiBmaWxsPSIjZTNkNWRlIiBmaWxsLXJ1bGU9ImV2ZW5vZGQiLz48cGF0aCBkPSJNNjAuNDAzIDE1NC4xMDdjMTUuNDExIDMuNTM3IDQ3Ljg5MSA1Ljc1NiA2NC41NDEtMTEuOTkzIDE3LjA3LTE4LjIzIDE2LjIzLTQzLjA5NCAxNy44OS01MC4yMS0xLjY2IDcuMTE2LTEzLjczMiA0Mi42NTQtMjQuNTQ2IDQ5LjMxLTEwLjgzMyA2LjY1Ni0zNC4xMzkgMTYuNDMtNTcuODg1IDEyLjg5M3oiIGZpbGw9IiNhYzdkOTgiIGZpbGwtcnVsZT0iZXZlbm9kZCIvPjxwYXRoIGQ9Ik0xMDcuODE1IDE3Ny4xMzNjMTcuOTA5LTIuNjU5IDY1LjgtMTMuNzUyIDYzLjcyMS04Ny45NDctMS4yNCA4LjQ1NS01LjgxNiA3NC42MzUtNjMuNzIxIDg3Ljk0N3oiIGZpbGw9IiM2NWFkZGIiIGZpbGwtcnVsZT0iZXZlbm9kZCIvPjxwYXRoIGNsaXAtcGF0aD0idXJsKCNhKSIgZD0iTTc2LjYxNCAyLjk5OGMtMjcuNTA0IDAtNTAuMDEgMTAuMjE0LTY0LjE4MiAzNy4zMThDMS4xOCA2Mi41NDIuNzYgODMuODY5IDMuMjc4IDEwOC4zMTRjMi4wNzkgMjAuNDQ4IDQuMTU3IDMxLjEwMiAxNS44MyA0Ny41NTIgMTkuNTg5IDI3Ljk4MyA0Mi45MTQgMjcuOTgzIDczLjMzNiAyNy45ODMgMjUuNDA1LS40NCA1MS42NjktNS43NzcgNjcuOTE5LTI5LjMyMyAxNy45MDktMjUuMzI0IDE5LjU2OC01OC42NjQgMTEuNjUzLTg4Ljg4Ni00LjU3Ny0xNy43NjktMTQuNTcxLTMxLjU0LTI3LjkwMy00NC40MzNDMTI2LjYwMyA0LjMxNyA5OC4yOC43NiA3Ni42MTMgMi45OTgiIGZpbGw9Im5vbmUiIHN0cm9rZT0iIzU4NTc1OSIgc3Ryb2tlLXdpZHRoPSIuOCIgc3Ryb2tlLWxpbmVjYXA9InJvdW5kIiBzdHJva2UtbGluZWpvaW49InJvdW5kIi8+PHBhdGggZD0iTTU4LjcwNCAyMC4zNjhjLTIxLjI0Ny0xLjc4LTM2LjY3NyAyMS43NDYtNDIuOTE0IDQxLjcxNC03LjUxNSAyMS43NDctLjQyIDQ0LjM5MyAzLjczOCA2NS42OCA0LjE3OCAyMC40MjggMTYuMjUgMjUuNzQ1IDM3LjUxNyAzMS45NjEgMTEuNjUzIDMuMDk4IDQyLjA3NSAxLjc4IDUwLjgzLS44OCAxNC41OS00LjQzNyAyOC4zNDItMTUuMDkgMzMuMzQtMzAuMTgxIDYuMjM2LTE3LjMxIDguNzM0LTQwLjM5NSAzLjMxNy01OC41ODQtNS40MTYtMTkuOTY4LTIyLjQ4Ni0zMS4wNjItMzcuOTE3LTQwLjgzNi03LjkxNS00Ljg3Ny0xNi4yNS04LjQzNS0yNS44MjQtOS4zMTQtNC45OTctLjQ0LTE0LjE3MSAwLTIyLjA4Ny40NCIgZmlsbD0ibm9uZSIgc3Ryb2tlPSIjNTg1NzU5IiBzdHJva2Utd2lkdGg9Ii44IiBzdHJva2UtbGluZWNhcD0icm91bmQiIHN0cm9rZS1saW5lam9pbj0icm91bmQiLz48cGF0aCBkPSJNMzQuODk5IDI2LjI2NGMwLTQuMDU3IDMuMDk4LTcuMzU1IDYuOTE2LTcuMzU1IDMuODM3IDAgNi45MTUgMy4yOTggNi45MTUgNy4zNTUgMCA0LjA3OC0zLjA3OCA3LjM1Ni02LjkxNSA3LjM1Ni0zLjgxOCAwLTYuOTE2LTMuMjc4LTYuOTE2LTcuMzU2em0xMy44MzEtNS41MTdjMC0xLjQzOSAxLjEyLTIuNjM4IDIuNDc5LTIuNjM4IDEuMzggMCAyLjQ3OCAxLjIgMi40NzggMi42MzggMCAxLjQ2LTEuMDk5IDIuNjM5LTIuNDc4IDIuNjM5LTEuMzYgMC0yLjQ3OS0xLjE4LTIuNDc5LTIuNjM5ek0zMC40MjIgMzEuOWMwLTEuNDc4IDEuMTE5LTIuNjc4IDIuNDc4LTIuNjc4IDEuMzggMCAyLjQ3OSAxLjIgMi40NzkgMi42NzkgMCAxLjQ3OS0xLjEgMi42NzgtMi40NzkgMi42NzgtMS4zNiAwLTIuNDc4LTEuMi0yLjQ3OC0yLjY3OHoiIGZpbGw9IiNmZmYiIGZpbGwtcnVsZT0iZXZlbm9kZCIvPjwvc3ZnPg==;" vertex="1" parent="1">
          <mxGeometry x="370" y="520" width="177.071" height="183.609" as="geometry" />
        </mxCell>
        <mxCell id="iaeM5CewVTjIPd2JOScx-8" value="" style="shape=image;verticalLabelPosition=bottom;verticalAlign=top;imageAspect=0;aspect=fixed;image=data:image/svg+xml,PHN2ZyB4bWxucz0iaHR0cDovL3d3dy53My5vcmcvMjAwMC9zdmciIHZlcnNpb249IjEuMCIgdmlld0JveD0iMCAwIDExMi4wNjMgMTE1LjU0Ij48ZGVmcz48Y2xpcFBhdGggY2xpcFBhdGhVbml0cz0idXNlclNwYWNlT25Vc2UiIGlkPSJhIj48cGF0aCBkPSJNMi40NzggMS41OTloMTExLjkzM3YxMTUuNjFIMi40Nzh6Ii8+PC9jbGlwUGF0aD48L2RlZnM+PHBhdGggY2xpcC1wYXRoPSJ1cmwoI2EpIiBkPSJNNTQuMTI3IDIuOTk4QzMwLjc4MSA1LjIzNyA2LjU5NiAyMi4xMDcgMy42NzcgNTYuNzI2Ljc2IDkxLjM0NSAyNy4wMjUgMTA3Ljc3NSA1MC4zNyAxMTQuMDFjMjMuMzQ2IDYuMTk2IDQwLjAxNi0yLjY3OCA1NC4xNjgtMjQuNDI1IDE0LjE1MS0yMS43NDcgOC43NTQtNDkuMjktLjg0LTYyLjE2M0M5NC4xMDMgMTQuNTUxIDc3LjQzMy43NiA1NC4xMjcgMi45OTh6IiBmaWxsPSIjZmJlMGQ2IiBmaWxsLXJ1bGU9ImV2ZW5vZGQiLz48cGF0aCBkPSJNNTAuNzMgMTAzLjI5N2MzLjM1NyAzLjA3OSAxMi45NTEgMi4yIDE3LjEwOSAxLjMyIDQuOTk3LS40NCA5Ljk5NC0yLjY3OSAxNC41OTEtNS43NTcgNS44MzctMy41NTggMTUuODMtMTAuNjczIDE2LjY3LTE4LjY2OS40LTQuODc3LTIuMDc5LTguODc0LTQuNTk3LTEyLjg3Mi0yLjkxOS01LjMxNy00LjE1OC0xMS4wNzMtNS44MzctMTYuODMtMS42MzktNy4xMTUtMi40NzgtMTUuOTktNy40NzUtMjEuMzA3LTMuMzU4LTMuMTE4LTguMzU1LTMuMTE4LTExLjY3My00LjkxN3oiIGZpbGw9IiNmOWNjYmYiIGZpbGwtcnVsZT0iZXZlbm9kZCIvPjxwYXRoIGQ9Ik0xMy43OTIgNjAuMjgzYzIuOTE4LTMyLjg2IDIyLjg2Ni01MC4xNyA0NC44OTItNTIuNDA4IDcuNDc2LS40NCAxNy4wMy44OCAyMi44MjcgMy45OTgtNy44NzYtNC40MzgtMTcuMDMtNy4xMTYtMjcuODI0LTYuMTk2QzMxLjY2MSA3Ljg3NSA4Ljc5NSAyMy44NjYgNi4zMTcgNTYuNzI2Yy0yLjUyIDI4LjM4MiAxNC4xMSA0Mi42MTQgMzMuMjU5IDUwLjEzLTE1LjgzLTguNDM2LTI3Ljg2My0yMi4xODctMjUuNzg0LTQ2LjU3M3oiIGZpbGw9IiNmZWYyZjAiIGZpbGwtcnVsZT0iZXZlbm9kZCIvPjxwYXRoIGQ9Ik04MS42MyA1MS4zMjljLTQuNTU3LTE1LjExMS0uNC0zNi4wMTgtMjEuNjI2LTM2Ljg5OC0xOC4zNS0xLjM1OS0zNy4wNTggMTIuNDMzLTM5LjEzNyAzOS41NzYtMi4xMTggMjcuMTA0IDE0Ljk5MSA1My4zMjggNDEuNjE1IDUxLjEzIDEwLjgzNC0uODggMTkuMTQ5LTUuMzU3IDIzLjc0Ni0xMS41NTRDOTguNyA3Ny45OTMgODQuMTQ5IDU4LjQ0NSA4MS42MyA1MS4zM3oiIGZpbGw9IiNkMzhjYTMiIGZpbGwtcnVsZT0iZXZlbm9kZCIvPjxwYXRoIGQ9Ik03OS45NTIgNTQuNDA3Yy0zLjcxOC0xMi44NzItLjgtMzMuNzQtMTYuNjMtMzUuOTc4IDcuOTE1IDUuNzk2IDcuMDc1IDIyLjY2NiA5Ljk5NCAzMy4zNCAyLjA3OCA2LjE5NiAxMC43OTMgMTguMTg5LS40IDMxLjk4LTQuMTk4IDUuMzE3LTYuNjc2IDE0LjYzMS0xNi4yMyAxNS41NS0zLjc1OC40NC03LjA3NiAxLjMyLTEwLjQzNC40NCA0Ljk5NyAyLjYzOSAxMC40MzQgMi42MzkgMTcuMDcgMi4yIDkuNTk0LS44OCAxNi42My00Ljg3OCAyMC43ODctMTAuMTk1IDExLjIzMy0xMy43OTEtMi4wNzktMzEuMS00LjE1Ny0zNy4zMzd6IiBmaWxsPSIjYzQ2Mjg0IiBmaWxsLXJ1bGU9ImV2ZW5vZGQiLz48cGF0aCBkPSJNNjMuMjAyIDEwMS45MzhjOS42MzQtLjg4IDE2LjcxLTQuODc3IDIwLjkwNy0xMC4xOTQgMTEuMjMzLTEzLjc5MS0yLjExOS0zMS4xLTQuMTk3LTM3LjMzNyAxLjY3OSA4LjQ3NSAxMC4wMzMgMjYuNjY0IDEuMjM5IDM1LjA5OS04Ljc1NSA3Ljk5NS0xMy4zNTIgMTIuODcyLTE3Ljk1IDEyLjQzMnoiIGZpbGw9IiNiNjM3NmEiIGZpbGwtcnVsZT0iZXZlbm9kZCIvPjxwYXRoIGQ9Ik0yOS45NDIgNTcuMDQ1QzMyLjA2IDMxLjMwMSA0My43MzMgMTYuMTkgNjAuODQzIDE3LjUxYy44NCAwIDIuOTE4LS40NC0xLjYzOS0uNDQtMTcuMTUtMS4zNTktMzQuNjk5IDExLjU1NC0zNi43NzggMzYuODk4LTEuNjc5IDE4LjY2OSA2LjI3NyAzNi40MTggMjAuNDY4IDQ0LjQxM0MzMi40NiA4Ni44MjcgMjguNzAzIDc1LjcxNCAyOS45NDIgNTcuMDQ1eiIgZmlsbD0iI2U2YzJjZCIgZmlsbC1ydWxlPSJldmVub2RkIi8+PHBhdGggY2xpcC1wYXRoPSJ1cmwoI2EpIiBkPSJNMTAyLjA1OCAyOS4xNDJjLTQuMTU3LTUuNzU2LTkuOTk0LTExLjU1My0xNy41MS0xNS45OS0zLjMxNy0yLjIzOSA0LjU5OCA0LjQzNyA5LjU5NSAxMS4xMTMgNC45OTcgNi42MzYgNC45OTcgMTguMTkgNC45OTcgMzAuNjIyLjQ0IDEwLjY3MyAxLjY3OSAyMS43ODctNC4xNTggMzEuMS0xMy4zNTEgMjAuNDI5LTI3Ljk0MyAyNy45ODQtNTAuMDEgMjIuMTg3LTEuNjc4LS40NC0zLjc1Ny0uODc5LTUuNDM2LTEuMzE5IDQuNTk3IDIuMTk5IDkuNTk0IDMuNTU4IDE0LjE5MSA0Ljg3NyAyMi4wNjcgNS43NTcgMzUuODE5LTMuNTU4IDQ5LjE3LTIzLjk4NSAxMy4zMTMtMjAuNDI4IDguMzE2LTQ2LjYxMi0uODM5LTU4LjYwNXoiIGZpbGw9IiNmOWNjYmYiIGZpbGwtcnVsZT0iZXZlbm9kZCIvPjxwYXRoIGNsaXAtcGF0aD0idXJsKCNhKSIgZD0iTTUzLjc2NyAxMTEuNzMyYzIyLjA2NyA1Ljc1NyAzNS44MTktMy41NTggNDkuMTMtMjMuOTg1IDEzLjMxMy0yMC40NjggOC4zNTYtNDYuNjUyLS44MzktNTguNjg1IDQuMTk4IDEwLjIzNCAxMy4zNTIgMzYuNDU4LTIuNDc4IDU3Ljc2NS0xNS4zOTEgMjEuNzg3LTMxLjIyMSAyNy41ODQtNDUuODEzIDI0LjkwNXoiIGZpbGw9IiNmNmI4YTgiIGZpbGwtcnVsZT0iZXZlbm9kZCIvPjxwYXRoIGNsaXAtcGF0aD0idXJsKCNhKSIgZD0iTTU0LjEyNyAyLjk5OEMzMC43ODEgNS4yMzcgNi41OTYgMjIuMTA3IDMuNjc3IDU2LjcyNi43NiA5MS4zNDUgMjcuMDI1IDEwNy43NzUgNTAuMzcgMTE0LjAxYzIzLjM0NiA2LjE5NiA0MC4wMTYtMi42NzggNTQuMTY4LTI0LjQyNSAxNC4xNTEtMjEuNzQ3IDguNzU0LTQ5LjI5LS44NC02Mi4xNjNDOTQuMTAzIDE0LjU1MSA3Ny40MzMuNzYgNTQuMTI3IDIuOTk4IiBmaWxsPSJub25lIiBzdHJva2U9IiM1ODU4NWEiIHN0cm9rZS13aWR0aD0iLjgiIHN0cm9rZS1saW5lY2FwPSJyb3VuZCIgc3Ryb2tlLWxpbmVqb2luPSJyb3VuZCIvPjxwYXRoIGQ9Ik04MS42MyA1MS4zMjljLTQuNTU3LTE1LjExMS0uNC0zNi4wMTgtMjEuNjI2LTM2Ljg5OC0xOC4zNS0xLjM1OS0zNy4wNTggMTIuNDMzLTM5LjEzNyAzOS41NzYtMi4xMTggMjcuMTA0IDE0Ljk5MSA1My4zMjggNDEuNjE1IDUxLjEzIDEwLjgzNC0uODggMTkuMTQ5LTUuMzU3IDIzLjc0Ni0xMS41NTRDOTguNyA3Ny45OTMgODQuMTQ5IDU4LjQ0NSA4MS42MyA1MS4zMyIgZmlsbD0ibm9uZSIgc3Ryb2tlPSIjNTg1ODVhIiBzdHJva2Utd2lkdGg9Ii44IiBzdHJva2UtbGluZWNhcD0icm91bmQiIHN0cm9rZS1saW5lam9pbj0icm91bmQiLz48cGF0aCBkPSJNMjUuNzQ0IDMwLjEwMmMtLjg0LTIuNjU5LjQyLTUuNzU3IDIuNTE5LTYuNjU2IDIuNDk4LTEuMzQgNS40MzcgMCA2LjY5NiAyLjY1OC44MiAyLjY3OSAwIDUuNzc3LTIuNTE5IDYuNjc2LTIuNDk4IDEuMzItNS40MzYgMC02LjY5Ni0yLjY3OHptOC43OTYtNy4xMzZjLS40NC0uOSAwLTEuNzk5LjgzOS0yLjIzOS44NTktLjQ2IDEuNzE5IDAgMi4xMzguOS40Mi44OCAwIDIuMjM5LS44NiAyLjY3OC0uODM5LjQ0LTEuNjk4IDAtMi4xMTgtMS4zMzl6TTI0LjIwNSAzNi43MzhjLS40Mi0uOTIgMC0yLjI3OS44NC0yLjczOS44Mi0uNDYgMi4wNzkgMCAyLjQ5OCAxLjM4LjQuODk5IDAgMS44MTgtLjg0IDIuMjc4LTEuMjM4LjQ0LTIuMDc4IDAtMi40OTgtLjkyeiIgZmlsbD0iI2ZmZiIgZmlsbC1ydWxlPSJldmVub2RkIi8+PHBhdGggZD0iTTQ1LjM3MyAzNS41NzhjMC0uOC42OC0xLjQ3OSAxLjQzOS0xLjQ3OS44IDAgMS40MzkuNjggMS40MzkgMS40OCAwIC44MzktLjY0IDEuNDc5LTEuNDQgMS40NzktLjc1OSAwLTEuNDM4LS42NC0xLjQzOC0xLjQ4eiIgZmlsbD0iI2VjNzY1OSIgZmlsbC1ydWxlPSJldmVub2RkIi8+PHBhdGggZD0iTTQ1Ljc3MiAzNS41NzhjMC0uMzYuMzItLjY4LjY0LS42OC4zNiAwIC42NC4zMi42NC42OCAwIC40LS4yOC42OC0uNjQuNjgtLjMyIDAtLjY0LS4yOC0uNjQtLjY4eiIgZmlsbD0iI2ZmZiIgZmlsbC1ydWxlPSJldmVub2RkIi8+PHBhdGggZD0iTTg2LjIyOCA1MS41NjljMC0uOC42NC0xLjQ4IDEuMzk5LTEuNDguOCAwIDEuMzk5LjY4IDEuMzk5IDEuNDggMCAuODQtLjYgMS40NzktMS40IDEuNDc5LS43NTkgMC0xLjM5OC0uNjQtMS4zOTgtMS40OHoiIGZpbGw9IiNlYzc2NTkiIGZpbGwtcnVsZT0iZXZlbm9kZCIvPjxwYXRoIGQ9Ik04Ni41NDggNTEuNTY5YS43LjcgMCAwIDEgLjY4LS42OGMuMzk5IDAgLjY3OS4zMi42NzkuNjggMCAuNC0uMjguNjgtLjY4LjY4LS4zNiAwLS42OC0uMjgtLjY4LS42OHoiIGZpbGw9IiNmZmYiIGZpbGwtcnVsZT0iZXZlbm9kZCIvPjxwYXRoIGQ9Ik0xMDIuMzc4IDQ4LjY1YzAtLjk1OS43Ni0xLjc1OCAxLjY3OS0xLjc1OC45NiAwIDEuNjc5LjggMS42NzkgMS43NTkgMCAuOTk5LS43MiAxLjc1OC0xLjY4IDEuNzU4LS45MTkgMC0xLjY3OC0uNzYtMS42NzgtMS43NTh6IiBmaWxsPSIjZWM3NjU5IiBmaWxsLXJ1bGU9ImV2ZW5vZGQiLz48cGF0aCBkPSJNMTAyLjg1OCA0OC4zN2MwLS4zNi4yOC0uNjc5LjYtLjY3OS4zNiAwIC41OTkuMzIuNTk5LjY4IDAgLjQtLjI0LjY4LS42LjY4LS4zMiAwLS42LS4yOC0uNi0uNjh6IiBmaWxsPSIjZmZmIiBmaWxsLXJ1bGU9ImV2ZW5vZGQiLz48cGF0aCBkPSJNOTYuMjIyIDM5LjA1NmMwLTEuMDc5Ljg0LTEuOTk4IDEuODM5LTEuOTk4IDEuMDM5IDAgMS44MzguOTE5IDEuODM4IDEuOTk4IDAgMS4xMi0uOCAyLTEuODM4IDItMSAwLTEuODQtLjg4LTEuODQtMnoiIGZpbGw9IiNlYzc2NTkiIGZpbGwtcnVsZT0iZXZlbm9kZCIvPjxwYXRoIGQ9Ik05Ny4wMjEgMzguNDk3YzAtLjIuMi0uNC40NC0uNC4yOCAwIC40NC4yLjQ0LjQgMCAuMjQtLjE2LjQtLjQ0LjQtLjI0IDAtLjQ0LS4xNi0uNDQtLjR6IiBmaWxsPSIjZmZmIiBmaWxsLXJ1bGU9ImV2ZW5vZGQiLz48cGF0aCBkPSJNOTcuMDIxIDM4LjQ5N2MwLS4yLjItLjQuNDQtLjQuMjggMCAuNDQuMi40NC40IDAgLjI0LS4xNi40LS40NC40LS4yNCAwLS40NC0uMTYtLjQ0LS40IiBmaWxsPSJub25lIiBzdHJva2U9IiNmZmYiIHN0cm9rZS13aWR0aD0iLjMyIiBzdHJva2UtbWl0ZXJsaW1pdD0iOCIvPjxwYXRoIGQ9Ik0zNC44OTkgNTAuNDljMC0xLjIyLjg2LTIuMjQgMS45MTktMi4yNCAxLjA1OSAwIDEuOTE5IDEuMDIgMS45MTkgMi4yNCAwIDEuMjM5LS44NiAyLjIzOC0xLjkyIDIuMjM4LTEuMDU5IDAtMS45MTgtMS0xLjkxOC0yLjIzOXoiIGZpbGw9IiNlYzc2NTkiIGZpbGwtcnVsZT0iZXZlbm9kZCIvPjxwYXRoIGQ9Ik0zNS43NzggNDkuOTdjMC0uMjQuMTgtLjQ0LjQtLjQ0LjI0IDAgLjQuMi40LjQ0IDAgLjI2LS4xNi40NC0uNC40NC0uMjIgMC0uNC0uMTgtLjQtLjQ0eiIgZmlsbD0iI2ZmZiIgZmlsbC1ydWxlPSJldmVub2RkIi8+PHBhdGggZD0iTTM1Ljc3OCA0OS45N2MwLS4yNC4xOC0uNDQuNC0uNDQuMjQgMCAuNC4yLjQuNDQgMCAuMjYtLjE2LjQ0LS40LjQ0LS4yMiAwLS40LS4xOC0uNC0uNDQiIGZpbGw9Im5vbmUiIHN0cm9rZT0iI2ZmZiIgc3Ryb2tlLXdpZHRoPSIuMzIiIHN0cm9rZS1taXRlcmxpbWl0PSI4Ii8+PHBhdGggZD0iTTg1Ljc0OCA0My4wNTRjMC0xLjA4Ljg4LTEuOTk5IDEuODc5LTEuOTk5IDEuMDQgMCAxLjg3OS45MiAxLjg3OSAxLjk5OSAwIDEuMTItLjg0IDEuOTk5LTEuODggMS45OTktLjk5OSAwLTEuODc4LS44OC0xLjg3OC0yeiIgZmlsbD0iI2VjNzY1OSIgZmlsbC1ydWxlPSJldmVub2RkIi8+PHBhdGggZD0iTTg2LjU0OCA0Mi43MzRjMC0uMzIuMi0uNjQuNC0uNjQuMjQgMCAuNC4zMi40LjY0IDAgLjM2LS4xNi42NC0uNC42NC0uMiAwLS40LS4yOC0uNC0uNjR6IiBmaWxsPSIjZmZmIiBmaWxsLXJ1bGU9ImV2ZW5vZGQiLz48cGF0aCBkPSJNODYuNTQ4IDQyLjczNGMwLS4zMi4yLS42NC40LS42NC4yNCAwIC40LjMyLjQuNjQgMCAuMzYtLjE2LjY0LS40LjY0LS4yIDAtLjQtLjI4LS40LS42NCIgZmlsbD0ibm9uZSIgc3Ryb2tlPSIjZmZmIiBzdHJva2Utd2lkdGg9Ii4zMiIgc3Ryb2tlLW1pdGVybGltaXQ9IjgiLz48cGF0aCBkPSJNNTkuNTI0IDc1Ljc5NGMwLTEuMjQuOTYtMi4yNzkgMi4xMTktMi4yNzkgMS4xOTkgMCAyLjExOCAxLjA0IDIuMTE4IDIuMjggMCAxLjI3OC0uOTIgMi4yNzgtMi4xMTggMi4yNzgtMS4xNiAwLTIuMTItMS0yLjEyLTIuMjc5eiIgZmlsbD0iI2VjNzY1OSIgZmlsbC1ydWxlPSJldmVub2RkIi8+PHBhdGggZD0iTTYwLjQwMyA3NS4wMzVjMC0uMzIuMjgtLjY0LjU2LS42NC4zMiAwIC41Ni4zMi41Ni42NCAwIC4zNi0uMjQuNjQtLjU2LjY0LS4yOCAwLS41Ni0uMjgtLjU2LS42NHoiIGZpbGw9IiNmZmYiIGZpbGwtcnVsZT0iZXZlbm9kZCIvPjxwYXRoIGQ9Ik02MC40MDMgNzUuMDM1YzAtLjMyLjI4LS42NC41Ni0uNjQuMzIgMCAuNTYuMzIuNTYuNjQgMCAuMzYtLjI0LjY0LS41Ni42NC0uMjggMC0uNTYtLjI4LS41Ni0uNjQiIGZpbGw9Im5vbmUiIHN0cm9rZT0iI2ZmZiIgc3Ryb2tlLXdpZHRoPSIuMzIiIHN0cm9rZS1taXRlcmxpbWl0PSI4Ii8+PHBhdGggZD0iTTg0LjA2OSAxMDEuMDE5YzAtLjcyLjU2LTEuMzYgMS4yNC0xLjM2LjcxOSAwIDEuMjM5LjY0IDEuMjM5IDEuMzYgMCAuNzYtLjUyIDEuMzU5LTEuMjQgMS4zNTktLjY4IDAtMS4yMzktLjYtMS4yMzktMS4zNnoiIGZpbGw9IiNlYzc2NTkiIGZpbGwtcnVsZT0iZXZlbm9kZCIvPjxwYXRoIGQ9Ik04NC41NDkgMTAwLjYxOWMwLS4yLjItLjQuNC0uNC4yNCAwIC40LjIuNC40IDAgLjI0LS4xNi40LS40LjRhLjQuNCAwIDAgMS0uNC0uNHoiIGZpbGw9IiNmZmYiIGZpbGwtcnVsZT0iZXZlbm9kZCIvPjxwYXRoIGQ9Ik04NC41NDkgMTAwLjYxOWMwLS4yLjItLjQuNC0uNC4yNCAwIC40LjIuNC40IDAgLjI0LS4xNi40LS40LjRhLjQuNCAwIDAgMS0uNC0uNCIgZmlsbD0ibm9uZSIgc3Ryb2tlPSIjZmZmIiBzdHJva2Utd2lkdGg9Ii4zMiIgc3Ryb2tlLW1pdGVybGltaXQ9IjgiLz48cGF0aCBkPSJNNDMuNzczIDEwNy4wMTVjMC0xLjA4Ljg0LTEuOTk5IDEuOC0xLjk5OS45OTkgMCAxLjc5OC45MiAxLjc5OCAyIDAgMS4xMTgtLjggMS45OTgtMS43OTkgMS45OTgtLjk1OSAwLTEuNzk5LS44OC0xLjc5OS0xLjk5OXoiIGZpbGw9IiNlYzc2NTkiIGZpbGwtcnVsZT0iZXZlbm9kZCIvPjxwYXRoIGQ9Ik00NC41NzMgMTA2LjQ1NWMwLS4yLjItLjQuNC0uNC4yNCAwIC40LjIuNC40IDAgLjI0LS4xNi40LS40LjRhLjQuNCAwIDAgMS0uNC0uNHoiIGZpbGw9IiNmZmYiIGZpbGwtcnVsZT0iZXZlbm9kZCIvPjxwYXRoIGQ9Ik00NC41NzMgMTA2LjQ1NWMwLS4yLjItLjQuNC0uNC4yNCAwIC40LjIuNC40IDAgLjI0LS4xNi40LS40LjRhLjQuNCAwIDAgMS0uNC0uNCIgZmlsbD0ibm9uZSIgc3Ryb2tlPSIjZmZmIiBzdHJva2Utd2lkdGg9Ii4zMiIgc3Ryb2tlLW1pdGVybGltaXQ9IjgiLz48cGF0aCBkPSJNOTcuMzQxIDU2LjA4NmMwLTEuMDguODgtMS45OTkgMS45MTktMS45OTkgMS4wOCAwIDEuOTE5LjkyIDEuOTE5IDEuOTk5IDAgMS4xMi0uODQgMS45OTktMS45MiAxLjk5OS0xLjAzOSAwLTEuOTE4LS44OC0xLjkxOC0xLjk5OXoiIGZpbGw9IiNlYzc2NTkiIGZpbGwtcnVsZT0iZXZlbm9kZCIvPjxwYXRoIGQ9Ik05OC4yMiA1NS4yODZjMC0uMi4yLS40LjQtLjQuMjQgMCAuNC4yLjQuNCAwIC4yNC0uMTYuNC0uNC40YS40LjQgMCAwIDEtLjQtLjR6IiBmaWxsPSIjZmZmIiBmaWxsLXJ1bGU9ImV2ZW5vZGQiLz48cGF0aCBkPSJNOTguMjIgNTUuMjg2YzAtLjIuMi0uNC40LS40LjI0IDAgLjQuMi40LjQgMCAuMjQtLjE2LjQtLjQuNGEuNC40IDAgMCAxLS40LS40IiBmaWxsPSJub25lIiBzdHJva2U9IiNmZmYiIHN0cm9rZS13aWR0aD0iLjMyIiBzdHJva2UtbWl0ZXJsaW1pdD0iOCIvPjxwYXRoIGQ9Ik01OS41MjQgMjIuNTA2YzAtMS4xOTkuODQtMi4yMzggMS44MzktMi4yMzggMS4wNCAwIDEuODM5IDEuMDQgMS44MzkgMi4yMzggMCAxLjI0LS44IDIuMjM5LTEuODQgMi4yMzktLjk5OSAwLTEuODM4LTEtMS44MzgtMi4yMzl6IiBmaWxsPSIjZWM3NjU5IiBmaWxsLXJ1bGU9ImV2ZW5vZGQiLz48cGF0aCBkPSJNNjAuNDAzIDIxLjk4N2MwLS4yNC4yLS40NC40LS40NC4yNCAwIC40LjIuNC40NCAwIC4yOC0uMTYuNDQtLjQuNDQtLjIgMC0uNC0uMTYtLjQtLjQ0eiIgZmlsbD0iI2ZmZiIgZmlsbC1ydWxlPSJldmVub2RkIi8+PHBhdGggZD0iTTYwLjQwMyAyMS45ODdjMC0uMjQuMi0uNDQuNC0uNDQuMjQgMCAuNC4yLjQuNDQgMCAuMjgtLjE2LjQ0LS40LjQ0LS4yIDAtLjQtLjE2LS40LS40NCIgZmlsbD0ibm9uZSIgc3Ryb2tlPSIjZmZmIiBzdHJva2Utd2lkdGg9Ii4zMiIgc3Ryb2tlLW1pdGVybGltaXQ9IjgiLz48cGF0aCBkPSJNOTIuMzg0IDY0LjQwMWMwLTEuMDguOTYtMS45OTkgMi4wNzktMS45OTkgMS4xNTkgMCAyLjA3OC45MiAyLjA3OCAxLjk5OSAwIDEuMTItLjkxOSAxLjk5OS0yLjA3OCAxLjk5OS0xLjEyIDAtMi4wNzktLjg4LTIuMDc5LTEuOTk5eiIgZmlsbD0iI2VjNzY1OSIgZmlsbC1ydWxlPSJldmVub2RkIi8+PHBhdGggZD0iTTkzLjE4NCA2My44MDFjMC0uMjQuMzItLjQ0LjY4LS40NC4zOTkgMCAuNjc5LjIuNjc5LjQ0IDAgLjI4LS4yOC40NC0uNjguNDQtLjM2IDAtLjY4LS4xNi0uNjgtLjQ0eiIgZmlsbD0iI2ZmZiIgZmlsbC1ydWxlPSJldmVub2RkIi8+PHBhdGggZD0iTTkzLjE4NCA2My44MDFjMC0uMjQuMzItLjQ0LjY4LS40NC4zOTkgMCAuNjc5LjIuNjc5LjQ0IDAgLjI4LS4yOC40NC0uNjguNDQtLjM2IDAtLjY4LS4xNi0uNjgtLjQ0IiBmaWxsPSJub25lIiBzdHJva2U9IiNmZmYiIHN0cm9rZS13aWR0aD0iLjMyIiBzdHJva2UtbWl0ZXJsaW1pdD0iOCIvPjxwYXRoIGQ9Ik02MS4yMDMgNDMuMDU0YzAtMS4wOC45Ni0xLjk5OSAyLjA3OS0xLjk5OSAxLjE1OSAwIDIuMDc4LjkyIDIuMDc4IDEuOTk5IDAgMS4xMi0uOTIgMS45OTktMi4wNzggMS45OTktMS4xMiAwLTIuMDgtLjg4LTIuMDgtMnoiIGZpbGw9IiNlYzc2NTkiIGZpbGwtcnVsZT0iZXZlbm9kZCIvPjxwYXRoIGQ9Ik02Mi4wODIgNDIuNzM0YzAtLjMyLjItLjY0LjQtLjY0LjI0IDAgLjQuMzIuNC42NCAwIC4zNi0uMTYuNjQtLjQuNjQtLjIgMC0uNC0uMjgtLjQtLjY0eiIgZmlsbD0iI2ZmZiIgZmlsbC1ydWxlPSJldmVub2RkIi8+PHBhdGggZD0iTTYyLjA4MiA0Mi43MzRjMC0uMzIuMi0uNjQuNC0uNjQuMjQgMCAuNC4zMi40LjY0IDAgLjM2LS4xNi42NC0uNC42NC0uMiAwLS40LS4yOC0uNC0uNjQiIGZpbGw9Im5vbmUiIHN0cm9rZT0iI2ZmZiIgc3Ryb2tlLXdpZHRoPSIuMzIiIHN0cm9rZS1taXRlcmxpbWl0PSI4Ii8+PHBhdGggZD0iTTc0LjU1NSAxMy43MTJjMC0xLjA4Ljg0LTIgMS44MzktMiAxLjA0IDAgMS44MzkuOTIgMS44MzkgMiAwIDEuMTE5LS44IDEuOTk4LTEuODQgMS45OTgtLjk5OSAwLTEuODM4LS44NzktMS44MzgtMS45OTh6IiBmaWxsPSIjZWM3NjU5IiBmaWxsLXJ1bGU9ImV2ZW5vZGQiLz48cGF0aCBkPSJNNzUuMzU0IDEzLjE1MmMwLS4yLjItLjQuNDQtLjQuMjggMCAuNDQuMi40NC40IDAgLjI0LS4xNi40LS40NC40LS4yNCAwLS40NC0uMTYtLjQ0LS40eiIgZmlsbD0iI2ZmZiIgZmlsbC1ydWxlPSJldmVub2RkIi8+PHBhdGggZD0iTTc1LjM1NCAxMy4xNTJjMC0uMi4yLS40LjQ0LS40LjI4IDAgLjQ0LjIuNDQuNCAwIC4yNC0uMTYuNC0uNDQuNC0uMjQgMC0uNDQtLjE2LS40NC0uNCIgZmlsbD0ibm9uZSIgc3Ryb2tlPSIjZmZmIiBzdHJva2Utd2lkdGg9Ii4zMiIgc3Ryb2tlLW1pdGVybGltaXQ9IjgiLz48cGF0aCBkPSJNODIuMDcgMjQuNDI1YzAtMS4wOC44NC0xLjk5OSAxLjg0LTEuOTk5IDEuMDM5IDAgMS44MzguOTIgMS44MzggMiAwIDEuMTE5LS44IDEuOTk4LTEuODM5IDEuOTk4LTEgMC0xLjgzOS0uODgtMS44MzktMS45OTl6IiBmaWxsPSIjZWM3NjU5IiBmaWxsLXJ1bGU9ImV2ZW5vZGQiLz48cGF0aCBkPSJNODIuODcgMjMuODI2YzAtLjI0LjItLjQ0LjQ0LS40NC4yOCAwIC40NC4yLjQ0LjQ0IDAgLjI4LS4xNi40NC0uNDQuNDQtLjI0IDAtLjQ0LS4xNi0uNDQtLjQ0eiIgZmlsbD0iI2ZmZiIgZmlsbC1ydWxlPSJldmVub2RkIi8+PHBhdGggZD0iTTgyLjg3IDIzLjgyNmMwLS4yNC4yLS40NC40NC0uNDQuMjggMCAuNDQuMi40NC40NCAwIC4yOC0uMTYuNDQtLjQ0LjQ0LS4yNCAwLS40NC0uMTYtLjQ0LS40NCIgZmlsbD0ibm9uZSIgc3Ryb2tlPSIjZmZmIiBzdHJva2Utd2lkdGg9Ii4zMiIgc3Ryb2tlLW1pdGVybGltaXQ9IjgiLz48cGF0aCBkPSJNMTMuNzkyIDU1LjEyN2MwLS44OC42NC0xLjYgMS4zOTktMS42Ljc4IDAgMS4zOTkuNzIgMS4zOTkgMS42IDAgLjg5OS0uNjIgMS41OTktMS40IDEuNTk5LS43NTkgMC0xLjM5OC0uNy0xLjM5OC0xLjZ6IiBmaWxsPSIjZWM3NjU5IiBmaWxsLXJ1bGU9ImV2ZW5vZGQiLz48cGF0aCBkPSJNMTQuMTExIDU1LjA0N2MwLS4zNC4zLS42NC42NC0uNjQuMzYgMCAuNjQuMy42NC42NCAwIC4zNi0uMjguNjQtLjY0LjY0LS4zNCAwLS42NC0uMjgtLjY0LS42NHoiIGZpbGw9IiNmZmYiIGZpbGwtcnVsZT0iZXZlbm9kZCIvPjxwYXRoIGQ9Ik0yNS4zODUgOTMuMjYzYzAtLjg3OS43Ni0xLjU5OSAxLjY3OS0xLjU5OS45MzkgMCAxLjY3OS43MiAxLjY3OSAxLjYgMCAuODk5LS43NCAxLjU5OS0xLjY4IDEuNTk5LS45MTkgMC0xLjY3OC0uNy0xLjY3OC0xLjZ6IiBmaWxsPSIjZWM3NjU5IiBmaWxsLXJ1bGU9ImV2ZW5vZGQiLz48cGF0aCBkPSJNMjUuNzg0IDkzLjM4M2MwLS4zNi4zLS42OC42NC0uNjguMzYgMCAuNjQuMzIuNjQuNjggMCAuMzgtLjI4LjY4LS42NC42OC0uMzQgMC0uNjQtLjMtLjY0LS42OHoiIGZpbGw9IiNmZmYiIGZpbGwtcnVsZT0iZXZlbm9kZCIvPjxwYXRoIGQ9Ik0xMS4yMzMgNjQuODhjMC0xLjA5OS45NC0xLjk5OCAyLjA3OS0xLjk5OCAxLjE2IDAgMi4wNzkuOSAyLjA3OSAxLjk5OSAwIDEuMTE5LS45MiAxLjk5OC0yLjA4IDEuOTk4LTEuMTM4IDAtMi4wNzgtLjg3OS0yLjA3OC0xLjk5OHoiIGZpbGw9IiNlYzc2NTkiIGZpbGwtcnVsZT0iZXZlbm9kZCIvPjxwYXRoIGQ9Ik0xMi4xMTMgNjQuMjAxYzAtLjI4LjE4LS41Mi40LS41Mi4yNCAwIC40LjI0LjQuNTIgMCAuMy0uMTYuNTItLjQuNTItLjIyIDAtLjQtLjIyLS40LS41MnoiIGZpbGw9IiNmZmYiIGZpbGwtcnVsZT0iZXZlbm9kZCIvPjxwYXRoIGQ9Ik0xMi4xMTMgNjQuMjAxYzAtLjI4LjE4LS41Mi40LS41Mi4yNCAwIC40LjI0LjQuNTIgMCAuMy0uMTYuNTItLjQuNTItLjIyIDAtLjQtLjIyLS40LS41MiIgZmlsbD0ibm9uZSIgc3Ryb2tlPSIjZmZmIiBzdHJva2Utd2lkdGg9Ii4zMiIgc3Ryb2tlLW1pdGVybGltaXQ9IjgiLz48cGF0aCBkPSJNMTcuMDcgODEuNjdjMC0xLjA5OS44NC0xLjk5OCAxLjgzOS0xLjk5OCAxLjAxOSAwIDEuODM4LjkgMS44MzggMS45OTkgMCAxLjExOS0uODIgMS45OTgtMS44MzggMS45OTgtMSAwLTEuODQtLjg4LTEuODQtMS45OTh6IiBmaWxsPSIjZWM3NjU5IiBmaWxsLXJ1bGU9ImV2ZW5vZGQiLz48cGF0aCBkPSJNMTcuOTUgODEuMTFhLjQuNCAwIDAgMSAuMzk5LS4zOTljLjI0IDAgLjQuMTguNC40IDAgLjI0LS4xNi40LS40LjQtLjIyIDAtLjQtLjE2LS40LS40eiIgZmlsbD0iI2ZmZiIgZmlsbC1ydWxlPSJldmVub2RkIi8+PHBhdGggZD0iTTE3Ljk1IDgxLjExYS40LjQgMCAwIDEgLjM5OS0uMzk5Yy4yNCAwIC40LjE4LjQuNCAwIC4yNC0uMTYuNC0uNC40LS4yMiAwLS40LS4xNi0uNC0uNCIgZmlsbD0ibm9uZSIgc3Ryb2tlPSIjZmZmIiBzdHJva2Utd2lkdGg9Ii4zMiIgc3Ryb2tlLW1pdGVybGltaXQ9IjgiLz48cGF0aCBkPSJNNDkuNTMgNTkuMjg0YzAtLjk2Ljc2LTEuNzU5IDEuNjc5LTEuNzU5Ljk2IDAgMS42NzkuOCAxLjY3OSAxLjc2IDAgLjk5OC0uNzIgMS43NTgtMS42NzkgMS43NTgtLjkyIDAtMS42NzktLjc2LTEuNjc5LTEuNzU5eiIgZmlsbD0iI2VjNzY1OSIgZmlsbC1ydWxlPSJldmVub2RkIi8+PHBhdGggZD0iTTUwLjQxIDU4LjY0NGMwLS4xMi4yLS4yNC40LS4yNC4yNCAwIC4zOTkuMTIuMzk5LjI0IDAgLjE2LS4xNi4yNC0uNC4yNC0uMiAwLS40LS4wOC0uNC0uMjR6IiBmaWxsPSIjZmZmIiBmaWxsLXJ1bGU9ImV2ZW5vZGQiLz48cGF0aCBkPSJNNTAuNDEgNTguNjQ0YzAtLjEyLjItLjI0LjQtLjI0LjI0IDAgLjM5OS4xMi4zOTkuMjQgMCAuMTYtLjE2LjI0LS40LjI0LS4yIDAtLjQtLjA4LS40LS4yNCIgZmlsbD0ibm9uZSIgc3Ryb2tlPSIjZmZmIiBzdHJva2Utd2lkdGg9Ii4zMiIgc3Ryb2tlLW1pdGVybGltaXQ9IjgiLz48cGF0aCBkPSJNNDMuMjE0IDgyLjE5YzAtLjguNjgtMS40NzkgMS41MTktMS40NzkuODQgMCAxLjUxOS42OCAxLjUxOSAxLjQ4IDAgLjgzOS0uNjggMS40NzgtMS41MiAxLjQ3OC0uODM5IDAtMS41MTgtLjY0LTEuNTE4LTEuNDc5eiIgZmlsbD0iI2VjNzY1OSIgZmlsbC1ydWxlPSJldmVub2RkIi8+PHBhdGggZD0iTTQ0LjA5MyA4MS41NWMwLS4yOC4xMi0uNTIuMjQtLjUyLjE2IDAgLjI0LjI0LjI0LjUyIDAgLjMyLS4wOC41Mi0uMjQuNTItLjEyIDAtLjI0LS4yLS4yNC0uNTJ6IiBmaWxsPSIjZmZmIiBmaWxsLXJ1bGU9ImV2ZW5vZGQiLz48cGF0aCBkPSJNNDQuMDkzIDgxLjU1YzAtLjI4LjEyLS41Mi4yNC0uNTIuMTYgMCAuMjQuMjQuMjQuNTIgMCAuMzItLjA4LjUyLS4yNC41Mi0uMTIgMC0uMjQtLjItLjI0LS41MiIgZmlsbD0ibm9uZSIgc3Ryb2tlPSIjZmZmIiBzdHJva2Utd2lkdGg9Ii4zMiIgc3Ryb2tlLW1pdGVybGltaXQ9IjgiLz48cGF0aCBkPSJNMTAyLjg1OCA3My4zMTZjMC0uNTYuNDgtMS4wOCAxLTEuMDguNTU5IDAgLjk5OC41Mi45OTggMS4wOCAwIC42LS40NCAxLjA3OS0uOTk5IDEuMDc5LS41MiAwLTEtLjQ4LTEtMS4wOHoiIGZpbGw9IiNlYzc2NTkiIGZpbGwtcnVsZT0iZXZlbm9kZCIvPjxwYXRoIGQ9Ik0xMDMuMTc3IDczLjM5NmMwLS4zNi4yLS42OC40NC0uNjguMjggMCAuNDQuMzIuNDQuNjggMCAuNC0uMTYuNjgtLjQ0LjY4LS4yNCAwLS40NC0uMjgtLjQ0LS42OHoiIGZpbGw9IiNmZmYiIGZpbGwtcnVsZT0iZXZlbm9kZCIvPjxwYXRoIGQ9Ik03NC4wNzUgODAuNDcxYzAtLjg4LjY4LTEuNTk5IDEuNDgtMS41OTkuODM5IDAgMS40NzguNzIgMS40NzggMS42IDAgLjkxOS0uNjQgMS41OTgtMS40NzkgMS41OTgtLjggMC0xLjQ3OS0uNjgtMS40NzktMS41OTl6IiBmaWxsPSIjZWM3NjU5IiBmaWxsLXJ1bGU9ImV2ZW5vZGQiLz48cGF0aCBkPSJNNzQuNTU1IDgwLjM1MWMwLS4zNi4yOC0uNjguNi0uNjguMzYgMCAuNi4zMi42LjY4IDAgLjQtLjI0LjY4LS42LjY4LS4zMiAwLS42LS4yOC0uNi0uNjh6IiBmaWxsPSIjZmZmIiBmaWxsLXJ1bGU9ImV2ZW5vZGQiLz48cGF0aCBkPSJNODIuMDcgODkuMTA2YzAtLjk2Ljc2LTEuNzU5IDEuNjQtMS43NTkuOTE5IDAgMS42MzguOCAxLjYzOCAxLjc1OSAwIDEtLjcyIDEuNzU5LTEuNjM5IDEuNzU5LS44OCAwLTEuNjM5LS43Ni0xLjYzOS0xLjc1OXoiIGZpbGw9IiNlYzc2NTkiIGZpbGwtcnVsZT0iZXZlbm9kZCIvPjxwYXRoIGQ9Ik04Mi44NyA4OC44NjZjMC0uMzIuMjgtLjY0LjYtLjY0LjM2IDAgLjU5OS4zMi41OTkuNjQgMCAuMzYtLjI0LjY0LS42LjY0LS4zMiAwLS42LS4yOC0uNi0uNjR6IiBmaWxsPSIjZmZmIiBmaWxsLXJ1bGU9ImV2ZW5vZGQiLz48cGF0aCBkPSJNODkuMDI2IDc3LjI3M2MwLS44OC42OC0xLjU5OSAxLjUyLTEuNTk5LjgzOSAwIDEuNTE4LjcyIDEuNTE4IDEuNiAwIC45MTktLjY4IDEuNTk4LTEuNTE5IDEuNTk4LS44NCAwLTEuNTE5LS42OC0xLjUxOS0xLjU5OXoiIGZpbGw9IiNlYzc2NTkiIGZpbGwtcnVsZT0iZXZlbm9kZCIvPjxwYXRoIGQ9Ik04OS41MDYgNzcuMzkzYzAtLjM2LjI4LS42OC42LS42OC4zNiAwIC41OTkuMzIuNTk5LjY4IDAgLjQtLjI0LjY4LS42LjY4LS4zMiAwLS42LS4yOC0uNi0uNjh6IiBmaWxsPSIjZmZmIiBmaWxsLXJ1bGU9ImV2ZW5vZGQiLz48cGF0aCBkPSJNNTEuNTI5IDEwLjIzNGMwLS44LjY4LTEuNDggMS41MTktMS40OC44NCAwIDEuNTE5LjY4IDEuNTE5IDEuNDggMCAuODQtLjY4IDEuNDc5LTEuNTIgMS40NzktLjgzOSAwLTEuNTE4LS42NC0xLjUxOC0xLjQ4eiIgZmlsbD0iI2VjNzY1OSIgZmlsbC1ydWxlPSJldmVub2RkIi8+PHBhdGggZD0iTTUyLjA4OCAxMC4yMzRjMC0uMzYuMjgtLjY4LjU2LS42OC4zMiAwIC41Ni4zMi41Ni42OCAwIC40LS4yNC42OC0uNTYuNjgtLjI4IDAtLjU2LS4yOC0uNTYtLjY4eiIgZmlsbD0iI2ZmZiIgZmlsbC1ydWxlPSJldmVub2RkIi8+PC9zdmc+;" vertex="1" parent="1">
          <mxGeometry x="180" y="40" width="112.063" height="115.54" as="geometry" />
        </mxCell>
        <mxCell id="iaeM5CewVTjIPd2JOScx-9" value="" style="shape=image;verticalLabelPosition=bottom;verticalAlign=top;imageAspect=0;aspect=fixed;image=data:image/svg+xml,PHN2ZyB4bWxucz0iaHR0cDovL3d3dy53My5vcmcvMjAwMC9zdmciIHZlcnNpb249IjEuMCIgdmlld0JveD0iMCAwIDE1OS42MDkgMTUwLjYxNCI+PGRlZnM+PGNsaXBQYXRoIGNsaXBQYXRoVW5pdHM9InVzZXJTcGFjZU9uVXNlIiBpZD0iYSI+PHBhdGggZD0iTTQuMzE3IDUuNTE3aDE1OS40MjR2MTUwLjcwOEg0LjMxN3oiLz48L2NsaXBQYXRoPjwvZGVmcz48cGF0aCBjbGlwLXBhdGg9InVybCgjYSkiIGQ9Ik0yMC42MDggMjIuNTY2Yy0yLjIyIDEuOTYgMTUuNjEgMTcuODcgMTEuNDMzIDIzLjcyNi0yLjQ5OSAzLjA1OC02LjQxNy44Mi0xMC4wMzQtMS40LTMuMDU4LTEuOTU4LTUuNTc3LTMuNjM3LTYuOTc2LTIuNTE4LTIuNzc4IDIuNzk5IDExLjQzMyA3LjUzNiA5LjIxNCAxNC4yMzItMS45NTkgNi40MTYtMi41MTggOC45MzQtMy4wNzggMTIuMjcyLTEuMzc5IDYuNDE2LTcuMjM1IDMuMDc4LTcuNzk1IDYuNjk2LS41NiAyLjIzOSA2LjQxNiAxLjY4IDYuMTM2IDUuNTc3LS4yOCAxLjk1OS0zLjkxNyAxLjM5OS01LjAxNyA0LjQ1Ny0uMjggMS4xMiAzLjg5OC0uNTQgNC40NTggMy42MzguODM5IDQuMTc3IDIuNzc4IDguNjM1LjI4IDEwLjAzNC0yLjI0IDEuMzk5LTE0Ljc5MiAxMC4zMzQtMTMuMzkzIDEzLjk1MS41NiAxLjY4IDMuMzU4LjI4IDYuNDE3LTEuMTE5IDMuNjE3LTEuNCA3LjUzNS0zLjA1OCA4LjM1NSAwIDEuNjc4IDUuNTc3IDYuNjk1IDE2LjQ3IDExLjk5MiAyMS43NjcgNS4yOTcgNS4wMTcgMy4wNzggNS41NzYgNS4wMTcgNi45NzYgMS45NTkgMS42NTktMS4zOTkgOS40NzQuNTYgMTAuODczLjg0Ljg0IDIuMjM5LTEuNCAzLjg5OC0zLjMzOCAxLjY3OC0yLjIzOSAzLjM1Ny00LjE5NyA1LjAxNi0zLjYzOCAzLjA3OSAxLjY4LS41NCAzLjYzOCAxLjQgNC4xNzguODQuMjggMS4zOTkgMCAyLjIzOC0uNTQuODQtLjU2IDEuNjYtMS4xMiAzLjA1OC0uNTYgMi43OTkuNTYgMTAuODc0IDQuNDU4IDE3LjI5IDMuODk4IDYuNDE2LS44NCAzLjg5OCAzLjMzOCA2LjY5NiAzLjMzOCAyLjQ5OCAwIC4yOC0yLjQ5OCAyLjc3OC0yLjc3OCAyLjUxOS0uNTYgMTkuNTA4LS44NCAyMy45ODYtMS45NiAyLjIxOC0uNTU5IDMuMzM4LjU2IDQuNDU3IDEuOTYgMS4xIDEuMTE5IDIuMjE5IDIuMjM4IDMuODk4IDEuOTU5IDMuMzM4LS4yOCAxLjk1OC01LjAzNyA0LjQ1Ny02LjQxNyAxLjM5OS0uODQgMy4wNzgtLjI4IDQuNDU3LjU2IDEuMTIuNTQgMi4yMzkgMS4zOCAzLjA3OC44MiAxLjY2LS41Ni41Ni01Ljg1NyA0LjQ1OC03Ljc5NiAzLjYxNy0xLjk1OSA1Ljg1Ni01LjAzNyA5LjE5NC0zLjA3OCAzLjYxOCAxLjY4IDEwLjMxNCA1LjAxNyAxMS45OTMgMy4zNTggMS45MzktMS42NzktNS44NTctMTAuNjEzLTMuMzU4LTE2Ljc1IDIuNTE4LTUuODU2IDguOTM0LTIyLjU4NiA5LjQ5NC0yOS4yODIuODQtNi42OTYgNi4zOTYtNS4wMTcgNS44NTctOC4zNzUtLjU2LTMuMDU4LTYuNDE3IDAtNy4yNTYtMy4zMzgtLjg0LTMuNjM4LTMuMzM4LTcuNTM1LS44NC0xMC4wNTQgMi4yNC0yLjIxOCA1LjU3Ny0zLjYxOCA1LjI5Ny01Ljg1Ni0uMjgtLjg0LTEuOTU5LS44NC00LjE3Ny0uODQtMi43OTkuMjgtNS44NTcuMjgtNi40MTYtMS42NTktLjU2LTMuNjM4LTEuNjgtOS4yMTQgMC0xMi44MzIgMS4zOTktMy42MzggOC4zNzUtMTAuNjE0IDYuMTM2LTEyLjI3My0xLjEyLS44MzktMy44OTguODItNi45NzYgMi40OTktMy4zMzggMS45NTktNi45NTYgMy42MzgtOS4xOTQgMi4yMzktMy44OTgtMi41MTktMTIuNTUzLTguOTM1LTE1LjMzMS0xMC4zMzQtMy4wNzgtMS42Ni0yLjUxOC0zLjYxOC00LjczNy01LjAxNy0xLjEyLS41Ni0xLjY4LS4yOC0yLjIzOSAwLS4yOCAwLS44NC4yOC0xLjM5OS0uNTYtMS4zOC0xLjM3OS44NC01LjI5Ny0xLjkzOS02LjEzNi0xLjY3OS0uNTYtMi41MTguMjgtMy42MTguODQtLjU2LjU2LTEuMzk5IDEuMTE5LTIuNzk4LjgzOS0yLjc3OCAwLTEwLjU5My0uNTYtMTEuNzEzLTcuMjU2LTEuMTItNi42OTYtMy44OTctMTQuNzktNS41NzYtOC42MzQtMS42NiA2LjEzNi0zLjYxOCAxMi44MTItNi45NTYgMTMuMzcxLTMuMzU4LjU2LTcuNTM2LjU2LTExLjk5MyAyLjI0LTQuNDU3IDEuOTU4LTcuMjU2IDIuNzk3LTEwLjg3My4yNzktMy42MTgtMi4yMzktNC40NTgtMi43OTgtNi40MTYtMi4yMzktMS45NC44NC0xLjEyIDUuNTc3LTMuMzM4IDcuODE2LTIuMjM5IDEuOTU4LTguMzc1IDYuNDE2LTExLjk5MyA0LjE3Ny0zLjg5OC0yLjIxOS0xNS4wNTEtMTMuOTMyLTE3LjU3LTExLjk5M3oiIGZpbGw9IiM4ZGQzZjEiIGZpbGwtcnVsZT0iZXZlbm9kZCIvPjxwYXRoIGQ9Im0yMC42MjcgMjIuNTY2LS4yOC0uMjhjLS4yOCAwLS4yOC41Ni0uMjguODQgMCAuNTYuMjggMS4xMi41NiAxLjY3OS41NCAxLjEyIDEuNjYgMi40OTggMi43NzkgNC4xNzcgMS42NzkgMi41MTkgMy44OTcgNS4yOTcgNS44NTYgNy44MTYgMS42OCAyLjc3OCAyLjc3OSA1LjI5NiAyLjc3OSA3LjIzNSAwIC41NiAwIDEuNC0uNTYgMS42OC0uNTQgMS4xMTktMS4zOCAxLjM5OC0yLjQ5OSAxLjM5OC0uODQgMC0xLjk1OC0uMjgtMy4wNTgtLjgzOWE1My4wOSA1My4wOSAwIDAgMS01LjI5Ny0zLjA1OGMtLjgzOS0uMjgtMS42NzgtLjg0LTIuMjM4LTEuMTItLjg0LS4yOC0xLjY4LS41Ni0yLjIzOS0uNTYtLjU2IDAtMS4xIDAtMS4zNzkuNTYtLjU2LjI4LS41Ni41Ni0uNTYgMS4xMiAwIC41NCAwIC44Mi41NiAxLjM3OS4yOC41NiAxLjM4IDEuNCAyLjIxOSAyLjIzOSAxLjM5OSAxLjExOSAzLjM1OCAyLjQ5OCA0LjczNyAzLjg5Ny41Ni41NiAxLjEyIDEuNCAxLjY3OSAyLjIzOS4yOC41Ni41NiAxLjM4LjU2IDIuMjE5IDAgLjI4IDAgLjgzOS0uMjggMS4xMTktMS45NiA2LjY5Ni0yLjUxOSA4LjkxNC0zLjA1OSAxMi4yNzItLjI4IDEuNjYtLjgzOSAyLjQ5OS0xLjY3OCAzLjA1OS0uODQuODQtMi4yNCAxLjExOS0zLjM1OCAxLjExOS0uNTQuMjgtMS4xLjU2LTEuNjYuODQtLjU2LjI4LTEuMTE5LjgzOS0xLjExOSAxLjY3OCAwIC4yNi0uMjguMjYtLjI4LjI2IDAgLjU2LjI4Ljg0LjU2IDEuMTIuMjguNTYgMS4xMi44MzkgMS42NzkgMS4xMTkuODIuMjggMS45MzkuNTYgMi43NzggMS4xMi41Ni4yNzkuODQuNTU5IDEuMTIuODM5LjI4LjI4LjI4LjU2LjI4IDEuMDk5di41NmMtLjI4LjI4LS41Ni4yOC0uODQuNTYtLjU2LjI4LTEuNC41NTktMi4yMzkgMS4xMTktLjgyLjU2LTEuMzc5IDEuMTE5LTEuOTM4IDIuMjM4di4yOGMwIC4yOCAwIC41NC4yOC41NCAwIC4yOC4yOC4yOC41NTkuMjguMjguMjguNTYuMjguODIuMjguNTYgMCAxLjExOS4yOCAxLjY3OS41Ni41Ni4yNzkuODM5LjgzOSAxLjExOSAxLjk1OC4yOCAxLjQuNTYgMi43NzguODQgNC4xNzcuMjggMS4xMi41NTkgMi4yMzkuNTU5IDMuMzM4djEuMTJsLS44NC44NGMtMS4xMTkuNTU5LTQuNDU3IDMuMDc3LTcuNTM1IDUuODU2LTEuNjU5IDEuMzk5LTMuMzM4IDIuNzk4LTQuNDU3IDQuMTc3LS41Ni41Ni0uODQgMS40LTEuNCAxLjk1OS0uMjguNTYtLjU1OSAxLjEyLS41NTkgMS45NTkgMCAwIC4yOC4yNi4yOC41NCAwIC41Ni4yOC44MzkuNTYuODM5LjU2LjI4LjgzOS4yOCAxLjExOS4yOC44NCAwIDEuNjc5LS4yOCAyLjUxOC0uNTYgMS42Ni0uNTYgMy4wNTgtMS4xIDQuNzM3LTEuNjU5IDEuMzgtLjg0IDMuMDU5LTEuMTIgMy44OTgtMS4xMi41NiAwIDEuMTIgMCAxLjQuMjguMjc5IDAgLjI3OS4yOC41NTkuODQgMS42NTkgNS41NzcgNi42NzYgMTYuNzEgMTEuOTczIDIyLjAwNyAxLjM5OSAxLjM5OSAyLjIzOCAyLjIzOCAyLjc5OCAzLjA3OC44NCAxLjEyLjg0IDEuNjc5IDEuMTIgMi4yMTkgMCAuMjguMjc5LjU2LjI3OS44MzkuMjYuNTYuNTQuODQuODIgMS4xMi4yOCAwIC4yOC4yOC4yOC41NTkuMjguMjguMjguNTYuMjggMS4xMiAwIC44MzktLjI4IDIuMjE4LS4yOCAzLjMzNy0uMjggMS4xMi0uNTYgMi41MTktLjU2IDMuMzU4IDAgLjU0IDAgMS4xLjI4IDEuMzggMCAuNTYuMjguODM5LjU2IDEuMTE5LjI3OS4yOC41NTkuMjguODM5LjI4LjU2IDAgLjg0LS4yOCAxLjExOS0uNTYuNTYtLjI4IDEuMTItLjg0IDEuNjc5LTEuNjguODItMS4wOTggMS42NTktMi40OTggMi43NzgtMy4zMzcuMjgtLjU2Ljg0LTEuMTIgMS4xMi0xLjQuNTYtLjI3OS44NC0uMjc5IDEuMTE5LS4yNzloLjU2Yy41NC4yOC41NC41Ni44Mi41NiAwIC4yOC4yNzkuNTYuMjc5LjU2IDAgLjI4LS4yOC41NTktLjI4LjgzOS0uMjguMjgtLjI4LjU2LS4yOCAxLjEyIDAgLjI3OSAwIC41NTkuMjguNTU5IDAgLjI4LjI4LjU2LjU2LjU2cy41Ni4yOC44NC4yOGMuMjggMCAuODM5LS4yOCAxLjExOS0uMjguMjgtLjI4Ljg0LS41NiAxLjExOS0uODQuNTYtLjI4Ljg0LS41NiAxLjY1OS0uNTYgMCAwIC4yOCAwIC41Ni4yOCAxLjM5OS4yOCAzLjYzNyAxLjEyIDYuNjk2IDIuMjE5IDIuNzc4Ljg0IDYuMTM2IDEuNjc5IDkuMTk0IDEuNjc5aDEuNjc5Yy41NiAwIDEuMTItLjI4IDEuNC0uMjggMS4wOTggMCAxLjY1OC4yOCAyLjIxOC41Ni4yOC4yOC4yOC41Ni41Ni44NC4yOC4yNzkuMjguODM5LjU2IDEuMzk4LjI3OSAwIC41NTkuMjguODM5LjU2LjI4LjI2LjU2LjI2IDEuMTE5LjI2LjI4IDAgLjU2IDAgLjg0LS4yNi4yNiAwIC41MzkgMCAuNTM5LS4yOC4yOC0uMjguNTYtLjU2LjU2LS44NHYtMS4xMTlsLjI4LS4yOGguNTZjLjU1OS0uMjggMi4yMzgtLjI4IDQuMTc3LS4yOCAzLjA3OC0uMjggNy4yNTUtLjU2IDEwLjg3My0uODM5IDMuOTE4LS4yOCA3LjI1Ni0uNTYgOC45MzUtLjg0LjI4LS4yOC41NC0uMjguODItLjI4LjgzOSAwIDEuMzk4LjI4IDEuOTU4LjU2bDIuMjM5IDIuMjRjLjI4LjI3OS41Ni44MzkgMS4wOTkgMS4xMTguNTYuMjggMS4xMi4yOCAxLjk1OS4yOGguMjhjMS4xMTkgMCAxLjY3OS0uNTYgMi4yMzgtMS4xMi44Mi0uODM5LjgyLTEuOTU4IDEuMS0zLjA3Ny4yOC0uNTQuNTYtMS4xLjU2LTEuMzguMjc5LS41Ni41NTktLjgzOS44MzktMS4xMTkuNTYgMCAuODQtLjI4IDEuMTE5LS4yOC44NCAwIDEuNjc5LjU2IDIuNzc4IDEuMTIuMjguMjguODQuNTYgMS40LjU2LjI4LjI4LjgzOS41NiAxLjM5OS41Ni4yOCAwIC41NiAwIC41Ni0uMjguNTU5IDAgLjgzOS0uMjguODM5LS41Ni4yOC0uNTYuNTQtMS4xMi44Mi0xLjY4IDAtMS4xMTkuMjgtMi4yMzguODM5LTMuMDU4LjI4LTEuMTE5IDEuMTItMS45NTggMi4yMzgtMi41MTggMS40LS44NCAyLjc3OS0xLjY3OSAzLjg5OC0yLjUxOCAxLjEyLS41NCAyLjIzOS0xLjEgMy4wNTgtMS4xLjU2IDAgMS4xMiAwIDEuOTU5LjU2IDEuMTIuNTQgMy4wNzggMS42NTkgNS4wMTcgMi40OTggMS45NTkuNTYgMy44OTggMS40IDUuNTc3IDEuNC41NiAwIDEuMzk5LS4yOCAxLjk1OC0uODQuMjgtLjI4LjI4LS41Ni4yOC0xLjEyIDAtLjgzOS0uMjgtMS42NTgtLjU2LTIuNDk4LS41Ni0xLjM5OS0xLjY3OC0zLjM1OC0yLjIzOC01LjAxNy0uODQtMS45NTktMS40LTMuOTE3LTEuNC01LjU3NiAwLS44NCAwLTEuNjguMjgtMi41MTkgMS40LTMuMDU4IDMuNjM4LTguNjM1IDUuNTc3LTE0LjQ5MSAxLjk2LTUuNTc3IDMuOTE4LTExLjQzMyA0LjE5OC0xNS4wNTEuMjgtMS40LjU0LTIuNTE4IDEuMS0zLjM1OC44MzktMS4xIDEuNjc4LTEuNjU5IDIuNzk3LTEuOTM5LjI4LS4yOC44NC0uNTYgMS4xMi0xLjEyLjU2LS4yNzkuODItLjgzOS44Mi0xLjM5OHYtLjU2Yy0uMjYtLjU2LS4yNi0uODQtLjU0LTEuMTItLjU2LS41MzktMS40LS44MTktMS45Ni0uODE5LTEuMTE5LS4yOC0yLjIzOCAwLTMuMDU3LS4yOC0uNTYgMC0uODQtLjI4LTEuMTItLjI4LS4yOC0uMjgtLjU2LS41NTktLjU2LTEuMTE5LS4yOC0xLjExOS0uODM5LTIuNTE4LTEuMTE5LTMuODk3LS41Ni0xLjEyLS44NC0yLjIzOS0uODQtMy4zNTggMC0uODQuMjgtMS4zOC44NC0xLjk0IDEuMTItMS4xMTggMi41MTktMS45NTggMy42MTgtMi43OTcuNTYtLjU2Ljg0LTEuMTIgMS40LTEuNC4yNzktLjU0LjU1OS0xLjA5OS41NTktMS45Mzh2LS4yOGMwLS4yOC0uMjgtLjU2LS41Ni0uODQtLjI4LS4yOC0uNTYtLjI4LTEuMTItLjI4LS41NTktLjI4LTEuMDk4LS4yOC0xLjY1OC0uMjhoLTMuMDc4Yy0xLjEyIDAtMi4yMTkgMC0yLjc3OS0uMjgtLjU2IDAtLjg0LS4yNzktLjg0LS4yNzktLjI3OS0uMjgtLjU1OS0uNTYtLjU1OS0uODQtLjI4LTIuMjE4LS44NC01LjAxNi0uODQtNy43OTUgMC0xLjY3OSAwLTMuMDc4LjU2LTQuNDU3Ljg0LTEuNCAyLjUxOS0zLjYzOCAzLjg5OC01LjU3Ny44NC0xLjExOSAxLjQtMi4yMzggMS45NTktMy4wNzguNTYtMS4xIDEuMTItMS45MzkgMS4xMi0yLjc3OCAwLS41Ni0uMjgtMS4xMi0uODQtMS42OC0uMjggMC0uNTYtLjI3OS0xLjEyLS4yNzktLjg0IDAtMS42NzkuNTYtMi43NzggMS4xMi0xLjY3OS41NTktMy42MzggMS45NTgtNS41NzcgMi43NzgtMS42NzkgMS4xMTktMy42MzcgMS42NzktNS4wMTYgMS42NzktLjU2IDAtMS4xMiAwLTEuNC0uMjgtMi4yMzgtMS40LTUuMjk2LTMuNjE4LTguMzU1LTUuODU3LTMuMDc4LTEuOTM4LTUuODU2LTMuODk3LTcuMjU1LTQuNzM3LTEuNC0uODQtMS45NTktMS42NTktMi41MTktMi40OTgtLjI4LS44NC0uODItMS42OC0yLjIxOC0yLjIzOS0uNTYtLjU2LTEuMTItLjU2LTEuNjgtLjU2LS4yOCAwLS44MzkgMC0uODM5LjI4aC0uODM5bC0uMjgtLjI4cy0uMjU5LS4yOC0uMjU5LS41NnYtMi43NzhjMC0uNTYgMC0xLjExOS0uMjgtMS42NzlzLS44NC0xLjExOS0xLjY3OS0xLjM5OWMtLjI4IDAtLjg0LS4yOC0xLjEyLS4yOC0uNTU5IDAtMS4xMTguMjgtMS42NzguNTYtLjU0LjI4LTEuMS41Ni0xLjY2Ljg0LS4yNzkuNTYtLjgzOS41Ni0xLjY3OC41NmgtLjI4Yy0xLjM5OSAwLTMuODk4LS4yOC02LjQxNi0xLjEyLTEuMS0uNTYtMi4yMTktMS4xMi0zLjA1OC0xLjkzOS0uODQtLjg0LTEuNC0yLjIzOC0xLjY4LTMuNjM4LS41NTktMi40OTgtMS4xMTgtNS4yOTYtMS45MzgtNy41MTUtLjI4LTEuMTItLjU2LTEuOTU5LTEuMTItMi41MTktLjI4LS41Ni0uNTU5LS44MzktLjgzOS0uODM5IDAtLjI4LS41Ni0uNTYtLjg0LS41Ni0uMjggMC0uNTU5IDAtLjU1OS4yOGwtLjg0Ljg0Yy0uMjguNTYtLjI4Ljg0LS41NiAxLjM5OS0uODE5IDMuMDU4LTEuNjU4IDYuNDE2LTIuNzc3IDguNjM1LS41NiAxLjM5OS0xLjEyIDIuNTE4LTEuNjggMy4wNzgtLjU1OS44NC0xLjM3OSAxLjExOS0xLjkzOCAxLjM5OS0zLjM1OC41NC03LjgxNS41NC0xMi4yNzMgMi4yMTgtMi40OTggMS4xMi00LjQ1NyAxLjY4LTYuMTM2IDEuNjgtMS40IDAtMi40OTktLjI4LTQuMTc3LTEuMTItMS4xMi0uODQtMi4yNC0xLjY3OS0zLjA1OS0xLjk1OS0uODQtLjU2LTEuNjc5LS44Mi0yLjUxOC0uODItLjI4IDAtLjg0LjI2LTEuNC4yNi0uMjguMjgtLjU1OS4yOC0uODM5LjU2LS4yNi41Ni0uNTQgMS4xMi0uODIgMS45NiAwIC44MzktLjI4IDEuOTU4LS41NTkgMi43NzctLjI4IDEuMTItLjU2IDEuOTYtMS4xMiAyLjUxOS0xLjExOS44NC0yLjUxOCAxLjk1OS00LjE3NyAzLjA1OC0xLjY3OSAxLjEyLTMuNjM4IDEuNjgtNS4yOTYgMS42OC0uODQgMC0xLjQgMC0xLjk2LS41Ni0uODM5LS41Ni0yLjIxOC0xLjM4LTMuNjE3LTIuNzc5LTIuMjM5LTEuNjc5LTQuNzM3LTQuMTc3LTcuMjU2LTUuODU2LTEuMTE5LTEuMTItMi4yMTgtMS45Ni0zLjMzOC0yLjUxOS0xLjExOS0uNTYtMS45NTktMS4xLTIuNzk4LTEuMS0uMjggMC0uODIuMjYtMS4xLjU0di0uMjguMjhsLjI4LjI4LjU0LjU2YzAtLjI4IDAtLjI4LjI4LS4yOHMuODQuMjggMS40LjU2YzEuOTU4Ljg0IDUuMDE2IDMuMzU4IDcuODE0IDUuODU2IDEuMzggMS4xMiAyLjc3OSAyLjIzOSAzLjg5OCAzLjM1OCAxLjQgMS4xIDIuNDk5IDEuOTQgMy4wNTggMi40OTkgMS4xMi41NiAxLjk1OS41NiAyLjc5OS41NiAxLjkzOCAwIDQuMTc3LS44NCA1Ljg1Ni0xLjk2IDEuNjU5LS44MzkgMy4zMzgtMi4yMTggNC4xNzctMy4wNTguODQtLjU2IDEuMTItMS4zOTkgMS40LTIuMjM4LjU0LTEuMTIuNTQtMi40OTkuODItMy42MTggMC0uNTYuMjc5LS44NC4yNzktMS4xMmwuNTYtLjU1OWMuNTYtLjI4Ljg0LS4yOCAxLjExOS0uMjguNTYgMCAxLjEyLjI4IDEuOTU5LjU2Ljg0LjU2IDEuNjU5IDEuMTIgMy4wNTggMS45NTkgMS42NzkgMS4xMTkgMy4wNzggMS4zOTkgNC43MzcgMS4zOTkgMS45NTkgMCAzLjg5OC0uNTYgNi40MTYtMS42OCA0LjQ1Ny0xLjY3OCA4LjYzNS0xLjY3OCAxMS45OTMtMi4yMzggMS4xLS4yOCAxLjkzOS0uODQgMi43NzgtMS42NTkgMS4xMi0xLjM5OSAxLjk1OS0zLjM1OCAyLjc5OC01LjI5Ny44Mi0yLjIzOCAxLjM4LTQuNzM3IDEuOTQtNi45NzUuMjgtLjU2LjI4LTEuMTIuNTU5LTEuNGwuMjgtLjI4LjI4LjI4Yy4yOCAwIC41Ni41Ni44NCAxLjQgMS4xMTggMS45NTggMS45NTggNS41NzYgMi40OTggOC42MzQuMjggMS45NiAxLjExOSAzLjM1OCAxLjk1OCA0LjQ1OCAxLjY4IDEuMzk5IDMuNjE4IDIuMjM4IDUuNTc3IDIuNzk4czMuNjE4LjU2IDQuNzM3LjU2aC4yOGMxLjQgMCAyLjIzOS0uNTYgMy4wNTgtLjg0bC44NC0uODRjLjI4IDAgLjU2LS4yOCAxLjExOS0uMjguMjggMCAuNTYuMjguODQuMjguNTYuMjguODM5LjI4LjgzOS41Ni4yOC41Ni4yOC44NC4yOCAxLjR2My4wNThjLjI4LjI4LjI4Ljg0LjU2IDEuMTE5LjI4LjI4LjU1OS4yOC44MTkuNTZoLjU2Yy4yOCAwIC41NiAwIC44NC0uMjhoLjU1OWMuMjggMCAuNTYgMCAxLjExOS4yOCAxLjEyLjU2IDEuNCAxLjExOSAxLjk1OSAyLjIzOC41NC44MiAxLjEgMS42NiAyLjc3OCAyLjQ5OSAxLjQuODQgNC4xNzggMi43OTggNy4yNTYgNS4wMTcgMy4wNTggMS45NTggNi4xMTYgNC4xNzcgOC4wNzUgNS41NzYuODQuNTYgMS4zOTkuNTYgMi4yMzkuNTYgMS4wOTkgMCAyLjQ5OC0uMjggMy42MTctLjg0IDEuOTYtLjgzOSAzLjg5OC0xLjk1OCA1LjU3Ny0zLjA1OCAxLjEyLS4yOCAxLjk1OS0uODQgMi40OTgtMS4xMTkuODQtLjI4IDEuNC0uNTYgMS42OC0uNTZzLjI4IDAgLjU2LjI4YzAgMCAuMjc5LjI4LjI3OS41NiAwIC41Ni0uMjggMS4xMi0uODQgMi4yMTgtLjg0IDEuMTItMS45NTggMi43OTktMy4wNTggNC40NzgtMS4xMiAxLjY1OS0yLjIzOCAzLjA1OC0yLjc5OCA0LjE3Ny0uODQgMS42Ni0uODQgMy4zMzgtLjg0IDUuMDE3IDAgMi43NzkuNTYgNS44NTcuODQgOC4wNzUuMjguNTYuNTYgMS4xMi44NCAxLjQuNTYuMjggMS4xMTkuNTYgMS45NTguODM5aDUuNTc3Yy44MiAwIDEuMzggMCAxLjY1OS4yOGguNTZ2LjI4YzAgLjU2IDAgLjg0LS4yOCAxLjExOS0uNTYuNTYtMS4zOCAxLjEtMi4yMTkgMS45MzktLjg0LjU2LTEuNjc5IDEuMzk5LTIuNzk4IDIuMjM4LS44NC44NC0xLjEyIDEuOTQtMS4xMiAyLjc3OSAwIDEuMzk5LjU2IDIuNTE4Ljg0IDMuOTE3LjU2IDEuMS44NCAyLjQ5OSAxLjEyIDMuNjE4IDAgLjU2LjI4Ljg0LjU1OSAxLjQuNTYuNTU5IDEuNC44MTkgMS45NTkuODE5IDEuMS4yOCAyLjIxOCAwIDMuMzM4LjI4LjI4IDAgLjU2IDAgLjg0LjI4LjI3OS4yOC4yNzkuMjguNTU5LjgzOXYuMjhjMCAuMjggMCAuMjgtLjI4LjU2IDAgLjI4LS4yOC41Ni0uODQuODM5LS44MzkuMjgtMS45NTguODQtMi43OTggMS42NzktLjgyIDEuMS0xLjY1OSAyLjQ5OC0xLjkzOSA0LjczNy0uMjggMy4wNTgtMS45NTggOC45MTUtNC4xNzcgMTQuNzcxLTEuOTU5IDUuODU3LTQuMTk4IDExLjQzMy01LjI5NyAxNC40OTEtLjU2Ljg0LS41NiAxLjY4LS41NiAyLjc5OSAwIDIuNzc4IDEuMSA1LjI5NiAyLjIyIDcuNzk1LjU1OSAxLjEyIDEuMTE4IDIuMjM5IDEuMzk4IDMuMzU4LjI4LjgyLjU2IDEuNjU5LjU2IDEuOTM5di41NmMtLjI4IDAtLjU2LjI4LTEuMTIuMjgtMS4zOTkgMC0zLjA1OC0uNTYtNS4wMTYtMS40LTEuOTYtLjg0LTMuODk4LTEuNjU5LTUuMjk3LTIuNDk4LS41Ni0uMjgtMS40LS41Ni0yLjIzOS0uNTYtMS4zNzkgMC0yLjQ5OC41Ni0zLjYxOCAxLjM5OS0xLjM5OS44Mi0yLjQ5OCAxLjY1OS0zLjg5NyAyLjQ5OS0xLjEyLjI4LTEuOTU5IDEuMTE5LTIuMjM5IDEuOTU4LS44MiAxLjQtMS4xIDIuNzc5LTEuMzc5IDMuODk4LS4yOC41Ni0uMjggMS4xMi0uNTYgMS40IDAgLjI3OS0uMjguMjc5LS4yOC41NTloLS4yOGMtLjI4IDAtLjU1OS0uMjgtMS4xMTktLjI4LS41Ni0uMjgtMS4xMTktLjg0LTEuOTU4LTEuMTItLjgyLS4yOC0xLjY2LS44MzktMi40OTktLjgzOS0uNTYgMC0xLjEyLjI4LTEuNjc5LjU2LS41Ni41Ni0xLjEyIDEuMTItMS40IDEuOTU5LS41MzkgMS4wOTktLjUzOSAyLjIxOC0xLjA5OCAzLjA1OCAwIC41Ni0uMjguODQtLjU2IDEuMTItLjI4LjI3OS0uNTYuMjc5LTEuNC4yNzloLjI4LS4yOGMtLjgzOSAwLTEuMTE5IDAtMS42NzgtLjU2LS44Mi0uMjgtMS4zOC0xLjM5OS0yLjIxOS0xLjk1OS0uODQtLjg0LTEuOTU5LTEuNjU5LTMuMzU4LTEuNjU5LS4yOCAwLS41NCAwLTEuMS4yOC0uODM5LjI4LTIuNzk3LjI4LTUuMDE2LjU0LTMuMzU4LjI4LTcuNTM2LjU2LTExLjE1My44NC0xLjk2IDAtMy42MzguMjgtNC43MzguMjgtMS4zOTkgMC0yLjUxOCAwLTIuNzk4LjI4LS41NiAwLS44NCAwLTEuMTIuMjc5LS4yNzkuMjgtLjU1OS41Ni0uODE5IDEuMTJ2LjU1OWMwIC4yOCAwIC41Ni0uMjguNTZ2LjI4aC0xLjExOWwtLjU2LS41NmMtLjI4LS41Ni0uMjgtMS40LS44MzktMS45Ni0uNTYtLjI3OS0uODQtLjU1OS0xLjQtLjgzOS0uNTU5IDAtMS4wOTgtLjI4LTEuOTM4LS4yOC0uNTYgMC0uODQuMjgtMS40LjI4aC0xLjY3OGMtMi43NzggMC02LjEzNi0uODQtOC45MTUtMS42NTktMi43OTgtLjg0LTUuMjk2LTEuOTU4LTYuNjk2LTIuMjM4LS4yOC0uMjgtLjU2LS4yOC0uODQtLjI4LTEuMDk4IDAtMS45MzguNTYtMi40OTguODQtLjI4LjI4LS41Ni41Ni0uODQuNTYtLjI3OSAwLS41NTkuMjc5LS41NTkuMjc5LS4yOCAwLS4yOCAwLS41Ni0uMjggMCAwIDAtLjI4LjI4LS44NCAwLS4yOC4yOC0uNTU5LjI4LTEuMTE5IDAtLjI4LS4yOC0uODQtLjU2LTEuMTE5LS4yOC0uMjgtLjU1OS0uNTQtMS4zOTktLjgyLS4yNi0uMjgtLjU0LS4yOC0uODE5LS4yOC0uNTYgMC0uODQgMC0xLjQuMjgtLjU1OS41NC0xLjM5OCAxLjEtMS45NTggMS45NC0uODQgMS4xMTktMS45MzkgMi4yMzgtMi43NzggMy4zNTctLjI4LjU0LS41NiAxLjEtMS4xMiAxLjM4LS4yOC4yOC0uNTYuMjgtLjU2LjI4LS4yOCAwLS4yOC0uMjgtLjI4LS41Ni0uMjc5LS4yOC0uMjc5LS41Ni0uMjc5LTEuMSAwLS44NC4yOC0xLjk1OS41Ni0zLjM1OCAwLTEuMTE5LjI4LTIuMjE4LjI4LTMuMzM4IDAtLjU2IDAtMS4xMTktLjI4LTEuMzk5IDAtLjU2LS4yOC0uODQtLjU2LTEuMTItLjU2LS4yNzktLjU2LS41NTktLjg0LS44MzkgMC0uNTQgMC0xLjA5OS0uNTYtMS45MzgtLjUzOS0xLjEyLTEuNjU4LTIuNTE5LTMuNjE3LTQuNDU4LTUuMjk3LTUuMDE3LTEwLjMxNC0xNS44OS0xMS43MTMtMjEuNDY3LS4yOC0uNTYtLjU0LTEuMTItMS4xLTEuNjc5LS41NTktLjI4LTEuMTE4LS4yOC0xLjk1OC0uMjgtMS42NzkgMC0zLjg5OC44NC01Ljg1NiAxLjY4LTEuMTIuNTYtMi4yMi44MzktMy4wNTkgMS4xMTktLjg0LjU0LTEuNjc5LjU0LTIuMjM4LjU0aC0uNTZ2LS4yOGMtLjI4IDAtLjI4LS4yNi0uMjgtLjI2IDAtLjU2LjI4LS44NC41Ni0xLjQgMS4xMi0xLjk1OCAzLjg5OC00LjczNyA2LjQxNi02Ljk3NWExMDAuMzY3IDEwMC4zNjcgMCAwIDEgNi40MTYtNC43MzdjLjU2LS4yOCAxLjEyLS41NiAxLjEyLTEuMTIuMjYtLjU2LjI2LTEuMTE5LjI2LTEuNjc5IDAtMS4wOTktLjI2LTIuNDk4LS41NC0zLjYxNy0uMjgtMS40LS41Ni0yLjc3OS0uODQtNC4xNzgtLjI4LS44NC0uNTYtMS42NzktMS4xMi0yLjIzOS0uODM5LS44MTktMS45NTgtMS4wOTktMi41MTgtMS4wOTloLS44MmwtLjI3OS0uMjh2LjI4aC4yOGwtLjI4LS4yOHYuMjhoLjI4LS4yOC4yOC0uMjguMjgtLjI4bC4yOC4yOHYtLjI4aC0uMjhsLjI4LjI4Yy4yOC0uODQuNTQtMS4xMiAxLjEtMS42NzkuNTU5LS4yOCAxLjM5OC0uODQgMi4yMzgtMS4xMi4yOC0uMjguODQtLjI4IDEuMTItLjU1OS4yNzktLjI4LjU1OS0uODQuNTU5LTEuNHYtLjI3OWMwLTEuMS0uNTYtMS45MzktMS4xMi0yLjQ5OC0xLjExOS0uODQtMi41MTgtMS4xMi0zLjYxNy0xLjQtLjU2LS4yOC0uODQtLjU2LTEuMTItLjg0LS4yOCAwLS4yOCAwLS4yOC0uMjc5bC0uMjgtLjI4aC4yOGMwLS4yNiAwLS41NC4yOC0uODIuMjgtLjI4Ljg0LS41NTkgMS4zOC0uNTU5LjgzOS0uMjggMi4yMzgtLjU2IDMuMzU4LTEuMTIgMS4xMTktLjU1OSAyLjIxOC0xLjk1OCAyLjc3OC00LjE3Ny41Ni0zLjM1OCAxLjEyLTUuNTc2IDMuMDc4LTEyLjI3Mi4yOC0uNTYuMjgtLjg0LjI4LTEuNCAwLTEuNjU4LS41Ni0zLjA1OC0xLjY4LTQuMTc3LTEuMzk4LTEuNjc5LTMuNjE3LTMuMzM4LTUuMjk2LTQuNzM3LS44NC0uNTYtMS42NzktMS40LTIuMjM5LTEuOTU5LS4yOC0uMjgtLjI4LS41Ni0uNTQtLjU2di0uODE5Yy4yNi0uMjguNTQtLjI4LjgyLS4yOC41NiAwIDEuNC4yOCAyLjIzOS44MiAxLjY3OS41NiAzLjMzOCAxLjk1OCA1LjAxNyAyLjc5OCAxLjk1OSAxLjEyIDMuODk3IDEuOTU5IDUuNTc2IDEuOTU5IDEuNCAwIDIuNDk5LS41NiAzLjMzOC0xLjY4LjU2LS44MzkuODQtMS42NzguODQtMi41MTggMC0xLjkzOS0uODQtMy44OTctMS45NTktNS44NTYtMS42NTktMy4wNTgtNC4xNzctNi4zOTYtNi4zOTYtOS4xOTUtMS4xMi0xLjM5OS0xLjk1OS0yLjc3OC0yLjc5OC0zLjYxNy0uMjgtLjU2LS41Ni0xLjEyLS41Ni0xLjQtLjI4LS41Ni0uMjgtLjgzOS0uMjgtLjgzOWwtLjU0LS41NnoiIGZpbGw9IiMzNDM0MzQiIGZpbGwtcnVsZT0iZXZlbm9kZCIvPjxwYXRoIGQ9Ik0xMDcuMzM1IDU5Ljk4NGM5Ljc3NCA2Ljk3NSAxMi41NTIgMjQuNTQ1IDEuMTIgNDEuMDE1LTExLjE1NCAxNi40NS0zMi4zNjEgMjUuMzY0LTQyLjExNSAxOC42ODgtOS43NzQtNi42OTUtOS4yMTUtMjkuODYxIDEuOTU5LTQ2LjMxMSAxMS40MzMtMTYuNDUgMjkuMDAyLTIwLjA4OCAzOS4wMzYtMTMuMzkyeiIgZmlsbD0iIzZlYmZlNyIgZmlsbC1ydWxlPSJldmVub2RkIi8+PHBhdGggZD0iTTkwLjg2NSA0OS45OWM5Ljc3NCA2Ljk1NSAxMi41NTIgMjQuNDg1IDEuNCA0MC44OTUtMTEuNDM0IDE2LjQzLTMyLjM2MSAyNS4zMjUtNDIuMzk1IDE4LjY0OS05Ljc3NC02LjY3Ni05LjIxNS0yOS43ODIgMi4yMzgtNDYuMTkyIDExLjE1NC0xNi40MyAyOS4wMDMtMjAuMDQ4IDM4Ljc1Ny0xMy4zNTJ6IiBmaWxsPSIjYWI3MmFhIiBmaWxsLXJ1bGU9ImV2ZW5vZGQiLz48cGF0aCBkPSJNOTYuOTIxIDc0LjQ1NUM4NS43NjggOTAuODg1IDY0Ljg0MSA5OS44IDU0LjgwNyA5Mi44MjRjLTUuNTc3LTMuODk4LTcuODE1LTEzLjA3Mi02LjQxNi0yMy4zODYtNy44MTYgMTUuNTktNy4yNTYgMzQuMjYgMS4zOTkgNDAuMDk2IDEwLjAzNCA2LjY3NiAzMC45NjEtMi4yMTkgNDIuMzk0LTE4LjY1IDQuNzM3LTYuNjc1IDYuOTc2LTEzLjkxIDcuMjM2LTIwLjMyNy0uODIgMS40LTEuMzggMi41MTktMi40OTkgMy44OTh6IiBmaWxsPSIjOWE2MDlmIiBmaWxsLXJ1bGU9ImV2ZW5vZGQiLz48cGF0aCBkPSJtOTAuODQ1IDQ5Ljg5LS4yOC41NmM1LjMxNyAzLjYxNyA4LjM5NSAxMC4zMTMgOC4zOTUgMTguNDA4IDAgNi42OTYtMi4yMzkgMTQuNTExLTcuMjc2IDIxLjc2Ny00LjE3NyA2LjEzNi0xMC4wNTMgMTEuNDMzLTE2LjE5IDE1LjA1LTUuODU2IDMuNjM5LTEyLjAxMiA1LjU5OC0xNy4zMSA1LjU5OC0zLjA3NyAwLTUuODc2LS41Ni03LjgxNS0yLjI0LTIuMjM4LTEuMzk4LTMuOTE3LTMuODk3LTUuMDM2LTYuNjk1LTEuMTItMy4wNzgtMS45Ni02LjY5Ni0xLjk2LTEwLjU5NCAwLTguOTM0IDMuMDc5LTE5LjUyOCA4LjkzNS0yOC4xODMgNy44MzYtMTEuMTUzIDE4LjQ1LTE2LjE5IDI3LjM4NC0xNi4xOSA0LjE3NyAwIDcuODE1IDEuMTIgMTAuODczIDMuMDc4bC4yOC0uNTYuMjgtLjI4Yy0zLjA1OC0yLjIzOC03LjI1Ni0zLjM1Ny0xMS40MzMtMy4zNTctOS40OTUgMC0yMC4zODggNS4zMTctMjguMjAzIDE2Ljc1LTYuMTU2IDguOTM0LTkuMjM1IDE5LjUyOC05LjIzNSAyOC43NDIgMCAzLjg5OC44NCA3Ljc5NiAxLjk2IDEwLjg3NCAxLjExOSAzLjA1OCAzLjA3NyA1Ljg1NiA1LjMxNiA3LjUzNSAyLjQ5OCAxLjQgNS4yOTcgMi4yMTkgOC42NTUgMi4yMTkgNS41NzYgMCAxMi4wMTItMS45MzkgMTguMTQ5LTUuODU3IDUuODU2LTMuNjE3IDExLjczMy04LjkxNCAxNi4xOS0xNS4zMyA1LjMxNy03LjUzNiA3LjUzNS0xNS4zNTEgNy41MzUtMjIuMzI3IDAtOC4zNzUtMy4zMzgtMTUuMzUtOC45MzQtMTkuMjQ4bC0uMjguMjh6IiBmaWxsPSIjMzQzNDM0IiBmaWxsLXJ1bGU9ImV2ZW5vZGQiLz48cGF0aCBkPSJNNzguODEyIDUzLjI2OGM5LjE5NS0uMyAxMC4yOTQgMTQuMDExLjI4IDE0LjAxMS03LjgxNSAwLTcuNTM1LTEzLjczMS0xLjk1OS0xMi44OTJ6IiBmaWxsPSIjYjU4MWIzIiBmaWxsLXJ1bGU9ImV2ZW5vZGQiLz48cGF0aCBkPSJNODIuNzEgNjQuMjgxYzAtMS43MzkgMS40MzktMy4xNTggMy4xOTgtMy4xNTggMS43NzkgMCAzLjE5OCAxLjQyIDMuMTk4IDMuMTU4IDAgMS43NTktMS40MiAzLjE1OC0zLjE5OCAzLjE1OC0xLjc1OSAwLTMuMTk4LTEuMzk5LTMuMTk4LTMuMTU4eiIgZmlsbD0iI2ZmZiIgZmlsbC1ydWxlPSJldmVub2RkIi8+PHBhdGggZD0iTTExNi41MSAzMi44MmMyLjc3OC0uNTYgNS4wMTYgMy4wNzggNi42NzUgNS4wMzcgMi4yMzkgMy4wNTggNS4yOTcgNS41NzcgOS4xOTUgNi45NzYgMy4wNzggMS4xMiA1LjI5NyAyLjIzOCA4LjA5NSAzLjYzOCAzLjYxOCAxLjY1OSA0LjczNy4yOCA3Ljc5NS0xLjQuNTYgMy4zMzgtMy4wNTggNS41NzctMy42MTggOC4zNzUtLjU2IDIuNzc5LjgyIDUuMDE3IDEuMSA3LjUzNiAwIDEuNjc5LS41NCAzLjMzOC41NiA0LjczNyAxLjExOSAxLjQgMi4yMzguMjggMy4wNzcgMS4xMiAyLjIyIDEuOTU4LS44MzkgNC40NzctLjgzOSA2Ljk3NSAwIDIuMjM5IDEuMTIgMy4zNTggMS42NTkgNS4zMTcuNTYgMS4zOTkuMjggMy4wNTguODQgNC43MzcgMS42NzggMy42MzggMy42MTcgNS4wMzcgMS42NzggOS43NzQtLjU2IDEuNjc5LTEuOTU4IDMuMDc4LTIuNTE4IDQuNzM3LS44MiAxLjY4LS44MiAzLjYzOC0xLjM4IDUuMzE3LTEuMTE5IDIuNTE4LTIuNTE4IDQuNzM3LTMuNjE3IDcuMjU2LTEuNjc5IDUuMDE3LTMuMDc4IDExLjQ1My0yLjUxOCAxNi43NSAwIDMuNjM3IDQuNDU3IDkuNzczLTEuNjggNi42OTUtMi4yMTgtMS4xMTktNC45OTYtMy4wNTgtNy41MTUtMS45NTgtMS40LjU2LTMuMDU4IDMuMzU3LTQuNzM3IDQuMTk3LTIuNDk5IDEuNC0zLjMzOCAxLjQtNC40NTcgMy42MTgtMS40IDIuMjM4LTEuMTIgMi4yMzgtMy4zMzggMi41MTgtNS41NzcuMjgtNy41MzYgMS4xMi0xMC44NzQgNi4xMzctMy4wNTgtMy42MTgtOC4wNzUtNC4xNzgtMTIuNTMyLTMuMDU5LTIuMjM5LjU2LTE2LjE3IDEuOTYtMTYuNDUtMS45NTggMC0yLjc5OSA5LjQ3NC00LjE3OCAxMS40MzMtNS4wMTcgNC43MzctMS40IDguOTE1LTMuMzU4IDEzLjY1Mi01LjMxNyA1LjI5Ni0xLjkzOSA2LjY5Ni0zLjMzOCA4LjYzNC04LjkzNSAxLjk2LTUuMDE3IDYuNDE3LTkuMjE0IDkuNzU0LTEzLjM5MiA1LjU3Ny02Ljk3NSA5LjQ3NS0xNi40NyAxMC41OTQtMjUuNDA0Ljg0LTUuMDE3IDAtOC4zNzUtLjg0LTEzLjEzMi0uNTYtNC4xNzguODQtOC45MTUgMC0xMy4xMTItLjU2LTMuMzU4LTIuNzk4LTMuOTE4LTQuNzM3LTYuNDE2LTEuOTU4LTIuMjQtMy42MTctNC43NTgtNS4yOTYtNy4yNTYtMS40LTEuOTU5LTIuNDk5LTQuNDc3LTMuODk4LTYuNDM2LS44NC0xLjM4LTEuOTU5LTIuNDk5LTIuNTE4LTMuODk4LTEuMS0xLjY3OS0xLjY2LTMuMzU4LTEuOTQtNS4zMTd6IiBmaWxsPSIjNmViZmU3IiBmaWxsLXJ1bGU9ImV2ZW5vZGQiLz48cGF0aCBkPSJNMzMuNDggNDAuNzM1czIuODE4IDExLjYzMy04LjE3NSA3LjQ3NmMwIDAgMTEuODMyIDYuMzU2IDguMTc1LTcuNDc2ek0xOS40MDggNzYuOTUzczMuOTM4IDUuNTk3LTEuMTQgNy4yNzZjMCAwIDYuNDc3LS41NiAxLjE0LTcuMjc2eiIgZmlsbD0iI2ZmZiIgZmlsbC1ydWxlPSJldmVub2RkIi8+PHBhdGggY2xpcC1wYXRoPSJ1cmwoI2EpIiBkPSJNMTIuMjczIDEwNi41MzVzLTEyLjMxMyA5Ljk5NCAxLjY3OSAzLjMzOGMwIDAtMTAuNjM0IDQuOTk3LTEuNjgtMy4zMzh6IiBmaWxsPSIjZmZmIiBmaWxsLXJ1bGU9ImV2ZW5vZGQiLz48cGF0aCBkPSJNMzkuODU2IDE0My4wNzNzLTMuOTE4IDExLjExNCAxLjEyIDQuNzM3YzAgMC0zLjYzOSAzLjU5OC0xLjEyLTQuNzM3em0xNC43MTEgMi43OTlzOS4yMTQgNC42MzcgMTguMTQ5IDQuMDk3YzAgMC0xMi44MzItMS44OTktMTguMTUtNC4wOTd6bTg3Ljc4Ny03LjU3NnMxMi4zMTIgNy43MzYgNC43NTctMy42MThjMCAwIDQuNzU3IDguODc1LTQuNzU3IDMuNjE4em0xLjk5OS05Mi4yNjRzMTYuNTUtMTAuMjU0IDYuNzM1IDEuMWMwIDAgNi40NTctOC4wMTYtNi43MzUtMS4xeiIgZmlsbD0iI2ZmZiIgZmlsbC1ydWxlPSJldmVub2RkIi8+PHBhdGggY2xpcC1wYXRoPSJ1cmwoI2EpIiBkPSJNODguMjI3IDE4LjQyOXMyLjg1OC0xOC40NjkgNS45OTYtLjU2YzAgMC0zLjQxOC0xMi44NzItNS45OTYuNTZ6IiBmaWxsPSIjZmZmIiBmaWxsLXJ1bGU9ImV2ZW5vZGQiLz48cGF0aCBkPSJNNTcuOTI1IDI1Ljk0NGMuNTYgMS40IDUuMjk3IDIuMjE5IDYuOTc2IDIuMjE5IDMuNjE3IDAgNy4yMzUtMS4zOCAxMC44NTMtMS4zOC0zLjYxOCAxLjEtNi45NTYgMS45NC0xMC44NTMgMS45NC0xLjY4LjI2LTYuNjk2LS44NC02Ljk3Ni0yLjc3OXoiIGZpbGw9IiNmZmYiIGZpbGwtcnVsZT0iZXZlbm9kZCIvPjxwYXRoIGQ9Ik00NC4yMTMgOTMuNzQzcy0uMjggMTIuNTUzIDguMTE1IDE2LjE3YzguMTE1IDMuMzM4IDIwLjk2OC0yLjIxOCAyOC4yMjMtOC4zNTUgMCAwLTE1LjA5IDExLjY5My0yNi41NDQgNi42NzYtOC42NzQtMy42MTctOS43OTQtMTQuNDktOS43OTQtMTQuNDl6IiBmaWxsPSIjODU0MThlIiBmaWxsLXJ1bGU9ImV2ZW5vZGQiLz48cGF0aCBkPSJNNzEuMTE3IDQ4LjczYy02LjcxNiAyLjI0LTEzLjQ1MiA3LjI1Ni0xOC43NjkgMTQuNzkyLTEuNjc5IDIuNTE4LTMuMDc4IDUuMDM2LTQuMTk3IDcuNTM1LS44NiA5LjIxNCAxLjEyIDE3LjU5IDYuMTU2IDIxLjQ4Ny0uMjgtMTQuNTExIDMuNjM4LTMwLjEyMiAxNi44MS00My44MTR6IiBmaWxsPSIjYzM5ZmM3IiBmaWxsLXJ1bGU9ImV2ZW5vZGQiLz48cGF0aCBkPSJNNDguMjEgNzEuMTE3Yy0zLjA3NyA2Ljk3Ni00Ljc1NiAxNC4yMzEtNC43NTYgMjAuNjI3IDAgMy45MTguODQgNy41MzYgMS45NTggMTAuNTk0IDEuMTIgMi43OTggMi43OTkgNS4yOTcgNS4wMTcgNi42OTYgMS42OCAxLjQgMy42MzggMS45NTkgNi4xMzcgMi4yMTl2LS41NGMtMS42NiAwLTMuMDU4LS41Ni00LjE3OC0uODQtOC4zNzUtMy42MzctOC4wOTUtMTYuMTctOC4wOTUtMTYuMTdzMS4xMiAxMC44NzQgOS43NzQgMTQuNDkxYy41Ni4yOCAxLjQuNTYgMS45NTkuODQtLjg0LTUuMjk3LTEuNjc5LTEwLjg3My0xLjY3OS0xNi40NS01LjAxNy0zLjg5OC02Ljk3Ni0xMi4yNTMtNi4xMzYtMjEuNDY3eiIgZmlsbD0iI2I4OTJiZiIgZmlsbC1ydWxlPSJldmVub2RkIi8+PHBhdGggZD0iTTcyLjcxNiA0Ny4xMzFjLTcuNTM2IDEuOTYtMTUuMzcgNy4yNTYtMjEuMjI3IDE1LjkxLTYuMTU2IDguOTE1LTkuMjM1IDE5LjUwOS05LjIzNSAyOC43MDMgMCAzLjkxOC44NCA3LjgxNiAxLjk2IDEwLjg3NCAxLjExOSAzLjA3OCAzLjA3NyA1Ljg1NiA1LjMxNiA3LjUzNSAxLjk1OSAxLjQgNC40NzcgMS45NTkgNy4yNzYgMi4yMTkgMC0uMjYtLjI4LS44Mi0uMjgtMS4xLTIuNTE5LS4yOC00LjQ3OC0uODM5LTYuMTU3LTIuMjM4LTIuMjM4LTEuNC0zLjkxNy0zLjg5OC01LjAzNi02LjY5Ni0xLjEyLTMuMDU4LTEuOTYtNi42NzYtMS45Ni0xMC41OTQgMC02LjQxNiAxLjY4LTEzLjY1MSA0Ljc1OC0yMC42MjcgMS4xMi0yLjQ5OSAyLjUxOC01LjAxNyA0LjE5Ny03LjUzNiA1LjI5Ny03LjUxNSAxMi4wMTMtMTIuNTMyIDE4LjcyOS0xNC43Ny41Ni0uNTYgMS4xMi0xLjEyIDEuNjU5LTEuNjh6IiBmaWxsPSIjNjc2MTYwIiBmaWxsLXJ1bGU9ImV2ZW5vZGQiLz48cGF0aCBkPSJNNDQuMjMzIDkzLjc0M3MtLjMgMTIuNTEzIDguMTM1IDE2LjEzYzEuMTIuMjggMi41MTkuODIgNC4xOTguODItLjI4LS41NC0uMjgtMS4xLS41Ni0xLjY2LS41Ni0uMjc5LTEuNC0uNTU5LTEuOTU5LS44MzktOC42OTQtMy41OTctOS44MTQtMTQuNDUtOS44MTQtMTQuNDV6IiBmaWxsPSIjYTg3YmIwIiBmaWxsLXJ1bGU9ImV2ZW5vZGQiLz48cGF0aCBkPSJNMTM4Ljc1NiA0OS42MWMxLjEyIDAgMS45NTkgMCAzLjA3OC4yOCAxLjEgMi41MTguMjggNS41OTYuMjggNy44MTUuMjYgMy4zNTguMjYgNi43MTYgMS4xIDkuNzc0IDEuMTE5IDQuMTk4IDMuMDc3IDguMDk1IDQuMTk3IDEyLjI5MyAxLjA5OSA0LjE3Ny44NCA4LjkxNC44NCAxMy4zOTIgMCAyLjIzOC4yNTkgNS4wMTYgMCA2Ljk3NS0uNTYgMi4yMzktMS45NiAzLjYzOC0yLjUyIDUuNTc3LTEuMzk4IDMuOTE4LTIuNzk4IDcuODE1LTMuNjE3IDExLjQ1My0uODQgMy42MTgtMS4xMiA2Ljk3Ni0yLjIzOSAxMC4zMzQtLjg0IDMuNjE4LTIuNzk4IDMuNjE4LTYuMTM2IDQuNzM3LTcuMjU2IDMuMDc4LTEzLjExMiAxMS4xNTMtMjEuMjA3IDExLjE1MyAwLTEuNjU5IDIuNzk4LTIuMjE5IDQuNDc3LTIuNzc4IDIuNzc4LS44NCA1LjAxNy0xLjY4IDcuMjU2LTMuNjM4IDMuMDU4LTIuNDk5IDUuODU2LTUuMDE3IDguOTE0LTcuMjU2IDYuNDE2LTQuNzM3IDcuODE2LTEzLjY3MSA5Ljc1NC0yMS4yMDcgMS42OC03LjgxNSA0LjQ3OC0xNi40NyA0LjE5OC0yNC41NjUgMC0zLjYxOC0yLjIzOS03LjI1NS0zLjM1OC0xMC44OTMtLjg0LTMuMzM4LTEuNC02LjY5Ni0yLjIxOS0xMC4wMzQtLjg0LTQuNDc3LS44NC04LjY1NS0uODQtMTMuMTMyeiIgZmlsbD0iIzU0YjRkYiIgZmlsbC1ydWxlPSJldmVub2RkIi8+PHBhdGggZD0iTTY3LjkxOSA0OS4yNWMwLTEuOTE5IDEuNDk5LTMuNDc4IDMuMzE4LTMuNDc4IDEuODM5IDAgMy4zMTggMS41NiAzLjMxOCAzLjQ3OCAwIDEuOTM5LTEuNDggMy40NzgtMy4zMTggMy40NzgtMS44MiAwLTMuMzE4LTEuNTM5LTMuMzE4LTMuNDc4em0tNC45NTcgMi41MTljMC0xIC44Mi0xLjg0IDEuNzk5LTEuODQgMSAwIDEuNzk5Ljg0IDEuNzk5IDEuODQgMCAxLjAxOS0uOCAxLjgzOS0xLjggMS44MzktLjk3OSAwLTEuNzk4LS44Mi0xLjc5OC0xLjg0eiIgZmlsbD0iI2ZmZiIgZmlsbC1ydWxlPSJldmVub2RkIi8+PC9zdmc+;" vertex="1" parent="1">
          <mxGeometry x="120" y="600" width="159.609" height="150.614" as="geometry" />
        </mxCell>
        <mxCell id="iaeM5CewVTjIPd2JOScx-10" value="" style="shape=image;verticalLabelPosition=bottom;verticalAlign=top;imageAspect=0;aspect=fixed;image=data:image/svg+xml,PHN2ZyB4bWxucz0iaHR0cDovL3d3dy53My5vcmcvMjAwMC9zdmciIHZlcnNpb249IjEuMCIgdmlld0JveD0iMCAwIDI5Ni42NTUgMTc2LjA4OCI+PGRlZnM+PGNsaXBQYXRoIGNsaXBQYXRoVW5pdHM9InVzZXJTcGFjZU9uVXNlIiBpZD0iYSI+PHBhdGggZD0iTTguNzk1LS4yNGgyOTYuM3YxNzYuMjEzSDguNzk1eiIvPjwvY2xpcFBhdGg+PC9kZWZzPjxwYXRoIGNsaXAtcGF0aD0idXJsKCNhKSIgZD0iTTc5LjI3MiA1Mi40MDhjLTEyLjM1MyA3LjA3Ni0yOC4zMDMgNS40NzctNDEuODk1IDcuMzk2QzI5LjI2MiA2MS4wODMuNiA2NC45NiAxMi45OTIgNzkuNzUyYzcuMjM2LTguOTk1IDI3LjcwMy01LjQ3NyAzOC41NzctNi40MzYgNi4zMTYtLjY0IDE3LjE1LTQuMTk4IDIzLjE4Ni0xLjkyIDkuMzU0IDMuMTk5IDYuOTU1IDExLjIzNC4zMiAxNy4zNS0zLjkxOCAzLjg3OC0xNS45OSA2LjExNy0xNi4yNyAxMi4yMzMtLjMyIDYuNzU2IDEyLjk1MiA5LjMxNCAxNy43NDkgOS42NzQgOC43NTQuMzIgMTIuNjcyLTExLjU5MyAyMC44MjctMTAuNjM0IDEwLjgzMy45NiAzLjU5OCAxNi43MSAxLjc5OSAyMy43ODYtMi4xMTkgOC4wNzUtMy42MzggMTQuODMxIDIuOTk4IDIwLjI2OCAxMS40NzMgOC43MTQgMTQuMTkxLTIuODc5IDE1LjA3LTEyLjE5My42LTcuNzU1LTEuMTk4LTE2Ljc1IDYuMDM3LTIxLjIyNyAxMS40MzMtNy40MzYgOS4wMzUgNS4xMTcgMTIuMzUzIDEyLjE5MyA4LjE1NSAxNi40MyAzNi40NTggMTIuNTUyIDUxLjI0OSAxMS41OTMgNi45MTYtLjMyIDEzLjU1Mi0zLjE5OSAyMC40NjctMy44NzggOC43NTUtLjk2IDE0LjQ3MiAzLjg3OCAyMi4zMDcgNC44MzcgOS4wMzQuOTYgMTAuODczLTIuMjM5IDE2LjI3IDcuNzE1IDQuMjM3IDguNzE1IDMuMzE4IDIxLjU0NyAxMC44NzMgMjguMzAzIDcuODM2IDcuMzk2IDEyLjAzMyAxLjk1OSAxMC4yMzQtNy4zOTUtMi4xMTktOC45OTUtOS4zNTQtMTUuMTExLTEwLjgzMy0yNC43NDUtMS44NC0xMC4zMTQuODgtOS4wMzUgNy4yMzUtMTcuMzkgNS4zOTctNi4xMTYgMTAuNTU0LTE0Ljc5IDEyLjAzMy0yMi44MjYgMS43OTktOC42NzUtLjg4LTE0LjQ3MSA4Ljc1NS0xNy4zOSA2LjMxNi0xLjU5OSAxOC4zODkgNC41MTggMTkuODY4LTUuNzk2LTguNDM1LTkuMzE0LTI0LjEwNi42OC0yOS41MDItMTUuNzUtMi4xMi02LjQzNy0uNi0xMy4xOTItMy42MzgtMTkuMzA5LTIuNzE5LTUuNzk2LTcuODM1LTEyLjE5Mi0xMS43NTMtMTcuMzUtMTAuMjM0LTEzLjUxMS0yNi44MjQtMTMuODMtNDMuMDk0LTE1LjExLTYuMzE2LS42NC0xMy44NzIgMC0yMC4xODgtMS45NTlDMTg5LjYwNSA0LjQ3NyAxODYuMjg3LjYgMTc5LjA1MS45NmMtMTEuNDczIDAtOC40MzQgNi43NTYgMS4yIDcuMzk2LTIwLjc4OCA4LjY3NS00Ni43MzItNC4xOTgtNjguNDM5IDIuNTU4LTEyLjYzMiAzLjg3OC0xNy40NyAxNi4zOS0zMS42MiAxNC40NzItMTIuOTUzLTEuOTItMjEuMTA4LS4zMi0zMy43OCA1LjE1NiA4LjQ3NSAzLjE5OSAyMS4xMDcgMy4xOTkgMjcuNDYzIDQuMTU4IDEyLjM1MyAxLjk1OSAxNC40MzEgMTAuNjM0IDUuMzk3IDE3LjcxIiBmaWxsPSJub25lIiBzdHJva2U9IiM1ODU4NWEiIHN0cm9rZS13aWR0aD0iLjY0IiBzdHJva2UtbGluZWNhcD0icm91bmQiIHN0cm9rZS1saW5lam9pbj0icm91bmQiLz48cGF0aCBjbGlwLXBhdGg9InVybCgjYSkiIGQ9Ik03OS40NzIgNTIuNDA4Yy0xMi4zNTMgNy4wNzYtMjguMzQzIDUuNDc3LTQyLjIxNSA3LjcxNi03LjgzNS45NTktMzYuNDk3IDUuMTU2LTI0LjEwNSAxOS42MjggNy4yMzYtOC45OTUgMjcuNzQzLTUuNDc3IDM4LjU3Ny02LjQzNiA2LjM1Ni0uNjQgMTcuMTktNC4xOTggMjMuMjI2LTEuOTIgOS4zNTQgMy41MTkgNi45MTUgMTEuNTU0LjMyIDE3LjM1LTQuMjM4IDMuODc4LTE2LjMxIDYuNDM2LTE2LjU5IDEyLjIzMyAwIDYuNzU2IDEyLjk1MiA5LjMxNCAxNy43ODkgOS42NzQgOC43MTQuMzIgMTIuOTUyLTExLjU5MyAyMC43ODctMTAuNjM0IDExLjE1MyAxLjI4IDMuOTE4IDE2LjcxIDIuMTE5IDIzLjc4Ni0yLjExOSA4LjA3NS0zLjkxOCAxNS4xNSAyLjk5OCAyMC4yNjggMTEuMTUzIDguNzE0IDEzLjg3Mi0yLjU1OSAxNC43OTEtMTIuMTkzLjkyLTcuNzU1LS45Mi0xNi43NSA2LjAzNi0yMS4yMjcgMTEuNzUzLTcuNDM2IDkuMDM1IDUuMTE3IDEyLjY3MyAxMi4xOTMgOC4xMTUgMTYuNDMgMzYuMTc4IDEyLjU1MiA1MC45MjkgMTEuNTkzIDcuMjM1LS4zMiAxMy41OTItMy4xOTkgMjAuODI3LTMuODc4IDguNDM1LS42NCAxNC4xNTIgNC4xOTcgMjIuMzA3IDQuODM3IDkuMDM0IDEuMjggMTAuODMzLTIuMjM5IDE1Ljk5IDguMDM1IDQuNTE3IDguNzE1IDMuNTk4IDIxLjIyNyAxMS4xNTMgMjguMzAzIDcuODM1IDcuMDc2IDEyLjA3MyAxLjYzOSA5Ljk1NC03LjcxNS0xLjgzOS04Ljk5NS05LjA3NC0xNS4xMTEtMTAuODczLTI0Ljc0NS0xLjUyLTEwLjMxNC45Mi05LjAzNSA3LjU1NS0xNy4wNyA1LjExNy02LjQzNiAxMC41NTQtMTUuMTEgMTIuMDMzLTIzLjE0NiAxLjgzOS04LjY3NS0xLjItMTQuNDcxIDguNzU1LTE3LjA3IDYuMzU2LTEuOTE5IDE4LjEwOSA0LjE5OCAxOS41ODgtNS43OTYtOC4xMTUtOS42MzQtMjMuNzg2LjY4LTI5LjIyMy0xNi4wNy0yLjExOC02LjExNy0uOTE5LTEzLjE5Mi0zLjYzNy0xOS4zMDktMi45OTktNS43OTYtOC4xMTUtMTIuMTkyLTExLjc1My0xNy4wMy0xMC4yMzQtMTMuODMxLTI3LjE0NC0xMy44MzEtNDMuMDk0LTE1LjQzLTYuNjM2LS42NC0xNC4xOTIgMC0yMC4yMjgtMS42NEMxODkuODQ1IDQuNDc4IDE4Ni4yMDcuNiAxNzguOTcxLjk2Yy0xMS4xNTMgMC04LjQzNCA2Ljc1NiAxLjUyIDcuNzE2LTIxLjEwOCA4LjM1NS00Ni43MzItNC41MTgtNjguNzU5IDIuMjM4LTEyLjM1MiAzLjg3OC0xNy4xOSAxNi4zOS0zMS4zNCAxNC40NzItMTMuMjczLTEuNi0yMS4xMDgtLjMyLTMzLjc4IDUuMTU2IDguMTU1IDMuMTk5IDIwLjc4NyAzLjE5OSAyNy40MjMgNC40NzggMTIuMzkzIDEuNjM5IDE0LjQ3MSAxMC4zMTQgNS40MzcgMTcuMzl6IiBmaWxsPSIjYmJlMGUzIiBmaWxsLXJ1bGU9ImV2ZW5vZGQiLz48cGF0aCBkPSJNMTY0Ljc4IDYwLjY4M2MtMi4xMTkgMy4yMzgtMy45NTcgOC4wMzUtMy42MzggMTIuMjMzLjYgOC4wMzUgOS4wMzUgMTUuMTUgMTUuOTkgMTYuMTEgMi45OTkuMzIgNi4zMTctLjY0IDguNzE1LTIuNTk4IDIuNDM5LTEuNiA0LjIzOC00Ljc5NyA3LjU1Ni0zLjUxOCAxLjUxOS45NiAyLjExOSAyLjIzOCAzLjMxOCAzLjUxOCAxLjUxOSAxLjk1OCAzLjYzOCAzLjIzOCA2LjAzNiAzLjg3NyAxMi4zNTMgMi41NTkgMTguNjY5LTEwLjYzMyAxOC4wNy0yMS45MDYtMS4yLTE0Ljc5MS0xMS43NTQtMjIuMTg3LTI0LjcwNi0yMi41NDctNC41MTcgMC05LjM1NC42OC0xMy41NTIgMS45NTktMy42MzcgMS4yOC03LjI3NSAxLjkxOS0xMC41NTMgMy44MzgtMi4xMTkgMS4zMTktNS43NTcgNS4xNTctNy4yMzYgOS4wMzR6IiBmaWxsPSIjYzNiMWZkIiBmaWxsLXJ1bGU9ImV2ZW5vZGQiLz48cGF0aCBkPSJNMTY0LjQ2IDYwLjM2M2MtMi4xMTggMy4yMzgtMy42MzcgOC4wMzYtMy4zMTggMTIuNTUzLjYgNy43MTUgOC43NTUgMTQuODMgMTUuNjcgMTUuNzkgMy4wMzkuNjQgNi42MzctLjY0IDguNzU2LTIuNTk4IDIuMzk4LTEuNiA0LjIzNy00Ljc5NyA3LjUxNS0zLjE5OCAxLjUyLjY0IDIuNDM5IDEuOTE5IDMuMzE4IDMuNTE4IDEuNTE5IDEuNjM5IDMuOTU4IDMuMjM4IDYuMDM2IDMuNTU3IDEyLjM5MyAyLjg3OSAxOC45ODktMTAuNjMzIDE4LjExLTIxLjkwNi0uOTItMTQuNzkxLTExLjc1NC0yMi4xODctMjQuNzQ2LTIyLjU0Ny00LjUxNyAwLTkuMzE0LjY4LTEzLjU1MSAxLjk2LTMuMzE4IDEuMjc4LTcuMjM2IDEuOTE4LTEwLjIzNCAzLjgzNy0yLjQzOSAxLjMyLTYuMDM3IDUuMTU3LTcuNTU2IDkuMDM0IiBmaWxsPSJub25lIiBzdHJva2U9IiM1ODU4NWEiIHN0cm9rZS13aWR0aD0iLjMyIiBzdHJva2UtbGluZWNhcD0icm91bmQiIHN0cm9rZS1saW5lam9pbj0icm91bmQiLz48cGF0aCBkPSJNMTkwLjUyNSA4MC42NzFjMi4zOTggMCAzLjkxNy4zNiA1Ljk5NiAyLjI3OSAxLjUxOSAxLjU5OSAyLjQzOCAzLjE5OCA0LjIzNyA0LjQ3NyA0LjE5OCAyLjIzOSA5LjYzNCAxLjI4IDEyLjYzMy0yLjg3OCAyLjM5OC0zLjUxOCA0LjE5Ny03LjcxNiA0LjE5Ny0xMi41MTMgMC03LjM5NS0yLjY3OC0xMi44NzItNi45MTYtMTguOTg4IDIuMTE5IDYuNDM2IDMuOTE4IDEyLjIzMiAyLjExOSAxOC45ODgtLjkyIDMuMTk4LTIuNzE4IDYuMzk2LTQuNzk3IDguOTk1LTEuNTIgMS45MTktNS4xMTcgNC43OTctNy44MzUgMy4xOTgtMS4yLS42NC0xLjItMi4yMzktMi4xMTktMy41NTgtLjkyLTEuMjgtMi45OTgtMi4yMzktNC41MTctMi41NTgtMi4zOTktLjY0LTMuMzE4IDAtNS4xMTcgMS41OTktMi4zOTkgMi4yNzgtOC4xMTUgOC42NzQtMTEuNzUzIDYuMTE2IDMuNjM4LjY0IDUuNDM3LS4zMiA4LjQzNS0yLjU1OCAxLjc5OS0xLjI4IDMuOTE3LTEuNiA2LjMxNi0yLjI0eiIgZmlsbD0iI2FkOTRmYyIgZmlsbC1ydWxlPSJldmVub2RkIi8+PHBhdGggZD0iTTE2Mi45ODEgNzIuNzU2YzAtMy4xOTggMS44NC02Ljc1NiAyLjcxOS05LjY3NC45MTktMi4yMzkgMi4xMTgtNS4xNTcgMy41OTctNy4wNzYgMi4xMi0yLjU5OCA3LjE5Ni00LjE5NyA5LjkxNC01LjQ3NyAyLjA4LS42OC0yLjM5OC4zMi00Ljc5NyA0LjE1OC0uOTIgMS42MzktMS43OTkgMS42MzktMy4zMTggMi41OTgtMS40NzkgMS4yOC0xLjE5OSAzLjU1OC0yLjM5OCA1LjE1Ny0xLjggMi41OTktMi4zOTkgNC44MzctMy41OTggOC4wNzUtLjYgMS42LS42IDMuMjM4LS44OCA0LjgzNyAwIDEuMjgtLjMyIDEuOTIuMjggMi44Nzl6IiBmaWxsPSIjZmZmIiBmaWxsLXJ1bGU9ImV2ZW5vZGQiLz48cGF0aCBkPSJNMTM1LjYzOCAxMTAuMzMzYzEuNzk5IDMuNTE4IDEuNzk5IDcuMzk2IDMuOTE3IDEwLjkxNCAxLjggMi44NzggMy45MTggNS43OTYgNi45MTYgNy4zOTUgNi4zMTYgMy44NzggMTQuMTUyIDQuNTE3IDIxLjM4NyAzLjIzOCA2Ljk1Ni0xIDE0LjE5Mi0uNjggMjEuNDI3LTEgMy45MTggMCA3LjgzNi0uOTU5IDExLjc1My0xLjkxOCAzLjkxOC0uOTYgNy4yMzYtLjk2IDExLjE1My0uNjQgMi45OTkuMzIgNS43MTcuMzIgOC40MzUgMS4yOCAzLjkxOC45NTkgNy44MzYuOTU5IDExLjc1MyAyLjI3OCA2LjAzNyAxLjkxOSAxNS4zNSA2LjM5NiAxOC4zODkgMTIuODMyIDEuNzk5IDQuNTE4IDQuMTk3IDEwLjk1NCA0Ljc5NyAxNS43NS4zMiAyLjYuMzIgNC41MTggMi40MzkgNi40MzcgMS43OTkgMS4yOCA0LjUxNyAxLjU5OSA0LjE5Ny0xLjI4IDAtMi4yMzgtMi43MTgtNC41MTctMy4zMTgtNi43NTUtLjg4LTMuMTk4LS42LTUuNzk3LTIuMDc5LTguNjc1LTIuMTE4LTUuNzk3LTMuNjM3LTEyLjIzMy0zLjkxNy0xOC4zMDkgMC01LjQ3NyAzLjU5OC03LjA3NiA2LjU5Ni0xMS4yNzMgMy4zMTgtNS4xNTcgNi42MzYtMTAuOTUzIDkuMDc0LTE2LjcxIDIuMzk5LTUuMTU3IDIuMzk5LTEwLjk1MyA1LjcxNy0xNS43NSAyLjExOC0zLjU1OCA1LjQzNi04LjA3NiA5LjM1NC05LjAzNSAyLjM5OS0uMzIgNS4xMTcuOTYgNy4yMzYtLjY0IDIuNjc4LTEuOTE4IDIuMzk4LTIuNTU4LS4zMi0zLjUxNy0zLjMxOC0xLjYtOC43NTUuNjQtMTIuMzUzLjY0LTUuMTE2LS4zMi01LjExNi0xLjYtNS4xMTYtNi4xMTcuMjgtOC45OTUtMy4zMTgtMTcuOTktNi4zNTctMjYuMDI0LTMuNTk3LTguNzE1LTcuMjM1LTE4LjAzLTE1LjY3LTIyLjU0NyAyLjQzOCAyLjU5OSAzLjYzOCA1LjQ3NyA1LjE1NyA4LjcxNSAyLjA3OCA0Ljc5NyA1LjExNyA5LjYzNCA2LjU5NiAxNC43OTEgMS41MTkgNC43OTcgMy4wMzggMTAuOTEzIDMuNjM4IDE1Ljc1Ljg3OSA3LjA3Ni0xLjUyIDE0LjE1Mi0yLjM5OSAyMS4yMjgtLjkyIDcuMDc1LTUuNDM3IDE4Ljk0OC0xMi45OTIgMjEuMjI3LTMuOTE4Ljk2LTcuODM1LS42OC0xMS43NTMtLjY4LTMuOTE4LS4zMi04LjQzNS42OC0xMS43NTMgMi41OTktMi43MTggMS41OTktNC4xOTcgMy44MzctNi45MTYgNS40NzYtMy4zMTggMi41NTktNy41NTUgMy44MzgtMTEuNzUzIDQuNDc4LTEyLjA3MiAxLjkxOC0yNC40MjUuNjQtMzYuNzc3IDEuOTE4LTQuNTE4LjY0LTkuOTU0IDEtMTQuNDcyLS4zMi0yLjk5OC0uOTU5LTUuNzE2LTIuNTU4LTkuMDM0LTIuODc4LTMuNjM4LS42NC00LjIzNy0xLjI3OS03LjIzNi0zLjE5OC0yLjQzOC0xLTMuOTE3IDAtNi4zNTYuMzJ6IiBmaWxsPSIjOTZkMGQ0IiBmaWxsLXJ1bGU9ImV2ZW5vZGQiLz48cGF0aCBkPSJNMTI5Ljg0MSAxMDUuNDk2Yy00LjIzNyAxLjMyLTkuMDc0LjY4LTEyLjQzMiA0LjUxNy0zLjMxOCAzLjIzOC0zLjU5OCA3LjExNi0zLjU5OCAxMS4zMTMuMjggNS4xNTctLjMyIDExLjU5My0xLjUyIDE2LjQzLTIuMTE4IDYuNDM3LTYuOTU1IDUuMTU3LTEwLjMxMy42NCAxLjg0IDAgMy4zNTguOTYgNC44NzctLjk2IDEuMi0xLjU5OCAxLjItNi43NTUgMS44LTkuMDM0IDEuNzk4LTcuMDc2IDEuMTk4LTE1LjQ3IDUuNDM2LTIxLjU4NyAyLjQzOC00LjE5NyAxMS41MTMtMTAuOTkzIDE2LjYzLTguMzk1IDQuMjM3IDEuOTIgMTAuMjc0IDEyLjU5MyA5LjY3NCAxNy43NS0yLjk5OC0yLjU5OS03LjIzNi0xMC42NzQtMTIuMDczLTkuOTk0em0tNjcuNDM5LTQuNTU3Yy42IDQuNzk3IDkuMDM1IDYuNzE2IDEyLjYzMyA2LjcxNiA0LjUxNyAwIDcuMTk1LTEuMjggMTAuNTEzLTQuMTU4IDMuODc4LTMuMTk4IDE2LjE5LTcuNzE1IDE3LjcxLjY0IDEuMTk5LTMuNTE4IDEuMTk5LTEzLjE1Mi0xLjgtMTUuNzUgMy44NzggMTIuNTUyLTExLjExMyA1LjE1Ni0xNS45MSA2Ljc1NS0yLjM5OC45Ni0yLjk5OCA0LjUxOC01LjM5NyA1Ljc5Ny0yLjM5OCAxLjI4LTUuNDM2LjY0LTguMTE1LjY0LTMuNTk3IDAtNS45OTYgMC03Ljc5NS0zLjg3OHoiIGZpbGw9IiM5NmQwZDQiIGZpbGwtcnVsZT0iZXZlbm9kZCIvPjxwYXRoIGQ9Ik0xNzYuMzMzIDQ4LjIxYzAtMi44MzcgMi4xNTktNS4xNTYgNC43OTctNS4xNTYgMi42NzkgMCA0Ljc5NyAyLjMxOSA0Ljc5NyA1LjE1NyAwIDIuODc4LTIuMTE4IDUuMTU3LTQuNzk3IDUuMTU3LTIuNjM4IDAtNC43OTctMi4yNzktNC43OTctNS4xNTd6bTExLjI3My0xLjE1OWMwLS45OTkuNzYtMS44MzggMS42OC0xLjgzOC45NTkgMCAxLjY3OC44NCAxLjY3OCAxLjgzOCAwIDEuMDQtLjcyIDEuODQtMS42NzkgMS44NC0uOTIgMC0xLjY3OS0uOC0xLjY3OS0xLjg0ek05NC4yMjMgMjYuMjY0YzMuNjM4LTIuMjM5IDYuMzU2LTUuNDM3IDkuNjc0LTcuNjc1IDIuOTk4LTEuNiA2LjMxNi0yLjg3OSA5LjM1NC0zLjgzOCA4Ljc1NS0yLjU1OCAxNi4zMSAwIDI1LjAyNS42NCA5Ljk5NC42NCAxOS45NDggMCAyOS45MDItLjY0IDUuNDM3LS4zMiAxMC44MzQtLjk2IDE1Ljk5LTIuNTU4IDMuNTk4LS45NiA2LjYzNi0uOTYgMTAuMjM0LS45NiAzLjMxOCAwIDcuMjM2IDEuNiAxMC41NTQuOTYtNC4xOTgtMS4yOC05Ljk1NCAwLTE0LjE1MiAwLTMuNjM3LjMyLTYuMDM2IDIuMjM4LTkuNjc0IDIuODc4LTExLjc1MyAxLjU5OS0yMy41NDYgMy41MTgtMzUuNTc4IDQuMTU3LTkuMDc1LjMyLTE4LjExLTMuMTk4LTI3LjE4NC0yLjg3OC01LjcxNi4zMi0xMy41NTIuOTYtMTcuNzg5IDUuMTE3em0zLjcxNyA1My4xMjhjNS4zOTcgMy4xOTggNy4xOTYgOC4wMzUgNy43OTYgMTQuMTUxLjMyIDMuMjM4LjYgNi4xMTcuMzIgOS4wMzUgMCAzLjE5OC0xLjggNi43NTYtMS41MiA5LjYzNCAyLjEyLTYuNzU2IDQuNzk4LTE1LjExIDIuNzE5LTIyLjIyNy0uNi0yLjIzOC0xLjUyLTcuMDc1LTIuOTk4LTguNjc0LTEuOC0yLjIzOS01LjExNy0xLjI4LTcuMjM2LTIuNTk5eiIgZmlsbD0iI2ZmZiIgZmlsbC1ydWxlPSJldmVub2RkIi8+PHBhdGggZD0iTTEzLjcxMiA3My4wMzZjNS40MzYtMi4yMzkgOS4wNzQtMi41OTkgMTQuNzktMi4yMzkgNy41MTYuOTYgMTQuNzUyLTEgMjIuMzA3LTEuNjM5IDYuMDM3LS42NCAxMi4zNTMtMS41OTkgMTguMzktMS41OTkgMi45OTcgMCA2LjYzNS42NCA4LjcxNCAzLjIzOCAxLjIzOSAxLjYgMy4zMTggNC43OTcgMi4xMTggNy4wMzYgMS44LTMuODM4LS44NzktOS4zMTUtMy41OTctMTEuMjMzLTQuODM3LTMuNTU4LTEzLjU5Mi0xLjkyLTE4Ljk4OS0xLjI4LTcuNTU1IDEuMjgtMTUuMzkgMS4yOC0yMi45MDYgMi41NTktNS43NTYuOTYtMTIuMzUyIDAtMTcuMTkgNC44Mzd6TTYwLjU2MyAzMS43NGMzLjAzOCAxLjI4IDguNDc1LS42NzkgMTEuNzkzLS42NzkgMy41OTggMCA3LjE5Ni4zNiAxMC41MTQgMS42NCA1LjE1NyAyLjIzOCA3LjgzNSA5LjY3MyAzLjAzOCAxNC4xOS0uNi0yLjg3OC42LTUuNzk2LTEuMi04LjM5NC0yLjQzOC00LjE5OC02LjM1NS0yLjU1OS0xMC4yNzMtNC41MTh6IiBmaWxsPSIjOTZkMGQ0IiBmaWxsLXJ1bGU9ImV2ZW5vZGQiLz48cGF0aCBkPSJNOTguNTQgODQuODY5YzcuNDM2IDQuMTk3IDYuMjc2IDEzLjE5MiA0LjQ3OCAyMy4xMDYiIGZpbGw9Im5vbmUiIHN0cm9rZT0iIzU4NTg1YSIgc3Ryb2tlLXdpZHRoPSIuNjQiIHN0cm9rZS1saW5lY2FwPSJyb3VuZCIgc3Ryb2tlLWxpbmVqb2luPSJyb3VuZCIvPjwvc3ZnPg==;" vertex="1" parent="1">
          <mxGeometry x="490" y="570" width="296.655" height="176.088" as="geometry" />
        </mxCell>
        <mxCell id="iaeM5CewVTjIPd2JOScx-11" value="" style="shape=image;verticalLabelPosition=bottom;verticalAlign=top;imageAspect=0;aspect=fixed;image=data:image/svg+xml,PD94bWwgdmVyc2lvbj0iMS4wIiBlbmNvZGluZz0iVVRGLTgiIHN0YW5kYWxvbmU9Im5vIj8+CjwhLS0gQ3JlYXRlZCB3aXRoIElua3NjYXBlIChodHRwOi8vd3d3Lmlua3NjYXBlLm9yZy8pIC0tPgoKPHN2ZwogICB3aWR0aD0iMjAwLjA5MTI5bW0iCiAgIGhlaWdodD0iMTgxLjk1NTE1bW0iCiAgIHZpZXdCb3g9IjAgMCAyMDAuMDkxMjkgMTgxLjk1NTE1IgogICB2ZXJzaW9uPSIxLjEiCiAgIGlkPSJzdmcxIgogICBpbmtzY2FwZTp2ZXJzaW9uPSIxLjQgKDg2YThhZDcsIDIwMjQtMTAtMTEpIgogICBzb2RpcG9kaTpkb2NuYW1lPSJORVVUUk8uc3ZnIgogICB4bWxuczppbmtzY2FwZT0iaHR0cDovL3d3dy5pbmtzY2FwZS5vcmcvbmFtZXNwYWNlcy9pbmtzY2FwZSIKICAgeG1sbnM6c29kaXBvZGk9Imh0dHA6Ly9zb2RpcG9kaS5zb3VyY2Vmb3JnZS5uZXQvRFREL3NvZGlwb2RpLTAuZHRkIgogICB4bWxuczp4bGluaz0iaHR0cDovL3d3dy53My5vcmcvMTk5OS94bGluayIKICAgeG1sbnM9Imh0dHA6Ly93d3cudzMub3JnLzIwMDAvc3ZnIgogICB4bWxuczpzdmc9Imh0dHA6Ly93d3cudzMub3JnLzIwMDAvc3ZnIj4KICA8c29kaXBvZGk6bmFtZWR2aWV3CiAgICAgaWQ9Im5hbWVkdmlldzEiCiAgICAgcGFnZWNvbG9yPSIjZmZmZmZmIgogICAgIGJvcmRlcmNvbG9yPSIjMDAwMDAwIgogICAgIGJvcmRlcm9wYWNpdHk9IjAuMjUiCiAgICAgaW5rc2NhcGU6c2hvd3BhZ2VzaGFkb3c9IjIiCiAgICAgaW5rc2NhcGU6cGFnZW9wYWNpdHk9IjAuMCIKICAgICBpbmtzY2FwZTpwYWdlY2hlY2tlcmJvYXJkPSIwIgogICAgIGlua3NjYXBlOmRlc2tjb2xvcj0iI2QxZDFkMSIKICAgICBpbmtzY2FwZTpkb2N1bWVudC11bml0cz0ibW0iCiAgICAgaW5rc2NhcGU6em9vbT0iMC4zNDgzNTAyOCIKICAgICBpbmtzY2FwZTpjeD0iMTQ2LjQwNDM2IgogICAgIGlua3NjYXBlOmN5PSIzNjYuMDEwOSIKICAgICBpbmtzY2FwZTp3aW5kb3ctd2lkdGg9IjEzNjYiCiAgICAgaW5rc2NhcGU6d2luZG93LWhlaWdodD0iNzQ1IgogICAgIGlua3NjYXBlOndpbmRvdy14PSItOCIKICAgICBpbmtzY2FwZTp3aW5kb3cteT0iLTgiCiAgICAgaW5rc2NhcGU6d2luZG93LW1heGltaXplZD0iMSIKICAgICBpbmtzY2FwZTpjdXJyZW50LWxheWVyPSJnNTEiPgogICAgPGlua3NjYXBlOnBhZ2UKICAgICAgIHg9IjAiCiAgICAgICB5PSIwIgogICAgICAgd2lkdGg9IjIwMC4wOTEyOSIKICAgICAgIGhlaWdodD0iMTgxLjk1NTE1IgogICAgICAgaWQ9InBhZ2UyIgogICAgICAgbWFyZ2luPSIwIgogICAgICAgYmxlZWQ9IjAiIC8+CiAgPC9zb2RpcG9kaTpuYW1lZHZpZXc+CiAgPGRlZnMKICAgICBpZD0iZGVmczEiIC8+CiAgPGcKICAgICBpbmtzY2FwZTpsYWJlbD0iTGF5ZXIgMSIKICAgICBpbmtzY2FwZTpncm91cG1vZGU9ImxheWVyIgogICAgIGlkPSJsYXllcjEiCiAgICAgdHJhbnNmb3JtPSJ0cmFuc2xhdGUoLTcuNjAxMzI3LC01Ni4xNjg4NzEpIj4KICAgIDxnCiAgICAgICBpZD0iZzUxIgogICAgICAgaW5rc2NhcGU6ZXhwb3J0LWZpbGVuYW1lPSJlb3Npbm9waGlsX29rLnN2ZyIKICAgICAgIGlua3NjYXBlOmV4cG9ydC14ZHBpPSI5NiIKICAgICAgIGlua3NjYXBlOmV4cG9ydC15ZHBpPSI5NiIKICAgICAgIHRyYW5zZm9ybT0idHJhbnNsYXRlKC03LjE1MTI3ODEsNDEuNzc1NDMpIj4KICAgICAgPHBhdGgKICAgICAgICAgaWQ9InBhdGgyIgogICAgICAgICBzdHlsZT0iZmlsbDojZGU4N2FhO3N0cm9rZTojYTAyYzVhO3N0cm9rZS13aWR0aDowO3N0cm9rZS1saW5lY2FwOnJvdW5kO3N0cm9rZS1saW5lam9pbjpiZXZlbDtzdHJva2UtZGFzaGFycmF5Om5vbmU7cGFpbnQtb3JkZXI6c3Ryb2tlIGZpbGwgbWFya2VycyIKICAgICAgICAgZD0ibSAyMTMuNjAwMTQsMTA1LjY2ODcyIGMgMCwxMi40OTkyOCAtMi4yMDc0MywyNS41NjcwNiAtOC4wMjgwMSwzNi42MjgzOCAtNS4zMzUxNSwxMC4xMzg4MSAtMTUuMTE2MTcsMTcuMjczNzYgLTIzLjUwNDMzLDI1LjA3NzQ4IC05LjY5MjgyLDkuMDE3NDggLTE4LjU3NjU3LDIwLjA2Mzg5IC0zMC44NjA2MiwyNS4wMDAyNyAtMTMuNTA4NDksNS40Mjg0MiAtMjguOTY1NzksMy43NjEzMyAtNDMuNTIzNjUsMy42MzU0MyAtMTIuMDYyMTMxLC0wLjEwNDMyIC0yNC44NjQ3OSwwLjk5MTU0IC0zNi4wMDQ2NjcsLTMuNjM1NDQgQyA2MS4xMDQ3MDQsMTg3Ljk4MjgzIDUyLjgzMzQ3MywxNzkuMDU0MjQgNDUuMTE0ODEyLDE3MC41OTcgMzYuNTU5MDI2LDE2MS4yMjI1NCAyOS4xNDU3OTksMTUwLjU2NjQ5IDIzLjc1ODc3LDEzOS4wNzQ2NyAxOS4zOTI3NTUsMTI5Ljc2MDkxIDE1Ljg5MDAwNCwxMTkuNjkwOTIgMTUuMTkzNjg3LDEwOS40MjgyMSAxNC4xMTMzNTUsOTMuNTA1NjU5IDE0LjUyNjQ2NCw3Ni4wODAzMjYgMjIuMTQ3NTU4LDYyLjA1ODQyNiAyNi45MDAyNDcsNTMuMzE0MDQ2IDM3LjI2OTM0Nyw0OS4xMDczNjEgNDQuNTc3NzQsNDIuMzUxNjUgNTAuNjAwNDM4LDM2Ljc4NDQwNiA1NS45NzUyNTUsMzAuMzkyNDUgNjIuMjE4MTM5LDI1LjE5ODggYyA0LjgxMDg3MiwtNC4wMDIzMTUgMTIuNzMzODA0LC04LjY5Mzk3IDIwLjA5MjQzOCwtMTAuMTk4MTM5IDkuNTM1MTA3LC0xLjk0OTA1OSAxOS40MTY5MDMsMS4zNjczNDcgMjkuMTMyNDQzLDEuOTM3NzA5IDEzLjI0OTA3LDAuNzc3ODAzIDI3LjMzNDk1LC0yLjYyOTU0OSAzOS43NjQxNiwyLjAyNDIyMiAxMS44MjI0NCw0LjQyNjU4MiAyMC41MTYxOCwxNC44MjAxNDUgMjkuNzg2NDgsMjMuMzg5MDU1IDguODgxMTMsOC4yMDkxODggMTguOTkzNTgsMTUuOTYxNDI1IDI0LjU3ODQ3LDI2LjY4ODY5NCA1Ljc3MjAzLDExLjA4NjcyOCA4LjAyODAxLDI0LjEyOTEwMyA4LjAyODAxLDM2LjYyODM3OSB6IgogICAgICAgICBzb2RpcG9kaTpub2RldHlwZXM9ImFhYWFhYWFhYWFhYWFhYWFhYSIKICAgICAgICAgaW5rc2NhcGU6ZXhwb3J0LWZpbGVuYW1lPSJORVVUUk9QSElMLlNWRyIKICAgICAgICAgaW5rc2NhcGU6ZXhwb3J0LXhkcGk9Ijk2IgogICAgICAgICBpbmtzY2FwZTpleHBvcnQteWRwaT0iOTYiIC8+CiAgICAgIDxwYXRoCiAgICAgICAgIHN0eWxlPSJmaWxsOiNkMzVmOGQ7c3Ryb2tlOiNhMDJjNWE7c3Ryb2tlLXdpZHRoOjEuMTIxMzc7c3Ryb2tlLWxpbmVjYXA6cm91bmQ7c3Ryb2tlLWxpbmVqb2luOmJldmVsO3BhaW50LW9yZGVyOnN0cm9rZSBmaWxsIG1hcmtlcnMiCiAgICAgICAgIGQ9Im0gMTI4LjUwMTU0LDE3MS4yNTcxNyBjIC0xOS4yODE2MywtMTMuMzE0NjggMS4xNzY4OSwtNTMuNTQwNDMgMTguMTYxMTQsLTM2LjAxNjMzIDEwLjg4Nzc1LDExLjIzMzgyIDI5LjYxOTIxLDIxLjA0MjAxIDMxLjI0NDU2LDEuNjMxNTcgMS40MTE4MywtMTYuODYwNTkgLTI4LjkwNTU3LC0yLjk0NTc2IC0yNy4zNjgsLTI2LjExMTc3IDEuMjMyOTMsLTE4LjU3NjAyNyAyMy4wNDkyNCwtMTYuNDE4ODAyIDI4LjA5NzIsLTI4LjE0Mzc5NyA4LjQ0NDU4LC0xOS42MTQzODMgLTIzLjc2ODM3LC0yMC4zMTU3MDYgLTMyLjczMTk4LC0zLjMxMDY2MyAtMTIuMjM5NzUsMjMuMjIwMyAtMzQuMzYyOTUsLTguODA4MTU4IC0yNS4zNzM0NywtMjUuOTYyNzM1IDEyLjI4NTg2LC0yMy40NDUwODEgMzEuMTM3MjIsLTIuODMyMjc5IDQ2LjY4NDU2LDYuMTEyODA5IDE3LjgwNTczLDEwLjI0NDQ1OCAzMC40OTI4NCwyNS40ODYxOTkgMzIuMzAyMTMsNDQuNTA4NDc2IDEuNzMxMjMsMTguMjAxNjIgLTcuOTYyNTQsMzcuMjkwODIgLTIwLjk3NjI3LDQ4LjU1MDk3IC0xMi45ODA1NywxMS4yMzE0NCAtMjEuMjE4NjksMzIuOTYxMjYgLTM5Ljg2OTMzLDI5LjcyMjcyIC01LjE1OTY4LC0wLjg5NTk1IC01Ljg0MDA0LC03Ljk5MDg4IC0xMC4xNzA1NCwtMTAuOTgxMjUgeiIKICAgICAgICAgaWQ9InBhdGgxIgogICAgICAgICBzb2RpcG9kaTpub2RldHlwZXM9InNzc3Nzc3Nzc3NzcyIgLz4KICAgICAgPGVsbGlwc2UKICAgICAgICAgc3R5bGU9ImZvbnQtdmFyaWF0aW9uLXNldHRpbmdzOm5vcm1hbDt2ZWN0b3ItZWZmZWN0Om5vbmU7ZmlsbDojZDM1ZjhkO2ZpbGwtb3BhY2l0eToxO3N0cm9rZTpub25lO3N0cm9rZS13aWR0aDowLjc4Mjk2MTtzdHJva2UtbGluZWNhcDpyb3VuZDtzdHJva2UtbGluZWpvaW46YmV2ZWw7c3Ryb2tlLW1pdGVybGltaXQ6NDtzdHJva2UtZGFzaGFycmF5Om5vbmU7c3Ryb2tlLWRhc2hvZmZzZXQ6MDtzdHJva2Utb3BhY2l0eToxOy1pbmtzY2FwZS1zdHJva2U6bm9uZTtwYWludC1vcmRlcjpzdHJva2UgZmlsbCBtYXJrZXJzO3N0b3AtY29sb3I6IzAwMDAwMCIKICAgICAgICAgaWQ9InBhdGgzIgogICAgICAgICBjeD0iNTUuOTI0MTE0IgogICAgICAgICBjeT0iLTU1Ljg1ODAwMiIKICAgICAgICAgcng9IjIuNDM3NDQ5OSIKICAgICAgICAgcnk9IjMuNTYyNDI2OCIgLz4KICAgICAgPGVsbGlwc2UKICAgICAgICAgc3R5bGU9ImZvbnQtdmFyaWF0aW9uLXNldHRpbmdzOm5vcm1hbDt2ZWN0b3ItZWZmZWN0Om5vbmU7ZmlsbDojZDM1ZjhkO2ZpbGwtb3BhY2l0eToxO3N0cm9rZTpub25lO3N0cm9rZS13aWR0aDowLjM2NzQ5NztzdHJva2UtbGluZWNhcDpyb3VuZDtzdHJva2UtbGluZWpvaW46YmV2ZWw7c3Ryb2tlLW1pdGVybGltaXQ6NDtzdHJva2UtZGFzaGFycmF5Om5vbmU7c3Ryb2tlLWRhc2hvZmZzZXQ6MDtzdHJva2Utb3BhY2l0eToxOy1pbmtzY2FwZS1zdHJva2U6bm9uZTtwYWludC1vcmRlcjpzdHJva2UgZmlsbCBtYXJrZXJzO3N0b3AtY29sb3I6IzAwMDAwMCIKICAgICAgICAgaWQ9InBhdGg0IgogICAgICAgICBjeD0iNjAuOTg5NjA1IgogICAgICAgICBjeT0iLTQ4LjIzMDQ4IgogICAgICAgICByeD0iMS43NjAwOTYzIgogICAgICAgICByeT0iMS41ODQwODY4IiAvPgogICAgICA8ZWxsaXBzZQogICAgICAgICBzdHlsZT0iZm9udC12YXJpYXRpb24tc2V0dGluZ3M6bm9ybWFsO3ZlY3Rvci1lZmZlY3Q6bm9uZTtmaWxsOiNkMzVmOGQ7ZmlsbC1vcGFjaXR5OjE7c3Ryb2tlOm5vbmU7c3Ryb2tlLXdpZHRoOjEuMTgzNjg7c3Ryb2tlLWxpbmVjYXA6cm91bmQ7c3Ryb2tlLWxpbmVqb2luOmJldmVsO3N0cm9rZS1taXRlcmxpbWl0OjQ7c3Ryb2tlLWRhc2hhcnJheTpub25lO3N0cm9rZS1kYXNob2Zmc2V0OjA7c3Ryb2tlLW9wYWNpdHk6MTstaW5rc2NhcGUtc3Ryb2tlOm5vbmU7cGFpbnQtb3JkZXI6c3Ryb2tlIGZpbGwgbWFya2VycztzdG9wLWNvbG9yOiMwMDAwMDAiCiAgICAgICAgIGlkPSJwYXRoNSIKICAgICAgICAgY3g9IjY2LjU2MTg1MiIKICAgICAgICAgY3k9Ii0zOS4yNDgyMzgiCiAgICAgICAgIHJ4PSI0LjgxODc2OSIKICAgICAgICAgcnk9IjMuNDAxNDgzNSIgLz4KICAgICAgPGVsbGlwc2UKICAgICAgICAgc3R5bGU9ImZvbnQtdmFyaWF0aW9uLXNldHRpbmdzOm5vcm1hbDt2ZWN0b3ItZWZmZWN0Om5vbmU7ZmlsbDojZDM1ZjhkO2ZpbGwtb3BhY2l0eToxO3N0cm9rZTpub25lO3N0cm9rZS13aWR0aDowLjY2NTI5NTtzdHJva2UtbGluZWNhcDpyb3VuZDtzdHJva2UtbGluZWpvaW46YmV2ZWw7c3Ryb2tlLW1pdGVybGltaXQ6NDtzdHJva2UtZGFzaGFycmF5Om5vbmU7c3Ryb2tlLWRhc2hvZmZzZXQ6MDtzdHJva2Utb3BhY2l0eToxOy1pbmtzY2FwZS1zdHJva2U6bm9uZTtwYWludC1vcmRlcjpzdHJva2UgZmlsbCBtYXJrZXJzO3N0b3AtY29sb3I6IzAwMDAwMCIKICAgICAgICAgaWQ9ImVsbGlwc2UyOCIKICAgICAgICAgY3g9IjEzLjQ4MzMyNyIKICAgICAgICAgY3k9Ii04NC4wODczNzIiCiAgICAgICAgIHJ4PSIyLjA3MTE0MzIiCiAgICAgICAgIHJ5PSIzLjAyNzA1NTMiCiAgICAgICAgIHRyYW5zZm9ybT0icm90YXRlKDQzLjk0ODQ5MikiIC8+CiAgICAgIDxlbGxpcHNlCiAgICAgICAgIHN0eWxlPSJmb250LXZhcmlhdGlvbi1zZXR0aW5nczpub3JtYWw7dmVjdG9yLWVmZmVjdDpub25lO2ZpbGw6I2QzNWY4ZDtmaWxsLW9wYWNpdHk6MTtzdHJva2U6bm9uZTtzdHJva2Utd2lkdGg6MC45MjgwNjM7c3Ryb2tlLWxpbmVjYXA6cm91bmQ7c3Ryb2tlLWxpbmVqb2luOmJldmVsO3N0cm9rZS1taXRlcmxpbWl0OjQ7c3Ryb2tlLWRhc2hhcnJheTpub25lO3N0cm9rZS1kYXNob2Zmc2V0OjA7c3Ryb2tlLW9wYWNpdHk6MTstaW5rc2NhcGUtc3Ryb2tlOm5vbmU7cGFpbnQtb3JkZXI6c3Ryb2tlIGZpbGwgbWFya2VycztzdG9wLWNvbG9yOiMwMDAwMDAiCiAgICAgICAgIGlkPSJlbGxpcHNlMjkiCiAgICAgICAgIGN4PSI4MC44OTUzNyIKICAgICAgICAgY3k9Ii0zNS4xNjE3NDMiCiAgICAgICAgIHJ4PSIzLjc3ODE0ODciCiAgICAgICAgIHJ5PSIyLjY2NjkyODEiCiAgICAgICAgIHRyYW5zZm9ybT0icm90YXRlKC0xOS4zNjE3NzgpIiAvPgogICAgICA8ZWxsaXBzZQogICAgICAgICBzdHlsZT0iZm9udC12YXJpYXRpb24tc2V0dGluZ3M6bm9ybWFsO3ZlY3Rvci1lZmZlY3Q6bm9uZTtmaWxsOiNkMzVmOGQ7ZmlsbC1vcGFjaXR5OjE7c3Ryb2tlOm5vbmU7c3Ryb2tlLXdpZHRoOjAuOTI4MDYzO3N0cm9rZS1saW5lY2FwOnJvdW5kO3N0cm9rZS1saW5lam9pbjpiZXZlbDtzdHJva2UtbWl0ZXJsaW1pdDo0O3N0cm9rZS1kYXNoYXJyYXk6bm9uZTtzdHJva2UtZGFzaG9mZnNldDowO3N0cm9rZS1vcGFjaXR5OjE7LWlua3NjYXBlLXN0cm9rZTpub25lO3BhaW50LW9yZGVyOnN0cm9rZSBmaWxsIG1hcmtlcnM7c3RvcC1jb2xvcjojMDAwMDAwIgogICAgICAgICBpZD0iZWxsaXBzZTMwIgogICAgICAgICBjeD0iMTcuNzgyNzk1IgogICAgICAgICBjeT0iLTY2LjQzNzk3MyIKICAgICAgICAgcng9IjMuNzc4MTQ4NyIKICAgICAgICAgcnk9IjIuNjY2OTI4MSIKICAgICAgICAgdHJhbnNmb3JtPSJyb3RhdGUoMzcuODI0MjkzKSIgLz4KICAgICAgPHVzZQogICAgICAgICBpZD0idXNlNTQiCiAgICAgICAgIGlua3NjYXBlOnNwcmF5LW9yaWdpbj0iI2VsbGlwc2UyOCIKICAgICAgICAgeGxpbms6aHJlZj0iI2VsbGlwc2UyOCIKICAgICAgICAgdHJhbnNmb3JtPSJtYXRyaXgoLTAuMzU5MjU5ODksMS4yNTQ5NzIxLC0xLjI1NDk3MjEsLTAuMzU5MjU5ODksMTAuMzM3NjI3LC0xMy40NjM2MzcpIiAvPgogICAgICA8dXNlCiAgICAgICAgIGlkPSJ1c2U1NSIKICAgICAgICAgaW5rc2NhcGU6c3ByYXktb3JpZ2luPSIjZWxsaXBzZTMwIgogICAgICAgICB4bGluazpocmVmPSIjZWxsaXBzZTMwIgogICAgICAgICB0cmFuc2Zvcm09Im1hdHJpeCgwLjk4ODQ3ODI2LC0wLjA3MzQyNTEyLDAuMDczNDI1MTIsMC45ODg0NzgyNiwtMTAuMTE4NTQ0LDExNy4yMDEyOCkiIC8+CiAgICAgIDx1c2UKICAgICAgICAgaWQ9InVzZTU2IgogICAgICAgICBpbmtzY2FwZTpzcHJheS1vcmlnaW49IiNlbGxpcHNlMjkiCiAgICAgICAgIHhsaW5rOmhyZWY9IiNlbGxpcHNlMjkiCiAgICAgICAgIHRyYW5zZm9ybT0ibWF0cml4KDEuMTQyMzYxOCwwLjE0NTI3NDU2LC0wLjE0NTI3NDU2LDEuMTQyMzYxOCwtMzUuNjg5NDUzLDEyMC40ODEzOSkiIC8+CiAgICAgIDx1c2UKICAgICAgICAgaWQ9InVzZTU3IgogICAgICAgICBpbmtzY2FwZTpzcHJheS1vcmlnaW49IiNlbGxpcHNlMzAiCiAgICAgICAgIHhsaW5rOmhyZWY9IiNlbGxpcHNlMzAiCiAgICAgICAgIHRyYW5zZm9ybT0ibWF0cml4KC0wLjg1MjE5ODUsMS4xMjQwNDI1LC0xLjEyNDA0MjUsLTAuODUyMTk4NSw3MC40ODU5OTEsLTUwLjcxMDMyNykiIC8+CiAgICAgIDx1c2UKICAgICAgICAgaWQ9InVzZTU4IgogICAgICAgICBpbmtzY2FwZTpzcHJheS1vcmlnaW49IiNlbGxpcHNlMjgiCiAgICAgICAgIHhsaW5rOmhyZWY9IiNlbGxpcHNlMjgiCiAgICAgICAgIHRyYW5zZm9ybT0ibWF0cml4KDAuNzI2MzE3LC0xLjAwODYxMTQsMS4wMDg2MTE0LDAuNzI2MzE3LDg5Ljg5ODA2MiwxNDQuMDczODkpIiAvPgogICAgICA8dXNlCiAgICAgICAgIGlkPSJ1c2U1OSIKICAgICAgICAgaW5rc2NhcGU6c3ByYXktb3JpZ2luPSIjcGF0aDQiCiAgICAgICAgIHhsaW5rOmhyZWY9IiNwYXRoNCIKICAgICAgICAgdHJhbnNmb3JtPSJtYXRyaXgoMC41MDM3Mjk3MSwtMC4wODAwMzAwNiwwLjA4MDAzMDA2LDAuNTAzNzI5NzEsNjkuOTc5NjY5LDk4LjU3NDI5NSkiIC8+CiAgICAgIDx1c2UKICAgICAgICAgaWQ9InVzZTYwIgogICAgICAgICBpbmtzY2FwZTpzcHJheS1vcmlnaW49IiNwYXRoMyIKICAgICAgICAgeGxpbms6aHJlZj0iI3BhdGgzIgogICAgICAgICB0cmFuc2Zvcm09Im1hdHJpeCgtMC4zNzE3NzEwOCwtMS4yNDk3NDQsMS4yNDk3NDQsLTAuMzcxNzcxMDgsMTgwLjUzMjE5LDE1Ni44MDI4NSkiIC8+CiAgICAgIDx1c2UKICAgICAgICAgaWQ9InVzZTYxIgogICAgICAgICBpbmtzY2FwZTpzcHJheS1vcmlnaW49IiNwYXRoMyIKICAgICAgICAgeGxpbms6aHJlZj0iI3BhdGgzIgogICAgICAgICB0cmFuc2Zvcm09Im1hdHJpeCgtMC4zNzY2ODgxMiwwLjcyODU2MzczLC0wLjcyODU2MzczLC0wLjM3NjY4ODEyLDYwLjQ1MjE2NCw0NC43MjQyODUpIiAvPgogICAgICA8dXNlCiAgICAgICAgIGlkPSJ1c2U2MiIKICAgICAgICAgaW5rc2NhcGU6c3ByYXktb3JpZ2luPSIjcGF0aDUiCiAgICAgICAgIHhsaW5rOmhyZWY9IiNwYXRoNSIKICAgICAgICAgdHJhbnNmb3JtPSJtYXRyaXgoLTAuMDQyODQ5NTUsMC42NTI2NTE5NSwtMC42NTI2NTE5NSwtMC4wNDI4NDk1NSwyMS45ODI5MjMsNzIuNjExMDI0KSIgLz4KICAgICAgPHVzZQogICAgICAgICBpZD0idXNlNjMiCiAgICAgICAgIGlua3NjYXBlOnNwcmF5LW9yaWdpbj0iI3BhdGgzIgogICAgICAgICB4bGluazpocmVmPSIjcGF0aDMiCiAgICAgICAgIHRyYW5zZm9ybT0ibWF0cml4KC0wLjM0ODA5NzAxLDEuMDU5NzQ4OSwtMS4wNTk3NDg5LC0wLjM0ODA5NzAxLDIwLjU0NjE5MSwzOS40NTM3NjkpIiAvPgogICAgICA8dXNlCiAgICAgICAgIGlkPSJ1c2U2NCIKICAgICAgICAgaW5rc2NhcGU6c3ByYXktb3JpZ2luPSIjZWxsaXBzZTMwIgogICAgICAgICB4bGluazpocmVmPSIjZWxsaXBzZTMwIgogICAgICAgICB0cmFuc2Zvcm09Im1hdHJpeCgwLjE2MDc5MzM4LDEuMTkxNzc1MywtMS4xOTE3NzUzLDAuMTYwNzkzMzgsNTkuOTY4NDQ1LDQ4LjM4MTYxNSkiIC8+CiAgICAgIDx1c2UKICAgICAgICAgaWQ9InVzZTY1IgogICAgICAgICBpbmtzY2FwZTpzcHJheS1vcmlnaW49IiNwYXRoNSIKICAgICAgICAgeGxpbms6aHJlZj0iI3BhdGg1IgogICAgICAgICB0cmFuc2Zvcm09Im1hdHJpeCgtMC4yNjE3MjAyOSwtMS4wNDY0NTM4LDEuMDQ2NDUzOCwtMC4yNjE3MjAyOSwxODkuMTY5NTYsMTU3LjI0NDc1KSIgLz4KICAgICAgPHVzZQogICAgICAgICBpZD0idXNlNjYiCiAgICAgICAgIGlua3NjYXBlOnNwcmF5LW9yaWdpbj0iI3BhdGgzIgogICAgICAgICB4bGluazpocmVmPSIjcGF0aDMiCiAgICAgICAgIHRyYW5zZm9ybT0ibWF0cml4KDAuMTk0NjcyODMsLTEuNDE2MDQ2NywxLjQxNjA0NjcsMC4xOTQ2NzI4MywxNDQuNjgxNzIsMTczLjA2NzY0KSIgLz4KICAgICAgPHVzZQogICAgICAgICBpZD0idXNlNjciCiAgICAgICAgIGlua3NjYXBlOnNwcmF5LW9yaWdpbj0iI3BhdGgzIgogICAgICAgICB4bGluazpocmVmPSIjcGF0aDMiCiAgICAgICAgIHRyYW5zZm9ybT0ibWF0cml4KDAuOTU4NTQwMTEsLTAuOTI2NDY2NzQsMC45MjY0NjY3NCwwLjk1ODU0MDExLDgwLjA4MjE2NiwxNjEuODEyMTIpIiAvPgogICAgICA8dXNlCiAgICAgICAgIGlkPSJ1c2U2OCIKICAgICAgICAgaW5rc2NhcGU6c3ByYXktb3JpZ2luPSIjcGF0aDMiCiAgICAgICAgIHhsaW5rOmhyZWY9IiNwYXRoMyIKICAgICAgICAgdHJhbnNmb3JtPSJtYXRyaXgoMC40ODcyNTM2LC0wLjM1NTcyOTc0LDAuMzU1NzI5NzQsMC40ODcyNTM2LDk0LjgzMzg4Nyw5Mi44Nzc5NDkpIiAvPgogICAgICA8dXNlCiAgICAgICAgIGlkPSJ1c2U2OSIKICAgICAgICAgaW5rc2NhcGU6c3ByYXktb3JpZ2luPSIjcGF0aDUiCiAgICAgICAgIHhsaW5rOmhyZWY9IiNwYXRoNSIKICAgICAgICAgdHJhbnNmb3JtPSJtYXRyaXgoMS4yODk5NDczLDAuMDE3OTc3OCwtMC4wMTc5Nzc4LDEuMjg5OTQ3Myw0OC40MDcxODUsNzcuNDc1MjU5KSIgLz4KICAgICAgPHVzZQogICAgICAgICBpZD0idXNlNzAiCiAgICAgICAgIGlua3NjYXBlOnNwcmF5LW9yaWdpbj0iI3BhdGg0IgogICAgICAgICB4bGluazpocmVmPSIjcGF0aDQiCiAgICAgICAgIHRyYW5zZm9ybT0ibWF0cml4KDEuMTE3OTg4NSwwLjgxOTI4MDI1LC0wLjgxOTI4MDI1LDEuMTE3OTg4NSwtMTkuNDUxMDI2LDgxLjk0NDgzOSkiIC8+CiAgICAgIDx1c2UKICAgICAgICAgaWQ9InVzZTcxIgogICAgICAgICBpbmtzY2FwZTpzcHJheS1vcmlnaW49IiNwYXRoMyIKICAgICAgICAgeGxpbms6aHJlZj0iI3BhdGgzIgogICAgICAgICB0cmFuc2Zvcm09Im1hdHJpeCgxLjM0MzMyNjYsMC4xMzU1MjA5MywtMC4xMzU1MjA5MywxLjM0MzMyNjYsMTUuNzU4OTg4LDE1Mi45NjY5NCkiIC8+CiAgICAgIDx1c2UKICAgICAgICAgaWQ9InVzZTcyIgogICAgICAgICBpbmtzY2FwZTpzcHJheS1vcmlnaW49IiNlbGxpcHNlMjgiCiAgICAgICAgIHhsaW5rOmhyZWY9IiNlbGxpcHNlMjgiCiAgICAgICAgIHRyYW5zZm9ybT0ibWF0cml4KC0wLjEwODU2ODk5LDEuNDczMDQ2OSwtMS40NzMwNDY5LC0wLjEwODU2ODk5LC00Ny40MjYxMjQsLTE2LjU1MDEyNikiIC8+CiAgICAgIDx1c2UKICAgICAgICAgaWQ9InVzZTczIgogICAgICAgICBpbmtzY2FwZTpzcHJheS1vcmlnaW49IiNwYXRoNSIKICAgICAgICAgeGxpbms6aHJlZj0iI3BhdGg1IgogICAgICAgICB0cmFuc2Zvcm09Im1hdHJpeCgwLjEyNDgwMzE2LDAuODY5ODQwNDEsLTAuODY5ODQwNDEsMC4xMjQ4MDMxNiwtMTQuMzQ5ODAzLDIwLjE1Nzc3OCkiIC8+CiAgICAgIDx1c2UKICAgICAgICAgaWQ9InVzZTc0IgogICAgICAgICBpbmtzY2FwZTpzcHJheS1vcmlnaW49IiNwYXRoNCIKICAgICAgICAgeGxpbms6aHJlZj0iI3BhdGg0IgogICAgICAgICB0cmFuc2Zvcm09Im1hdHJpeCgxLjA2NTg3MDYsLTAuMjU0NzQzNSwwLjI1NDc0MzUsMS4wNjU4NzA2LC0xOS4yNTI4OTEsMTc4LjIzMzgyKSIgLz4KICAgICAgPHVzZQogICAgICAgICBpZD0idXNlNzUiCiAgICAgICAgIGlua3NjYXBlOnNwcmF5LW9yaWdpbj0iI2VsbGlwc2UzMCIKICAgICAgICAgeGxpbms6aHJlZj0iI2VsbGlwc2UzMCIKICAgICAgICAgdHJhbnNmb3JtPSJtYXRyaXgoMC41MjMyMTkyMiwtMC4xNjM2ODU3NiwwLjE2MzY4NTc2LDAuNTIzMjE5MjIsMTMuNzU0MzU3LDE2MS44ODE3MikiIC8+CiAgICAgIDx1c2UKICAgICAgICAgaWQ9InVzZTc2IgogICAgICAgICBpbmtzY2FwZTpzcHJheS1vcmlnaW49IiNwYXRoMyIKICAgICAgICAgeGxpbms6aHJlZj0iI3BhdGgzIgogICAgICAgICB0cmFuc2Zvcm09Im1hdHJpeCgtMC44NDAwNjk2NSwwLjAxNjI0Nzg3LC0wLjAxNjI0Nzg3LC0wLjg0MDA2OTY1LDExNi41OTgxOCw5MC4zMDk5MzQpIiAvPgogICAgICA8dXNlCiAgICAgICAgIGlkPSJ1c2U3NyIKICAgICAgICAgaW5rc2NhcGU6c3ByYXktb3JpZ2luPSIjcGF0aDMiCiAgICAgICAgIHhsaW5rOmhyZWY9IiNwYXRoMyIKICAgICAgICAgdHJhbnNmb3JtPSJtYXRyaXgoLTAuMDI1MDkxNzIsLTAuNTgzOTE0MDcsMC41ODM5MTQwNywtMC4wMjUwOTE3MiwxMzEuOTk5MDYsMTYzLjQwNjY4KSIgLz4KICAgICAgPHVzZQogICAgICAgICBpZD0idXNlNzgiCiAgICAgICAgIGlua3NjYXBlOnNwcmF5LW9yaWdpbj0iI3BhdGgzIgogICAgICAgICB4bGluazpocmVmPSIjcGF0aDMiCiAgICAgICAgIHRyYW5zZm9ybT0ibWF0cml4KC0wLjkwNjI4ODM1LC0wLjI1OTE1NDM4LDAuMjU5MTU0MzgsLTAuOTA2Mjg4MzUsMTY5LjUyMDI2LDk1LjAzMDgwNCkiIC8+CiAgICAgIDx1c2UKICAgICAgICAgaWQ9InVzZTc5IgogICAgICAgICBpbmtzY2FwZTpzcHJheS1vcmlnaW49IiNlbGxpcHNlMzAiCiAgICAgICAgIHhsaW5rOmhyZWY9IiNlbGxpcHNlMzAiCiAgICAgICAgIHRyYW5zZm9ybT0ibWF0cml4KC0wLjA1Njc0Nzg2LDAuNjAyMzc1NCwtMC42MDIzNzU0LC0wLjA1Njc0Nzg2LDgxLjg5MDA2MywxMDQuOTI4NjUpIiAvPgogICAgICA8dXNlCiAgICAgICAgIGlkPSJ1c2U4MCIKICAgICAgICAgaW5rc2NhcGU6c3ByYXktb3JpZ2luPSIjcGF0aDMiCiAgICAgICAgIHhsaW5rOmhyZWY9IiNwYXRoMyIKICAgICAgICAgdHJhbnNmb3JtPSJtYXRyaXgoLTAuMzEwNzc4MTUsLTAuNTM4NDc3MTcsMC41Mzg0NzcxNywtMC4zMTA3NzgxNSwxMjkuODcxMzUsMTY0LjYzMDQ5KSIgLz4KICAgICAgPHVzZQogICAgICAgICBpZD0idXNlODEiCiAgICAgICAgIGlua3NjYXBlOnNwcmF5LW9yaWdpbj0iI3BhdGgzIgogICAgICAgICB4bGluazpocmVmPSIjcGF0aDMiCiAgICAgICAgIHRyYW5zZm9ybT0ibWF0cml4KC0wLjU2NDc2MTYzLDAuOTE3Njc0ODEsLTAuOTE3Njc0ODEsLTAuNTY0NzYxNjMsMzIuMDY0OTQzLDc3LjgxNjg0MikiIC8+CiAgICAgIDx1c2UKICAgICAgICAgaWQ9InVzZTgyIgogICAgICAgICBpbmtzY2FwZTpzcHJheS1vcmlnaW49IiNwYXRoNCIKICAgICAgICAgeGxpbms6aHJlZj0iI3BhdGg0IgogICAgICAgICB0cmFuc2Zvcm09Im1hdHJpeCgtMC40ODE1NjY2MSwxLjMzMTE4NDEsLTEuMzMxMTg0MSwtMC40ODE1NjY2MSw0NS44OTY4NSw2MC41ODIxNDMpIiAvPgogICAgICA8dXNlCiAgICAgICAgIGlkPSJ1c2U4MyIKICAgICAgICAgaW5rc2NhcGU6c3ByYXktb3JpZ2luPSIjZWxsaXBzZTI5IgogICAgICAgICB4bGluazpocmVmPSIjZWxsaXBzZTI5IgogICAgICAgICB0cmFuc2Zvcm09Im1hdHJpeCgwLjQ2NTg4MzUxLC0wLjU1ODA5MTA5LDAuNTU4MDkxMDksMC40NjU4ODM1MSwxMDAuNzM0OTksMjM4LjE2NDMpIiAvPgogICAgICA8dXNlCiAgICAgICAgIGlkPSJ1c2U4NCIKICAgICAgICAgaW5rc2NhcGU6c3ByYXktb3JpZ2luPSIjcGF0aDUiCiAgICAgICAgIHhsaW5rOmhyZWY9IiNwYXRoNSIKICAgICAgICAgdHJhbnNmb3JtPSJtYXRyaXgoMS4xNzUzODc1LDAuNTcyNjkxODEsLTAuNTcyNjkxODEsMS4xNzUzODc1LC01NC44OTI3NTUsMTQyLjM5NjE2KSIgLz4KICAgICAgPHVzZQogICAgICAgICBpZD0idXNlODUiCiAgICAgICAgIGlua3NjYXBlOnNwcmF5LW9yaWdpbj0iI2VsbGlwc2UzMCIKICAgICAgICAgeGxpbms6aHJlZj0iI2VsbGlwc2UzMCIKICAgICAgICAgdHJhbnNmb3JtPSJtYXRyaXgoLTAuMDEyMDk4NCwxLjIxODU1NTMsLTEuMjE4NTU1MywtMC4wMTIwOTg0LDY3Ljc5MDYxLDExMi43NjgxOCkiIC8+CiAgICAgIDx1c2UKICAgICAgICAgaWQ9InVzZTg2IgogICAgICAgICBpbmtzY2FwZTpzcHJheS1vcmlnaW49IiNwYXRoMyIKICAgICAgICAgeGxpbms6aHJlZj0iI3BhdGgzIgogICAgICAgICB0cmFuc2Zvcm09Im1hdHJpeCgwLjkzMzQ4MDE2LC0wLjM0NDk5MzQzLDAuMzQ0OTkzNDMsMC45MzM0ODAxNiw0Mi40MjU4MjcsMjU5LjUyNjU0KSIgLz4KICAgICAgPHVzZQogICAgICAgICBpZD0idXNlODciCiAgICAgICAgIGlua3NjYXBlOnNwcmF5LW9yaWdpbj0iI3BhdGgzIgogICAgICAgICB4bGluazpocmVmPSIjcGF0aDMiCiAgICAgICAgIHRyYW5zZm9ybT0ibWF0cml4KDEuMzExODIzMSwwLjM5NjIxNDYsLTAuMzk2MjE0NiwxLjMxMTgyMzEsNy4yNTU1MzE0LDE5OS40NjU0KSIgLz4KICAgICAgPHVzZQogICAgICAgICBpZD0idXNlODgiCiAgICAgICAgIGlua3NjYXBlOnNwcmF5LW9yaWdpbj0iI3BhdGg1IgogICAgICAgICB4bGluazpocmVmPSIjcGF0aDUiCiAgICAgICAgIHRyYW5zZm9ybT0ibWF0cml4KC0wLjUxMzIxMTQ1LC0wLjAwNTk2MiwwLjAwNTk2MiwtMC41MTMyMTE0NSwyMDcuNTAwMzgsMjEuNzI0Njk4KSIgLz4KICAgICAgPHVzZQogICAgICAgICBpZD0idXNlODkiCiAgICAgICAgIGlua3NjYXBlOnNwcmF5LW9yaWdpbj0iI3BhdGgzIgogICAgICAgICB4bGluazpocmVmPSIjcGF0aDMiCiAgICAgICAgIHRyYW5zZm9ybT0ibWF0cml4KDEuMjg2MzkwNiwtMC4xMzQwNTEyNiwwLjEzNDA1MTI2LDEuMjg2MzkwNiwxMzMuMzU4ODksMTQ5LjI4NzE1KSIgLz4KICAgICAgPHVzZQogICAgICAgICBpZD0idXNlOTAiCiAgICAgICAgIGlua3NjYXBlOnNwcmF5LW9yaWdpbj0iI3BhdGgzIgogICAgICAgICB4bGluazpocmVmPSIjcGF0aDMiCiAgICAgICAgIHRyYW5zZm9ybT0ibWF0cml4KC0xLjMzMTk3MTEsMC42NjA5MjIxOCwtMC42NjA5MjIxOCwtMS4zMzE5NzExLDE5Mi45NTQyNSwtNzEuNTAzNDQzKSIgLz4KICAgICAgPHVzZQogICAgICAgICBpZD0idXNlOTEiCiAgICAgICAgIGlua3NjYXBlOnNwcmF5LW9yaWdpbj0iI3BhdGgzIgogICAgICAgICB4bGluazpocmVmPSIjcGF0aDMiCiAgICAgICAgIHRyYW5zZm9ybT0ibWF0cml4KDAuNjY1NzQ2NDgsMC4xNDEzMjQ4NywtMC4xNDEzMjQ4NywwLjY2NTc0NjQ4LDE1Ni45ODI0OCwxMjIuMzEzMDcpIiAvPgogICAgICA8dXNlCiAgICAgICAgIGlkPSJ1c2U5MiIKICAgICAgICAgaW5rc2NhcGU6c3ByYXktb3JpZ2luPSIjcGF0aDMiCiAgICAgICAgIHhsaW5rOmhyZWY9IiNwYXRoMyIKICAgICAgICAgdHJhbnNmb3JtPSJtYXRyaXgoLTAuNzE5MDA2NjUsMS4wNTM3NjU5LC0xLjA1Mzc2NTksLTAuNzE5MDA2NjUsMTkyLjA0OTU2LDE0Ljg4MTgyMykiIC8+CiAgICAgIDx1c2UKICAgICAgICAgaWQ9InVzZTkzIgogICAgICAgICBpbmtzY2FwZTpzcHJheS1vcmlnaW49IiNlbGxpcHNlMjkiCiAgICAgICAgIHhsaW5rOmhyZWY9IiNlbGxpcHNlMjkiCiAgICAgICAgIHRyYW5zZm9ybT0ibWF0cml4KC0wLjU0NTY0MzczLC0wLjc0MzQ2MTIxLDAuNzQzNDYxMjEsLTAuNTQ1NjQzNzMsMjgwLjM4MTc2LDE1MC43OTc3NCkiIC8+CiAgICAgIDx1c2UKICAgICAgICAgaWQ9InVzZTk0IgogICAgICAgICBpbmtzY2FwZTpzcHJheS1vcmlnaW49IiNwYXRoMyIKICAgICAgICAgeGxpbms6aHJlZj0iI3BhdGgzIgogICAgICAgICB0cmFuc2Zvcm09Im1hdHJpeCgwLjQwNzc3NjM2LDAuNDUxMTY3NjIsLTAuNDUxMTY3NjIsMC40MDc3NzYzNiwxMzguNTI2OTgsMTUyLjg3NTg4KSIgLz4KICAgICAgPHVzZQogICAgICAgICBpZD0idXNlOTUiCiAgICAgICAgIGlua3NjYXBlOnNwcmF5LW9yaWdpbj0iI2VsbGlwc2UzMCIKICAgICAgICAgeGxpbms6aHJlZj0iI2VsbGlwc2UzMCIKICAgICAgICAgdHJhbnNmb3JtPSJtYXRyaXgoLTAuNDI3Njg2NjMsMS40MzU4MzgzLC0xLjQzNTgzODMsLTAuNDI3Njg2NjMsMTIzLjk1NTU5LDg0LjEyMjg5NikiIC8+CiAgICA8L2c+CiAgPC9nPgo8L3N2Zz4K;" vertex="1" parent="1">
          <mxGeometry x="490" y="19.689999999999998" width="200.09129" height="181.95515" as="geometry" />
        </mxCell>
        <mxCell id="iaeM5CewVTjIPd2JOScx-12" value="" style="shape=image;verticalLabelPosition=bottom;verticalAlign=top;imageAspect=0;aspect=fixed;image=data:image/svg+xml,PD94bWwgdmVyc2lvbj0iMS4wIiBlbmNvZGluZz0iVVRGLTgiIHN0YW5kYWxvbmU9Im5vIj8+CjwhLS0gQ3JlYXRlZCB3aXRoIElua3NjYXBlIChodHRwOi8vd3d3Lmlua3NjYXBlLm9yZy8pIC0tPgoKPHN2ZwogICB3aWR0aD0iMTM3LjQ2NDc4bW0iCiAgIGhlaWdodD0iMTM4LjM0OTU2bW0iCiAgIHZpZXdCb3g9IjAgMCAxMzcuNDY0NzggMTM4LjM0OTU2IgogICB2ZXJzaW9uPSIxLjEiCiAgIGlkPSJzdmcxIgogICB4bWxuczppbmtzY2FwZT0iaHR0cDovL3d3dy5pbmtzY2FwZS5vcmcvbmFtZXNwYWNlcy9pbmtzY2FwZSIKICAgeG1sbnM6c29kaXBvZGk9Imh0dHA6Ly9zb2RpcG9kaS5zb3VyY2Vmb3JnZS5uZXQvRFREL3NvZGlwb2RpLTAuZHRkIgogICB4bWxucz0iaHR0cDovL3d3dy53My5vcmcvMjAwMC9zdmciCiAgIHhtbG5zOnN2Zz0iaHR0cDovL3d3dy53My5vcmcvMjAwMC9zdmciPgogIDxzb2RpcG9kaTpuYW1lZHZpZXcKICAgICBpZD0ibmFtZWR2aWV3MSIKICAgICBwYWdlY29sb3I9IiNmZmZmZmYiCiAgICAgYm9yZGVyY29sb3I9IiMwMDAwMDAiCiAgICAgYm9yZGVyb3BhY2l0eT0iMC4yNSIKICAgICBpbmtzY2FwZTpzaG93cGFnZXNoYWRvdz0iMiIKICAgICBpbmtzY2FwZTpwYWdlb3BhY2l0eT0iMC4wIgogICAgIGlua3NjYXBlOnBhZ2VjaGVja2VyYm9hcmQ9IjAiCiAgICAgaW5rc2NhcGU6ZGVza2NvbG9yPSIjZDFkMWQxIgogICAgIGlua3NjYXBlOmRvY3VtZW50LXVuaXRzPSJtbSIKICAgICBpbmtzY2FwZTp6b29tPSIwLjQ5MjY0MTY5IgogICAgIGlua3NjYXBlOmN4PSI0MDAuODk5ODkiCiAgICAgaW5rc2NhcGU6Y3k9IjU1OS4yMjk5NyIKICAgICBpbmtzY2FwZTp3aW5kb3ctd2lkdGg9IjEzNjYiCiAgICAgaW5rc2NhcGU6d2luZG93LWhlaWdodD0iNzQ1IgogICAgIGlua3NjYXBlOndpbmRvdy14PSItOCIKICAgICBpbmtzY2FwZTp3aW5kb3cteT0iLTgiCiAgICAgaW5rc2NhcGU6d2luZG93LW1heGltaXplZD0iMSIKICAgICBpbmtzY2FwZTpjdXJyZW50LWxheWVyPSJsYXllcjEiPgogICAgPGlua3NjYXBlOnBhZ2UKICAgICAgIHg9IjAiCiAgICAgICB5PSIwIgogICAgICAgd2lkdGg9IjEzNy40NjQ3OCIKICAgICAgIGhlaWdodD0iMTM4LjM0OTU2IgogICAgICAgaWQ9InBhZ2UyIgogICAgICAgbWFyZ2luPSIwIgogICAgICAgYmxlZWQ9IjAiIC8+CiAgPC9zb2RpcG9kaTpuYW1lZHZpZXc+CiAgPGRlZnMKICAgICBpZD0iZGVmczEiIC8+CiAgPGcKICAgICBpbmtzY2FwZTpsYWJlbD0iTGF5ZXIgMSIKICAgICBpbmtzY2FwZTpncm91cG1vZGU9ImxheWVyIgogICAgIGlkPSJsYXllcjEiCiAgICAgdHJhbnNmb3JtPSJ0cmFuc2xhdGUoLTM3LjMxMzc3NSwtODEuMjU1ODE3KSI+CiAgICA8ZwogICAgICAgaWQ9ImcyOSI+CiAgICAgIDxwYXRoCiAgICAgICAgIGlkPSJwYXRoMSIKICAgICAgICAgc3R5bGU9ImRpc3BsYXk6aW5saW5lO2ZpbGw6I2RlODdhYTtzdHJva2U6I2M4Mzc3MTtzdHJva2Utd2lkdGg6Mi40O3N0cm9rZS1saW5lY2FwOnJvdW5kO3N0cm9rZS1saW5lam9pbjpiZXZlbDtzdHJva2UtZGFzaGFycmF5Om5vbmU7cGFpbnQtb3JkZXI6c3Ryb2tlIGZpbGwgbWFya2VycyIKICAgICAgICAgZD0ibSAxNzIuOTM2NzEsMTUwLjkxNjgxIGMgMCw5LjA0Njc4IC0zLjY3MTE3LDE3LjEyMjI3IC01LjE0OTA5LDI1LjUwNDM1IC0yLjQ1MDI1LDEzLjg5NjY0IC02Ljk2MiwyMi45NTgzNSAtMTQuMDQyMDQsMjAuODI3MTIgLTguMDI4NDksLTIuNDE2NzMgLTEyLjk4ODEsMTAuNzI2NDEgLTIwLjgyNzEyLDE0LjA0MjA0IC03LjgzOTAxLDMuMzE1NjIgLTE4LjMxMDcyLDEwLjYzNTA3IC0yNS41MDQzNSw1LjE0OTA5IC0xNi42NzgyNDcsLTEyLjcxOTEgLTE4LjExNTgyNCwtMi41ODQyOCAtMjUuNTA0MzU0LC01LjE0OTA5IC04LjA0MDY5MywtMi43OTEyIC0xNC44OTg0OTQsLTguMTEzNCAtMjAuODI3MTI0LC0xNC4wNDIwMyAtNS45Mjg2MywtNS45Mjg2MyAtMTEuOTAyNzIsLTEyLjU4ODk5IC0xNC4wNDIwMzcsLTIwLjgyNzEzIC0xLjc4NDQ5NCwtNi44NzE3NyA2LjkxOTI3MywtMTYuMzY2NjIgLTUuMTQ5MDkzLC0yNS41MDQzNSAtNy4yMTI1NTEsLTUuNDYxMDggLTEuNjI1NDUyLC0yMC4zNTE3NyA1LjE0OTA5LC0yNS41MDQzNiA1LjgwNTQ0NywtNC40MTU1MSAxMy40OTA1MjcsLTcuNTA0OTUgMTQuMDQyMDM2LC0yMC44MjcxMiAwLjM0Njc5NywtOC4zNzcxNzQgMTYuOTMxODc3LC0yMS42MDk3NyAyMC44MjcxMjYsLTE0LjA0MjAzNiA3LjgzOTAxNiwxNS4yMjk3MzYgMTYuNDU3NTcyLDkuNjM1MzI2IDI1LjUwNDM1NiwtNS4xNDkwOTEgNC43MjE5NSwtNy43MTY3IDE3LjY2NTM0LDEuODMzNDY3IDI1LjUwNDM1LDUuMTQ5MDkyIDcuODM5MDIsMy4zMTU2MjUgMjAuNzQ1MDUsNS42NTgwOSAyMC44MjcxMywxNC4wNDIwMzUgMC4wNzE0LDcuMjk1MzEgLTExLjY4Njg1LDE4LjIxNzg3IDE0LjA0MjAzLDIwLjgyNzEzIDguNDY3OTQsMC44NTg3NiA1LjE0OTA5LDE2LjQ1NzU3IDUuMTQ5MDksMjUuNTA0MzUgeiIKICAgICAgICAgc29kaXBvZGk6bm9kZXR5cGVzPSJzc3Nzc3Nzc3Nzc3Nzc3NzcyIgLz4KICAgICAgPHBhdGgKICAgICAgICAgc3R5bGU9ImRpc3BsYXk6aW5saW5lO2ZpbGw6I2QzNWY4ZDtzdHJva2U6I2EwMmM1YTtzdHJva2Utd2lkdGg6MS4yNTtzdHJva2UtbGluZWNhcDpyb3VuZDtzdHJva2UtbGluZWpvaW46YmV2ZWw7c3Ryb2tlLWRhc2hhcnJheTpub25lO3BhaW50LW9yZGVyOnN0cm9rZSBmaWxsIG1hcmtlcnMiCiAgICAgICAgIGQ9Im0gODYuNTg2Njk0LDE0Ni45Njk1MiBjIC0yLjA2Mzk1OSwtNi4yOTY2NSAtMC45Mjk5NTIsLTEzLjk1MDE4IDIuMjc4NTk3LC0xOS43NDc4NCAzLjEzOTg5NywtNS42NzM2MSA4Ljk0NjY1MSwtMTAuNDAyODUgMTUuMTkwNjQ5LC0xMi4xNTI1MiA3LjYyMDA1LC0yLjEzNTI2IDE5LjIxMzA1LC0zLjU4NDE0IDIzLjU0NTUsMy4wMzgxMyAzLjQ2NTE5LDUuMjk2NjMgLTguNzI0OCwxMi44OTUyMyAtNS4zMTY3MiwxOC4yMjg3OCAzLjY1MzQ4LDUuNzE3NjEgMTMuNDE2NDksMi4wMzgxNyAyMC4xMjc2MSwzLjAzODEzIDQuMzAyODEsMC42NDExMiA5LjY1MTQ3LC0wLjk4MTA2IDEyLjkxMjA1LDEuODk4ODMgNC42MjY3NSw0LjA4NjU1IDYuOTE5NDgsMTIuMDAyOTUgNC45MzY5NiwxNy44NDkwMSAtMi4yOTI5NCw2Ljc2MTQ0IC0xMS4zNDk1OSw4LjY2NjA5IC0xNy4wODk0OCwxMi45MTIwNSAtNy4yODc3OSw1LjM5MDk5IC0xMy44NDI2OSwxMi4wNTEzMyAtMjIuMDI2NDQsMTUuOTUwMTggLTcuOTI4NDEsMy43NzcyIC0xOC42MDg1NCw2LjgzNTc5IC0yNS40NDQzMzYsNi44MzU3OSAtNi44MzU3OTMsMCAtMjEuNTU1NTQ3LC0yLjIyODY0IC0yNC4zMDUwMzcsLTEwLjYzMzQ1IC0xLjQxMDg5MiwtNC4zMTI5IDIuOTI1NTE2LC05LjQ3MDI1IDYuODM1NzkxLC0xMS43NzI3NSA1LjU2NDI4NiwtMy4yNzY0MyAxNy44NDkwMTEsLTAuMzc5NzcgMTkuMzY4MDc2LC0wLjM3OTc3IDEuNTE5MDY2LDAgMTUuOTk5MDY2LDAuMTc3MjEgMjIuNzg1OTc2LC0zLjQxNzkgMy45NTgxNCwtMi4wOTY2NyA4LjM5MDI2LC01LjQ1MzY3IDkuMTE0MzksLTkuODczOTIgMC44NTE5NCwtNS4yMDA0OCAtMS42NzU3OCwtMTIuMjEyOTkgLTYuNDU2MDMsLTE0LjQzMTExIC01LjM3ODYsLTIuNDk1NzcgLTExLjMzNjIsMy41MDI0IC0xNy4wODk0OCw0LjkzNjk2IC00Ljc2OTc3LDEuMTg5MzMgLTguNjE1NDg1LC0wLjY3NTI5IC0xMC4xMzQ1NTEsMC4wODQyIC0xLjUxOTA2NSwwLjc1OTUzIC04LjQ4MDIxNywtMC4wNjQ3IC05LjIzMzUyNSwtMi4zNjI4NCB6IgogICAgICAgICBpZD0icGF0aDIiCiAgICAgICAgIHNvZGlwb2RpOm5vZGV0eXBlcz0ic3Nzc3Nzc3Nzc3Nzc3Nzc3NzenMiIC8+CiAgICAgIDxjaXJjbGUKICAgICAgICAgc3R5bGU9ImZpbGw6I2QzNWY4ZDtzdHJva2U6bm9uZTtzdHJva2Utd2lkdGg6MS4zNDgxMTtzdHJva2UtbGluZWNhcDpyb3VuZDtzdHJva2UtbGluZWpvaW46YmV2ZWw7c3Ryb2tlLWRhc2hhcnJheTpub25lO3BhaW50LW9yZGVyOnN0cm9rZSBmaWxsIG1hcmtlcnMiCiAgICAgICAgIGlkPSJ1c2U1IgogICAgICAgICBjeD0iNjYuNDAxNjU3IgogICAgICAgICBjeT0iMTI3Ljc1NjMiCiAgICAgICAgIHI9IjIuMDI3Mjg5OSIKICAgICAgICAgdHJhbnNmb3JtPSJyb3RhdGUoNi45Njc5MDY0KSIgLz4KICAgICAgPGVsbGlwc2UKICAgICAgICAgc3R5bGU9ImZpbGw6I2QzNWY4ZDtzdHJva2U6bm9uZTtzdHJva2Utd2lkdGg6MS4zNDgxMTtzdHJva2UtbGluZWNhcDpyb3VuZDtzdHJva2UtbGluZWpvaW46YmV2ZWw7c3Ryb2tlLWRhc2hhcnJheTpub25lO3BhaW50LW9yZGVyOnN0cm9rZSBmaWxsIG1hcmtlcnMiCiAgICAgICAgIGlkPSJ1c2U2IgogICAgICAgICBjeD0iLTExMC42NDY0OCIKICAgICAgICAgY3k9IjgyLjQ5MTY2OSIKICAgICAgICAgcng9IjEuNDQ4MDY0MiIKICAgICAgICAgcnk9IjEuNTkyODcwNyIKICAgICAgICAgdHJhbnNmb3JtPSJyb3RhdGUoLTgwLjc5NzUwMSkiIC8+CiAgICAgIDxjaXJjbGUKICAgICAgICAgc3R5bGU9ImZpbGw6I2QzNWY4ZDtzdHJva2U6bm9uZTtzdHJva2Utd2lkdGg6MS4zNDgxMTtzdHJva2UtbGluZWNhcDpyb3VuZDtzdHJva2UtbGluZWpvaW46YmV2ZWw7c3Ryb2tlLWRhc2hhcnJheTpub25lO3BhaW50LW9yZGVyOnN0cm9rZSBmaWxsIG1hcmtlcnMiCiAgICAgICAgIGlkPSJ1c2U3IgogICAgICAgICBjeD0iNTAuODkxNzA1IgogICAgICAgICBjeT0iMTI0LjcyMjE1IgogICAgICAgICByPSIxLjE1ODQ1MTMiCiAgICAgICAgIHRyYW5zZm9ybT0icm90YXRlKC0xMy4yOTgxNjkpIiAvPgogICAgICA8Y2lyY2xlCiAgICAgICAgIHN0eWxlPSJmaWxsOiNkMzVmOGQ7c3Ryb2tlOm5vbmU7c3Ryb2tlLXdpZHRoOjEuMzQ4MTE7c3Ryb2tlLWxpbmVjYXA6cm91bmQ7c3Ryb2tlLWxpbmVqb2luOmJldmVsO3N0cm9rZS1kYXNoYXJyYXk6bm9uZTtwYWludC1vcmRlcjpzdHJva2UgZmlsbCBtYXJrZXJzIgogICAgICAgICBpZD0iY2lyY2xlNyIKICAgICAgICAgY3g9IjY5LjI5NjQ1NSIKICAgICAgICAgY3k9Ijk2LjI0MjQ5MyIKICAgICAgICAgcj0iMS4xNTg0NTEzIgogICAgICAgICBpbmtzY2FwZTpzcHJheS1vcmlnaW49IiNwYXRoNCIKICAgICAgICAgdHJhbnNmb3JtPSJyb3RhdGUoLTUuMzIyOTAxOCkiIC8+CiAgICAgIDxjaXJjbGUKICAgICAgICAgc3R5bGU9ImZpbGw6I2QzNWY4ZDtzdHJva2U6bm9uZTtzdHJva2Utd2lkdGg6MS4zNDgxMTtzdHJva2UtbGluZWNhcDpyb3VuZDtzdHJva2UtbGluZWpvaW46YmV2ZWw7c3Ryb2tlLWRhc2hhcnJheTpub25lO3BhaW50LW9yZGVyOnN0cm9rZSBmaWxsIG1hcmtlcnMiCiAgICAgICAgIGlkPSJjaXJjbGU4IgogICAgICAgICBjeD0iLTQuNzEyODU5MiIKICAgICAgICAgY3k9IjEyNS40MzQ2NSIKICAgICAgICAgcj0iMS4xNTg0NTEzIgogICAgICAgICBpbmtzY2FwZTpzcHJheS1vcmlnaW49IiNwYXRoNCIKICAgICAgICAgdHJhbnNmb3JtPSJyb3RhdGUoLTM0LjM2OTE0OSkiIC8+CiAgICAgIDxlbGxpcHNlCiAgICAgICAgIHN0eWxlPSJmaWxsOiNkMzVmOGQ7c3Ryb2tlOm5vbmU7c3Ryb2tlLXdpZHRoOjEuMzQ4MTE7c3Ryb2tlLWxpbmVjYXA6cm91bmQ7c3Ryb2tlLWxpbmVqb2luOmJldmVsO3N0cm9rZS1kYXNoYXJyYXk6bm9uZTtwYWludC1vcmRlcjpzdHJva2UgZmlsbCBtYXJrZXJzIgogICAgICAgICBpZD0iZWxsaXBzZTgiCiAgICAgICAgIGN4PSIxMjYuMTAxNTUiCiAgICAgICAgIGN5PSI2NC45MzI0NzIiCiAgICAgICAgIHJ4PSIxLjQ0ODA2NDIiCiAgICAgICAgIHJ5PSIxLjU5Mjg3MDYiCiAgICAgICAgIGlua3NjYXBlOnNwcmF5LW9yaWdpbj0iI3BhdGgzIgogICAgICAgICB0cmFuc2Zvcm09InJvdGF0ZSgzMi4xODY2OTQpIiAvPgogICAgICA8ZWxsaXBzZQogICAgICAgICBzdHlsZT0iZmlsbDojZDM1ZjhkO3N0cm9rZTpub25lO3N0cm9rZS13aWR0aDoxLjM0ODExO3N0cm9rZS1saW5lY2FwOnJvdW5kO3N0cm9rZS1saW5lam9pbjpiZXZlbDtzdHJva2UtZGFzaGFycmF5Om5vbmU7cGFpbnQtb3JkZXI6c3Ryb2tlIGZpbGwgbWFya2VycyIKICAgICAgICAgaWQ9ImVsbGlwc2U5IgogICAgICAgICBjeD0iMTUyLjM1MzE1IgogICAgICAgICBjeT0iMC43NjkwMjg3OCIKICAgICAgICAgcng9IjEuNDQ4MDY0MiIKICAgICAgICAgcnk9IjEuNTkyODcwNiIKICAgICAgICAgaW5rc2NhcGU6c3ByYXktb3JpZ2luPSIjcGF0aDMiCiAgICAgICAgIHRyYW5zZm9ybT0icm90YXRlKDU3LjQxNTI1NikiIC8+CiAgICAgIDxlbGxpcHNlCiAgICAgICAgIHN0eWxlPSJmaWxsOiNkMzVmOGQ7c3Ryb2tlOm5vbmU7c3Ryb2tlLXdpZHRoOjEuMzQ4MTE7c3Ryb2tlLWxpbmVjYXA6cm91bmQ7c3Ryb2tlLWxpbmVqb2luOmJldmVsO3N0cm9rZS1kYXNoYXJyYXk6bm9uZTtwYWludC1vcmRlcjpzdHJva2UgZmlsbCBtYXJrZXJzIgogICAgICAgICBpZD0iZWxsaXBzZTEwIgogICAgICAgICBjeD0iODUuMTUxMSIKICAgICAgICAgY3k9IjEyNi44MzE1NSIKICAgICAgICAgcng9IjEuNDQ4MDY0MSIKICAgICAgICAgcnk9IjEuNTkyODcwNiIKICAgICAgICAgaW5rc2NhcGU6c3ByYXktb3JpZ2luPSIjcGF0aDMiCiAgICAgICAgIHRyYW5zZm9ybT0icm90YXRlKDcuNzc0OTUzNSkiIC8+CiAgICAgIDxjaXJjbGUKICAgICAgICAgc3R5bGU9ImZpbGw6I2QzNWY4ZDtzdHJva2U6bm9uZTtzdHJva2Utd2lkdGg6MS4zNDgxMTtzdHJva2UtbGluZWNhcDpyb3VuZDtzdHJva2UtbGluZWpvaW46YmV2ZWw7c3Ryb2tlLWRhc2hhcnJheTpub25lO3BhaW50LW9yZGVyOnN0cm9rZSBmaWxsIG1hcmtlcnMiCiAgICAgICAgIGlkPSJjaXJjbGUxMCIKICAgICAgICAgY3g9IjEwMi42OTExMiIKICAgICAgICAgY3k9IjEyMi45NDg4MyIKICAgICAgICAgcj0iMS4xNTg0NTEzIgogICAgICAgICBpbmtzY2FwZTpzcHJheS1vcmlnaW49IiNwYXRoNCIKICAgICAgICAgdHJhbnNmb3JtPSJyb3RhdGUoMjEuNzQ1MjczKSIgLz4KICAgICAgPGNpcmNsZQogICAgICAgICBzdHlsZT0iZmlsbDojZDM1ZjhkO3N0cm9rZTpub25lO3N0cm9rZS13aWR0aDoxLjM0ODExO3N0cm9rZS1saW5lY2FwOnJvdW5kO3N0cm9rZS1saW5lam9pbjpiZXZlbDtzdHJva2UtZGFzaGFycmF5Om5vbmU7cGFpbnQtb3JkZXI6c3Ryb2tlIGZpbGwgbWFya2VycyIKICAgICAgICAgaWQ9ImNpcmNsZTExIgogICAgICAgICBjeD0iLTE1OC43NzM1NCIKICAgICAgICAgY3k9IjYzLjU5OTkxNSIKICAgICAgICAgcj0iMS4xNTg0NTEzIgogICAgICAgICBpbmtzY2FwZTpzcHJheS1vcmlnaW49IiNwYXRoNCIKICAgICAgICAgdHJhbnNmb3JtPSJyb3RhdGUoLTkyLjM2ODIyNikiIC8+CiAgICAgIDxjaXJjbGUKICAgICAgICAgc3R5bGU9ImZpbGw6I2QzNWY4ZDtzdHJva2U6bm9uZTtzdHJva2Utd2lkdGg6MS4zNDgxMTtzdHJva2UtbGluZWNhcDpyb3VuZDtzdHJva2UtbGluZWpvaW46YmV2ZWw7c3Ryb2tlLWRhc2hhcnJheTpub25lO3BhaW50LW9yZGVyOnN0cm9rZSBmaWxsIG1hcmtlcnMiCiAgICAgICAgIGlkPSJjaXJjbGUxMiIKICAgICAgICAgY3g9IjE0OC41NDM1NSIKICAgICAgICAgY3k9Ii05My4wOTM1ODIiCiAgICAgICAgIHI9IjIuMDI3Mjg5OSIKICAgICAgICAgaW5rc2NhcGU6c3ByYXktb3JpZ2luPSIjcGF0aDUiCiAgICAgICAgIHRyYW5zZm9ybT0icm90YXRlKDk0Ljk0MTE0NykiIC8+CiAgICAgIDxjaXJjbGUKICAgICAgICAgc3R5bGU9ImZpbGw6I2QzNWY4ZDtzdHJva2U6bm9uZTtzdHJva2Utd2lkdGg6MS4zNDgxMTtzdHJva2UtbGluZWNhcDpyb3VuZDtzdHJva2UtbGluZWpvaW46YmV2ZWw7c3Ryb2tlLWRhc2hhcnJheTpub25lO3BhaW50LW9yZGVyOnN0cm9rZSBmaWxsIG1hcmtlcnMiCiAgICAgICAgIGlkPSJjaXJjbGUxMyIKICAgICAgICAgY3g9Ii03OC45NTExNTciCiAgICAgICAgIGN5PSIxNzAuNjc5OTMiCiAgICAgICAgIHI9IjIuMDI3Mjg5OSIKICAgICAgICAgaW5rc2NhcGU6c3ByYXktb3JpZ2luPSIjcGF0aDUiCiAgICAgICAgIHRyYW5zZm9ybT0icm90YXRlKC01OC4yODk2NTEpIiAvPgogICAgICA8Y2lyY2xlCiAgICAgICAgIHN0eWxlPSJmaWxsOiNkMzVmOGQ7c3Ryb2tlOm5vbmU7c3Ryb2tlLXdpZHRoOjEuMzQ4MTE7c3Ryb2tlLWxpbmVjYXA6cm91bmQ7c3Ryb2tlLWxpbmVqb2luOmJldmVsO3N0cm9rZS1kYXNoYXJyYXk6bm9uZTtwYWludC1vcmRlcjpzdHJva2UgZmlsbCBtYXJrZXJzIgogICAgICAgICBpZD0iY2lyY2xlMTQiCiAgICAgICAgIGN4PSI4NC4zNDIwMSIKICAgICAgICAgY3k9IjE1NS4zMzM1NCIKICAgICAgICAgcj0iMi4wMjcyODk5IgogICAgICAgICBpbmtzY2FwZTpzcHJheS1vcmlnaW49IiNwYXRoNSIKICAgICAgICAgdHJhbnNmb3JtPSJyb3RhdGUoNS4yMzUyNDM2KSIgLz4KICAgICAgPGNpcmNsZQogICAgICAgICBzdHlsZT0iZmlsbDojZDM1ZjhkO3N0cm9rZTpub25lO3N0cm9rZS13aWR0aDoxLjM0ODExO3N0cm9rZS1saW5lY2FwOnJvdW5kO3N0cm9rZS1saW5lam9pbjpiZXZlbDtzdHJva2UtZGFzaGFycmF5Om5vbmU7cGFpbnQtb3JkZXI6c3Ryb2tlIGZpbGwgbWFya2VycyIKICAgICAgICAgaWQ9ImNpcmNsZTE1IgogICAgICAgICBjeD0iMTcwLjAxNjgzIgogICAgICAgICBjeT0iNDIuMzQ5OTQxIgogICAgICAgICByPSIyLjAyNzI4OTkiCiAgICAgICAgIGlua3NjYXBlOnNwcmF5LW9yaWdpbj0iI3BhdGg1IgogICAgICAgICB0cmFuc2Zvcm09InJvdGF0ZSg1Ny44MDE2NikiIC8+CiAgICAgIDxlbGxpcHNlCiAgICAgICAgIHN0eWxlPSJmaWxsOiNkMzVmOGQ7c3Ryb2tlOm5vbmU7c3Ryb2tlLXdpZHRoOjEuMzQ4MTE7c3Ryb2tlLWxpbmVjYXA6cm91bmQ7c3Ryb2tlLWxpbmVqb2luOmJldmVsO3N0cm9rZS1kYXNoYXJyYXk6bm9uZTtwYWludC1vcmRlcjpzdHJva2UgZmlsbCBtYXJrZXJzIgogICAgICAgICBpZD0iZWxsaXBzZTE1IgogICAgICAgICBjeD0iOTQuOTIzNzUyIgogICAgICAgICBjeT0iMTgxLjA1OTY2IgogICAgICAgICByeD0iMS40NDgwNjQyIgogICAgICAgICByeT0iMS41OTI4NzA3IgogICAgICAgICBpbmtzY2FwZTpzcHJheS1vcmlnaW49IiNwYXRoMyIKICAgICAgICAgdHJhbnNmb3JtPSJyb3RhdGUoOC43MzA0OTczKSIgLz4KICAgICAgPGVsbGlwc2UKICAgICAgICAgc3R5bGU9ImZpbGw6I2QzNWY4ZDtzdHJva2U6bm9uZTtzdHJva2Utd2lkdGg6MS4zNDgxMTtzdHJva2UtbGluZWNhcDpyb3VuZDtzdHJva2UtbGluZWpvaW46YmV2ZWw7c3Ryb2tlLWRhc2hhcnJheTpub25lO3BhaW50LW9yZGVyOnN0cm9rZSBmaWxsIG1hcmtlcnMiCiAgICAgICAgIGlkPSJlbGxpcHNlMTYiCiAgICAgICAgIGN4PSI5OS4zMjY2MjIiCiAgICAgICAgIGN5PSIyMDQuODg0OTkiCiAgICAgICAgIHJ4PSIxLjQ0ODA2NDIiCiAgICAgICAgIHJ5PSIxLjU5Mjg3MDciCiAgICAgICAgIGlua3NjYXBlOnNwcmF5LW9yaWdpbj0iI3BhdGgzIgogICAgICAgICB0cmFuc2Zvcm09InJvdGF0ZSgtMC43MTkwNDg0NCkiIC8+CiAgICAgIDxjaXJjbGUKICAgICAgICAgc3R5bGU9ImZpbGw6I2QzNWY4ZDtzdHJva2U6bm9uZTtzdHJva2Utd2lkdGg6MS4zNDgxMTtzdHJva2UtbGluZWNhcDpyb3VuZDtzdHJva2UtbGluZWpvaW46YmV2ZWw7c3Ryb2tlLWRhc2hhcnJheTpub25lO3BhaW50LW9yZGVyOnN0cm9rZSBmaWxsIG1hcmtlcnMiCiAgICAgICAgIGlkPSJjaXJjbGUxNiIKICAgICAgICAgY3g9IjE1Ny40NjYyNiIKICAgICAgICAgY3k9IjE2NC4yMjkxOSIKICAgICAgICAgcj0iMS4xNTg0NTEzIgogICAgICAgICBpbmtzY2FwZTpzcHJheS1vcmlnaW49IiNwYXRoNCIKICAgICAgICAgdHJhbnNmb3JtPSJyb3RhdGUoMTguNjQ5NTM0KSIgLz4KICAgICAgPGVsbGlwc2UKICAgICAgICAgc3R5bGU9ImZpbGw6I2QzNWY4ZDtzdHJva2U6bm9uZTtzdHJva2Utd2lkdGg6MS4zNDgxMTtzdHJva2UtbGluZWNhcDpyb3VuZDtzdHJva2UtbGluZWpvaW46YmV2ZWw7c3Ryb2tlLWRhc2hhcnJheTpub25lO3BhaW50LW9yZGVyOnN0cm9rZSBmaWxsIG1hcmtlcnMiCiAgICAgICAgIGlkPSJlbGxpcHNlMTciCiAgICAgICAgIGN4PSItNjkuMjI1Njg1IgogICAgICAgICBjeT0iMjIxLjc5NDk3IgogICAgICAgICByeD0iMS40NDgwNjQxIgogICAgICAgICByeT0iMS41OTI4NzA2IgogICAgICAgICBpbmtzY2FwZTpzcHJheS1vcmlnaW49IiNwYXRoMyIKICAgICAgICAgdHJhbnNmb3JtPSJyb3RhdGUoLTQ2LjkxNzE1OSkiIC8+CiAgICAgIDxlbGxpcHNlCiAgICAgICAgIHN0eWxlPSJmaWxsOiNkMzVmOGQ7c3Ryb2tlOm5vbmU7c3Ryb2tlLXdpZHRoOjEuMzQ4MTE7c3Ryb2tlLWxpbmVjYXA6cm91bmQ7c3Ryb2tlLWxpbmVqb2luOmJldmVsO3N0cm9rZS1kYXNoYXJyYXk6bm9uZTtwYWludC1vcmRlcjpzdHJva2UgZmlsbCBtYXJrZXJzIgogICAgICAgICBpZD0iZWxsaXBzZTE4IgogICAgICAgICBjeD0iMTU0LjcxMjI4IgogICAgICAgICBjeT0iMTc2LjUxODU5IgogICAgICAgICByeD0iMS40NDgwNjQyIgogICAgICAgICByeT0iMS41OTI4NzA3IgogICAgICAgICBpbmtzY2FwZTpzcHJheS1vcmlnaW49IiNwYXRoMyIKICAgICAgICAgdHJhbnNmb3JtPSJyb3RhdGUoNy41ODU3MTYzKSIgLz4KICAgICAgPGNpcmNsZQogICAgICAgICBzdHlsZT0iZmlsbDojZDM1ZjhkO3N0cm9rZTpub25lO3N0cm9rZS13aWR0aDoxLjM0ODExO3N0cm9rZS1saW5lY2FwOnJvdW5kO3N0cm9rZS1saW5lam9pbjpiZXZlbDtzdHJva2UtZGFzaGFycmF5Om5vbmU7cGFpbnQtb3JkZXI6c3Ryb2tlIGZpbGwgbWFya2VycyIKICAgICAgICAgaWQ9ImNpcmNsZTE4IgogICAgICAgICBjeD0iLTE0Ny40NjE3MiIKICAgICAgICAgY3k9IjE4OC4xNzg0NCIKICAgICAgICAgcj0iMi4wMjcyODk5IgogICAgICAgICBpbmtzY2FwZTpzcHJheS1vcmlnaW49IiNwYXRoNSIKICAgICAgICAgdHJhbnNmb3JtPSJyb3RhdGUoLTc2Ljk1NTU3NikiIC8+CiAgICAgIDxjaXJjbGUKICAgICAgICAgc3R5bGU9ImZpbGw6I2QzNWY4ZDtzdHJva2U6bm9uZTtzdHJva2Utd2lkdGg6MS4zNDgxMTtzdHJva2UtbGluZWNhcDpyb3VuZDtzdHJva2UtbGluZWpvaW46YmV2ZWw7c3Ryb2tlLWRhc2hhcnJheTpub25lO3BhaW50LW9yZGVyOnN0cm9rZSBmaWxsIG1hcmtlcnMiCiAgICAgICAgIGlkPSJjaXJjbGUxOSIKICAgICAgICAgY3g9Ii03Ljk5MTU5NDgiCiAgICAgICAgIGN5PSIyNDEuMjg4MDYiCiAgICAgICAgIHI9IjIuMDI3Mjg5OSIKICAgICAgICAgaW5rc2NhcGU6c3ByYXktb3JpZ2luPSIjcGF0aDUiCiAgICAgICAgIHRyYW5zZm9ybT0icm90YXRlKC00NC4zODc1OTMpIiAvPgogICAgICA8Y2lyY2xlCiAgICAgICAgIHN0eWxlPSJmaWxsOiNkMzVmOGQ7c3Ryb2tlOm5vbmU7c3Ryb2tlLXdpZHRoOjEuMzQ4MTE7c3Ryb2tlLWxpbmVjYXA6cm91bmQ7c3Ryb2tlLWxpbmVqb2luOmJldmVsO3N0cm9rZS1kYXNoYXJyYXk6bm9uZTtwYWludC1vcmRlcjpzdHJva2UgZmlsbCBtYXJrZXJzIgogICAgICAgICBpZD0iY2lyY2xlMjAiCiAgICAgICAgIGN4PSItODcuOTk4Nzk1IgogICAgICAgICBjeT0iMTc5LjU0NTU5IgogICAgICAgICByPSIxLjE1ODQ1MTMiCiAgICAgICAgIGlua3NjYXBlOnNwcmF5LW9yaWdpbj0iI3BhdGg0IgogICAgICAgICB0cmFuc2Zvcm09InJvdGF0ZSgtNzMuNjc0NDU1KSIgLz4KICAgICAgPGNpcmNsZQogICAgICAgICBzdHlsZT0iZmlsbDojZDM1ZjhkO3N0cm9rZTpub25lO3N0cm9rZS13aWR0aDoxLjM0ODExO3N0cm9rZS1saW5lY2FwOnJvdW5kO3N0cm9rZS1saW5lam9pbjpiZXZlbDtzdHJva2UtZGFzaGFycmF5Om5vbmU7cGFpbnQtb3JkZXI6c3Ryb2tlIGZpbGwgbWFya2VycyIKICAgICAgICAgaWQ9ImNpcmNsZTIxIgogICAgICAgICBjeD0iLTk4LjUyMTM3IgogICAgICAgICBjeT0iMTYzLjU0MjI1IgogICAgICAgICByPSIxLjE1ODQ1MTMiCiAgICAgICAgIGlua3NjYXBlOnNwcmF5LW9yaWdpbj0iI3BhdGg0IgogICAgICAgICB0cmFuc2Zvcm09InJvdGF0ZSgtODIuODY1MzkyKSIgLz4KICAgICAgPGVsbGlwc2UKICAgICAgICAgc3R5bGU9ImZpbGw6I2QzNWY4ZDtzdHJva2U6bm9uZTtzdHJva2Utd2lkdGg6MS4zNDgxMTtzdHJva2UtbGluZWNhcDpyb3VuZDtzdHJva2UtbGluZWpvaW46YmV2ZWw7c3Ryb2tlLWRhc2hhcnJheTpub25lO3BhaW50LW9yZGVyOnN0cm9rZSBmaWxsIG1hcmtlcnMiCiAgICAgICAgIGlkPSJlbGxpcHNlMjEiCiAgICAgICAgIGN4PSIxNDEuMjk4OSIKICAgICAgICAgY3k9Ii0xMDMuMTI2ODgiCiAgICAgICAgIHJ4PSIxLjQ0ODA2NDEiCiAgICAgICAgIHJ5PSIxLjU5Mjg3MDYiCiAgICAgICAgIGlua3NjYXBlOnNwcmF5LW9yaWdpbj0iI3BhdGgzIgogICAgICAgICB0cmFuc2Zvcm09InJvdGF0ZSg3Ny4yODAzNDIpIiAvPgogICAgICA8Y2lyY2xlCiAgICAgICAgIHN0eWxlPSJmaWxsOiNkMzVmOGQ7c3Ryb2tlOm5vbmU7c3Ryb2tlLXdpZHRoOjEuMzQ4MTE7c3Ryb2tlLWxpbmVjYXA6cm91bmQ7c3Ryb2tlLWxpbmVqb2luOmJldmVsO3N0cm9rZS1kYXNoYXJyYXk6bm9uZTtwYWludC1vcmRlcjpzdHJva2UgZmlsbCBtYXJrZXJzIgogICAgICAgICBpZD0iY2lyY2xlMjMiCiAgICAgICAgIGN4PSIwLjI4OTU5MjgzIgogICAgICAgICBjeT0iMTM4Ljk5MDQ2IgogICAgICAgICByPSIyLjAyNzI4OTkiCiAgICAgICAgIGlua3NjYXBlOnNwcmF5LW9yaWdpbj0iI3BhdGg1IgogICAgICAgICB0cmFuc2Zvcm09InJvdGF0ZSgtNDIuMDI2NTg1KSIgLz4KICAgICAgPGVsbGlwc2UKICAgICAgICAgc3R5bGU9ImZpbGw6I2QzNWY4ZDtzdHJva2U6bm9uZTtzdHJva2Utd2lkdGg6MS4zNDgxMTtzdHJva2UtbGluZWNhcDpyb3VuZDtzdHJva2UtbGluZWpvaW46YmV2ZWw7c3Ryb2tlLWRhc2hhcnJheTpub25lO3BhaW50LW9yZGVyOnN0cm9rZSBmaWxsIG1hcmtlcnMiCiAgICAgICAgIGlkPSJlbGxpcHNlMjMiCiAgICAgICAgIGN4PSIxNDMuNzA2MzQiCiAgICAgICAgIGN5PSIxMi40ODkzNyIKICAgICAgICAgcng9IjEuNDQ4MDY0MiIKICAgICAgICAgcnk9IjEuNTkyODcwNiIKICAgICAgICAgaW5rc2NhcGU6c3ByYXktb3JpZ2luPSIjcGF0aDMiCiAgICAgICAgIHRyYW5zZm9ybT0icm90YXRlKDM0LjIxNjM3MikiIC8+CiAgICAgIDxjaXJjbGUKICAgICAgICAgc3R5bGU9ImZpbGw6I2QzNWY4ZDtzdHJva2U6bm9uZTtzdHJva2Utd2lkdGg6MS4zNDgxMTtzdHJva2UtbGluZWNhcDpyb3VuZDtzdHJva2UtbGluZWpvaW46YmV2ZWw7c3Ryb2tlLWRhc2hhcnJheTpub25lO3BhaW50LW9yZGVyOnN0cm9rZSBmaWxsIG1hcmtlcnMiCiAgICAgICAgIGlkPSJjaXJjbGUyNCIKICAgICAgICAgY3g9IjI5LjIzNzg2NyIKICAgICAgICAgY3k9IjE1Ny45NjUwNyIKICAgICAgICAgcj0iMS4xNTg0NTEzIgogICAgICAgICBpbmtzY2FwZTpzcHJheS1vcmlnaW49IiNwYXRoNCIKICAgICAgICAgdHJhbnNmb3JtPSJyb3RhdGUoLTQyLjAxMzE2MSkiIC8+CiAgICAgIDxlbGxpcHNlCiAgICAgICAgIHN0eWxlPSJmaWxsOiNkMzVmOGQ7c3Ryb2tlOm5vbmU7c3Ryb2tlLXdpZHRoOjEuMzQ4MTE7c3Ryb2tlLWxpbmVjYXA6cm91bmQ7c3Ryb2tlLWxpbmVqb2luOmJldmVsO3N0cm9rZS1kYXNoYXJyYXk6bm9uZTtwYWludC1vcmRlcjpzdHJva2UgZmlsbCBtYXJrZXJzIgogICAgICAgICBpZD0iZWxsaXBzZTI0IgogICAgICAgICBjeD0iLTU0Ljg5MDcyOCIKICAgICAgICAgY3k9IjE0My4xNDY4NSIKICAgICAgICAgcng9IjEuNDQ4MDY0MiIKICAgICAgICAgcnk9IjEuNTkyODcwNiIKICAgICAgICAgaW5rc2NhcGU6c3ByYXktb3JpZ2luPSIjcGF0aDMiCiAgICAgICAgIHRyYW5zZm9ybT0icm90YXRlKC02Ny42NzQyMSkiIC8+CiAgICAgIDxlbGxpcHNlCiAgICAgICAgIHN0eWxlPSJmaWxsOiNkMzVmOGQ7c3Ryb2tlOm5vbmU7c3Ryb2tlLXdpZHRoOjEuMzQ4MTE7c3Ryb2tlLWxpbmVjYXA6cm91bmQ7c3Ryb2tlLWxpbmVqb2luOmJldmVsO3N0cm9rZS1kYXNoYXJyYXk6bm9uZTtwYWludC1vcmRlcjpzdHJva2UgZmlsbCBtYXJrZXJzIgogICAgICAgICBpZD0iZWxsaXBzZTI1IgogICAgICAgICBjeD0iMTMwLjM3NDM5IgogICAgICAgICBjeT0iLTEyNi4wNDA0MSIKICAgICAgICAgcng9IjEuNDQ4MDY0MiIKICAgICAgICAgcnk9IjEuNTkyODcwNyIKICAgICAgICAgaW5rc2NhcGU6c3ByYXktb3JpZ2luPSIjcGF0aDMiCiAgICAgICAgIHRyYW5zZm9ybT0icm90YXRlKDc3Ljg3MTgzNCkiIC8+CiAgICAgIDxjaXJjbGUKICAgICAgICAgc3R5bGU9ImZpbGw6I2QzNWY4ZDtzdHJva2U6bm9uZTtzdHJva2Utd2lkdGg6MS4zNDgxMTtzdHJva2UtbGluZWNhcDpyb3VuZDtzdHJva2UtbGluZWpvaW46YmV2ZWw7c3Ryb2tlLWRhc2hhcnJheTpub25lO3BhaW50LW9yZGVyOnN0cm9rZSBmaWxsIG1hcmtlcnMiCiAgICAgICAgIGlkPSJjaXJjbGUyNSIKICAgICAgICAgY3g9IjQ2LjIzODQ3NiIKICAgICAgICAgY3k9IjE4My44MjQyMyIKICAgICAgICAgcj0iMi4wMjcyODk5IgogICAgICAgICBpbmtzY2FwZTpzcHJheS1vcmlnaW49IiNwYXRoNSIKICAgICAgICAgdHJhbnNmb3JtPSJyb3RhdGUoLTM0LjQ5NzQ1MykiIC8+CiAgICAgIDxjaXJjbGUKICAgICAgICAgc3R5bGU9ImZpbGw6I2QzNWY4ZDtzdHJva2U6bm9uZTtzdHJva2Utd2lkdGg6MS4zNDgxMTtzdHJva2UtbGluZWNhcDpyb3VuZDtzdHJva2UtbGluZWpvaW46YmV2ZWw7c3Ryb2tlLWRhc2hhcnJheTpub25lO3BhaW50LW9yZGVyOnN0cm9rZSBmaWxsIG1hcmtlcnMiCiAgICAgICAgIGlkPSJjaXJjbGUyNiIKICAgICAgICAgY3g9Ii0xOC4xMzMwNTkiCiAgICAgICAgIGN5PSIxNTguNDUzNjMiCiAgICAgICAgIHI9IjIuMDI3Mjg5OSIKICAgICAgICAgaW5rc2NhcGU6c3ByYXktb3JpZ2luPSIjcGF0aDUiCiAgICAgICAgIHRyYW5zZm9ybT0icm90YXRlKC0yOC41MDMyNTUpIiAvPgogICAgICA8Y2lyY2xlCiAgICAgICAgIHN0eWxlPSJmaWxsOiNkMzVmOGQ7c3Ryb2tlOm5vbmU7c3Ryb2tlLXdpZHRoOjEuMzQ4MTE7c3Ryb2tlLWxpbmVjYXA6cm91bmQ7c3Ryb2tlLWxpbmVqb2luOmJldmVsO3N0cm9rZS1kYXNoYXJyYXk6bm9uZTtwYWludC1vcmRlcjpzdHJva2UgZmlsbCBtYXJrZXJzIgogICAgICAgICBpZD0iY2lyY2xlMjciCiAgICAgICAgIGN4PSIxODYuMzY4OTYiCiAgICAgICAgIGN5PSItNTQuNzYxNzE5IgogICAgICAgICByPSIxLjE1ODQ1MTMiCiAgICAgICAgIGlua3NjYXBlOnNwcmF5LW9yaWdpbj0iI3BhdGg0IgogICAgICAgICB0cmFuc2Zvcm09InJvdGF0ZSg2Ni40OTI1NjUpIiAvPgogICAgICA8ZWxsaXBzZQogICAgICAgICBzdHlsZT0iZmlsbDojZDM1ZjhkO3N0cm9rZTpub25lO3N0cm9rZS13aWR0aDoxLjM0ODExO3N0cm9rZS1saW5lY2FwOnJvdW5kO3N0cm9rZS1saW5lam9pbjpiZXZlbDtzdHJva2UtZGFzaGFycmF5Om5vbmU7cGFpbnQtb3JkZXI6c3Ryb2tlIGZpbGwgbWFya2VycyIKICAgICAgICAgaWQ9ImVsbGlwc2UyNyIKICAgICAgICAgY3g9IjE4OC44NTc5NiIKICAgICAgICAgY3k9IjE3LjY1OTU5NyIKICAgICAgICAgcng9IjEuNDQ4MDY0MiIKICAgICAgICAgcnk9IjEuNTkyODcwNiIKICAgICAgICAgaW5rc2NhcGU6c3ByYXktb3JpZ2luPSIjcGF0aDMiCiAgICAgICAgIHRyYW5zZm9ybT0icm90YXRlKDY2LjA0MjU0NSkiCiAgICAgICAgIGlua3NjYXBlOmV4cG9ydC1maWxlbmFtZT0iRW9zaW5vcGhpbC5zdmciCiAgICAgICAgIGlua3NjYXBlOmV4cG9ydC14ZHBpPSI5NiIKICAgICAgICAgaW5rc2NhcGU6ZXhwb3J0LXlkcGk9Ijk2IiAvPgogICAgPC9nPgogIDwvZz4KPC9zdmc+Cg==;" vertex="1" parent="1">
          <mxGeometry x="660" y="201.65" width="137.46478" height="138.34956" as="geometry" />
        </mxCell>
      </root>
    </mxGraphModel>
  </diagram>
</mxfile>
